<svg id="visual" viewBox="0 0 600 900" width="600" height="900" xmlns="http://www.w3.org/2000/svg" 
xmlns:xlink="http://www.w3.org/1999/xlink" version="1.1">

<path d="M0 145L33.3 142C66.7 139 133.3 133 200 133C266.7 133 333.3 139 400 145C466.7 151 533.3 157 566.7 160L600 
163L600 0L566.7 0C533.3 0 466.7 0 400 0C333.3 0 266.7 0 200 0C133.3 0 66.7 0 33.3 0L0 0Z" fill="rgba(250,250,250,1)">
</path>

<path d="M0 334L33.3 334C66.7 334 133.3 334 200 328C266.7 322 333.3 310 400 307C466.7 304 533.3 310 566.7 313L600 316L600 
161L566.7 158C533.3 155 466.7 149 400 143C333.3 137 266.7 131 200 131C133.3 131 66.7 137 33.3 140L0 143Z" fill="rgb(236, 248, 255)">
</path>

<path d="M0 649L33.3 635.5C66.7 622 133.3 595 200 584.5C266.7 574 333.3 580 400 580C466.7 580 533.3 574 566.7 571L600 568L600 314L566.7 
311C533.3 308 466.7 302 400 305C333.3 308 266.7 320 200 326C133.3 332 66.7 332 33.3 332L0 332Z" fill="rgb(215, 243, 255)">
</path>

<path d="M0 901L33.3 901C66.7 901 133.3 901 200 901C266.7 901 333.3 901 400 901C466.7 901 533.3 901 566.7 901L600 901L600 566L566.7 569C533.3 572 
466.7 578 400 578C333.3 578 266.7 572 200 582.5C133.3 593 66.7 620 33.3 633.5L0 647Z" fill="rgb(181, 227, 253)">
</path>

</svg>