<?xml version="1.0" encoding="UTF-8" standalone="no"?>
<!-- Created with Inkscape (http://www.inkscape.org/) -->

<svg
   width="62.895885mm"
   height="70.304825mm"
   viewBox="0 0 62.895885 70.304825"
   version="1.1"
   id="svg5"
   sodipodi:docname="favicon.svg"
   inkscape:version="1.1 (c68e22c387, 2021-05-23)"
   xmlns:inkscape="http://www.inkscape.org/namespaces/inkscape"
   xmlns:sodipodi="http://sodipodi.sourceforge.net/DTD/sodipodi-0.dtd"
   xmlns="http://www.w3.org/2000/svg"
   xmlns:svg="http://www.w3.org/2000/svg">
  <sodipodi:namedview
     id="namedview7"
     pagecolor="#ffffff"
     bordercolor="#666666"
     borderopacity="1.0"
     inkscape:pageshadow="2"
     inkscape:pageopacity="0.0"
     inkscape:pagecheckerboard="0"
     inkscape:document-units="mm"
     showgrid="false"
     inkscape:object-nodes="true"
     inkscape:snap-nodes="false"
     inkscape:snap-midpoints="true"
     inkscape:object-paths="true"
     inkscape:snap-smooth-nodes="true"
     inkscape:snap-intersection-paths="true"
     inkscape:zoom="1.4142136"
     inkscape:cx="246.42671"
     inkscape:cy="99.3485"
     inkscape:window-width="1920"
     inkscape:window-height="1001"
     inkscape:window-x="-9"
     inkscape:window-y="-9"
     inkscape:window-maximized="1"
     inkscape:current-layer="layer1"
     inkscape:snap-others="false"
     inkscape:snap-global="false" />
  <defs
     id="defs2" />
  <g
     inkscape:label="Capa 1"
     inkscape:groupmode="layer"
     id="layer1"
     transform="translate(-69.350834,-70.731659)">
    <path
       style="fill:none;stroke:#000000;stroke-width:0.264583px;stroke-linecap:butt;stroke-linejoin:miter;stroke-opacity:1;opacity:0.84"
       d="m 101.3165,140.81896 -30.358373,-15.72783 -0.365762,-6.9495 7.31527,1.82881 -0.731527,-27.798026 -6.949507,1.828818 -0.731527,-4.754927 30.358374,-18.288177 0.731532,12.801724 -11.338675,4.389163 0.365764,12.070195 10.972911,-0.365762 0.36576,12.435962 -10.972907,-0.73153 v 12.80173 l 11.338667,3.65763 z"
       id="path451" />
    <path
       style="fill:none;stroke:#000000;stroke-width:0.264583px;stroke-linecap:butt;stroke-linejoin:miter;stroke-opacity:1;opacity:0.84"
       d="m 99.853447,70.958127 31.089903,16.825124 -0.73153,5.852217 -29.62684,-9.875616"
       id="path1170" />
    <path
       style="fill:none;stroke:#000000;stroke-width:0.264583px;stroke-linecap:butt;stroke-linejoin:miter;stroke-opacity:1;opacity:0.84"
       d="m 130.21182,93.635466 -8.41256,3.657637 -32.552955,-8.778325"
       id="path1172" />
    <path
       style="fill:none;stroke:#000000;stroke-width:0.264583px;stroke-linecap:butt;stroke-linejoin:miter;stroke-opacity:1;opacity:0.84"
       d="m 100.58498,100.58498 v -0.36577"
       id="path1174" />
    <path
       style="fill:none;stroke:#000000;stroke-width:0.268087px;stroke-linecap:butt;stroke-linejoin:miter;stroke-opacity:1;opacity:0.84"
       d="m 100.22046,99.855724 h 0.73147 l 29.99019,2.253286 v 7.51094 l -29.99019,2.62884"
       id="path1257" />
    <path
       style="fill:none;stroke:#000000;stroke-width:0.264583px;stroke-linecap:butt;stroke-linejoin:miter;stroke-opacity:1;opacity:0.84"
       d="m 121.93116,110.32868 v 7.31528 l -32.187188,6.58374"
       id="path1265" />
    <path
       style="fill:none;stroke:#000000;stroke-width:0.258527px;stroke-linecap:butt;stroke-linejoin:miter;stroke-opacity:1;opacity:0.84"
       d="m 121.8445,117.60406 9.89827,0.69682 -30.42802,9.75556"
       id="path1269" />
    <path
       style="fill:none;stroke:#000000;stroke-width:0.259113px;stroke-linecap:butt;stroke-linejoin:miter;stroke-opacity:1;opacity:0.84"
       d="m 101.36601,140.92131 30.74415,-17.80794 -0.44448,-4.85914"
       id="path1273"
       sodipodi:nodetypes="ccc" />
    <path
       style="fill:none;stroke:#000000;stroke-width:0.245296px;stroke-linecap:butt;stroke-linejoin:miter;stroke-opacity:1;opacity:0.84"
       d="m 70.197691,94.045963 7.162613,3.210821"
       id="path1503" />
    <path
       style="fill:none;stroke:#000000;stroke-width:0.264349px;stroke-linecap:butt;stroke-linejoin:miter;stroke-opacity:1;opacity:0.84"
       d="m 70.498354,118.11932 7.409747,-1.44184"
       id="path1507" />
    <path
       style="fill:none;stroke:#000000;stroke-width:0.264583px;stroke-linecap:butt;stroke-linejoin:miter;stroke-opacity:1;opacity:0.84"
       d="m 121.84147,97.332878 h 0.0468 l 0.0935,4.022412"
       id="path23399" />
    <path
       style="fill:#000000;stroke-width:0.125;opacity:0.84"
       d="m 117.73755,48.892334 c -13.49424,5.253848 -27.034286,10.391291 -40.492518,15.736608 -0.880399,0.463937 -2.416967,0.679965 -2.428138,1.936243 0.151294,1.1954 1.619433,1.22452 2.502498,1.581541 14.81546,4.16961 29.700918,8.086783 44.552228,12.12616 25.27775,6.804014 50.53864,13.672095 75.84935,20.352504 1.10567,0.24475 2.0762,-0.61883 3.09695,-0.916467 9.29844,-3.998802 18.60179,-7.991588 27.82197,-12.167663 0.93965,-0.421316 0.61797,-1.862229 -0.3645,-1.978028 -36.59248,-12.311971 -73.2396,-24.460733 -109.86084,-36.687011 -0.22335,0.01484 -0.46319,-0.06333 -0.677,0.01611 z"
       id="path25307"
       transform="matrix(0.26458333,0,0,0.26458333,69.350834,70.731659)" />
    <path
       style="fill:#000000;stroke-width:0.125;opacity:0.84"
       d="m 199.11157,176.77881 c -40.02297,8.19841 -80.05999,16.32923 -120.068601,24.59668 -0.988648,0.21983 -0.974094,1.7254 -0.01636,1.97485 8.090258,2.83579 16.282934,5.37327 24.429821,8.0415 5.80777,1.85421 11.59701,3.77221 17.4298,5.54468 1.51913,-0.16647 2.94013,-0.88235 4.41988,-1.26588 35.93948,-11.49136 71.87799,-22.98701 107.78764,-34.57128 1.02581,-0.36999 0.69685,-1.9707 -0.36279,-1.95898 -11.15409,-0.83423 -22.31604,-1.61002 -33.47361,-2.37118 l -0.12473,0.008 z"
       id="path25346"
       transform="matrix(0.26458333,0,0,0.26458333,69.350834,70.731659)" />
    <path
       style="fill:#000000;stroke-width:0.5;opacity:0.84"
       d="m 27.895508,81.165039 c -7.378953,2.243962 -15.089867,3.535978 -22.2998049,6.251953 -1.9215479,2.06548 2.0378197,2.954254 3.2926734,3.583037 6.7464985,2.873706 13.3804175,6.297738 20.2034115,8.817332 1.854785,-1.133564 0.732625,-4.322927 1.126962,-6.352517 -0.256797,-3.96213 0.296042,-8.324487 -1.342774,-12.003907 -0.253474,-0.247574 -0.629074,-0.370135 -0.980468,-0.295898 z"
       id="path25385"
       transform="matrix(0.26458333,0,0,0.26458333,69.350834,70.731659)" />
    <path
       style="fill:#000000;stroke-width:0.5;opacity:0.84"
       d="m 31.060547,173.66016 c -8.021987,1.68408 -16.260387,2.85308 -24.1516972,4.83807 -0.8466171,2.88184 4.7416702,2.13812 6.6488592,3.26331 5.970338,1.33993 11.867663,3.36617 17.921783,4.16326 2.499051,-1.09641 0.473808,-4.45002 0.824219,-6.47265 -0.478327,-1.75465 1.006187,-5.34463 -1.243164,-5.79199 z"
       id="path25424"
       transform="matrix(0.26458333,0,0,0.26458333,69.350834,70.731659)" />
    <path
       style="font-variation-settings:normal;opacity:0.84;vector-effect:none;fill:none;fill-opacity:1;stroke-width:0.25;stroke-linecap:butt;stroke-linejoin:miter;stroke-miterlimit:4;stroke-dasharray:none;stroke-dashoffset:0;stroke-opacity:1;-inkscape-stroke:none;stop-color:#000000;stop-opacity:1"
       d="M 114.50293,1.7226562 C 97.51503,11.157957 80.970965,21.484622 64.212535,31.359582 43.166629,44.047892 21.970043,56.502225 1.1396484,69.538085 c -1.08779622,2.46427 0.3581882,5.489175 0.3244352,8.12666 0.5311917,3.23969 0.668958,6.606785 1.6531039,9.74053 2.2651195,1.118985 4.979258,-0.97197 7.3906445,-1.11709 6.229911,-1.521025 12.377153,-3.4327 18.691387,-4.58213 1.077473,34.642925 1.998173,69.316925 2.793945,103.977535 -8.753924,-1.84442 -17.381977,-4.65302 -26.166992,-6.11133 -1.7884134,1.82442 -0.537202,5.03244 -0.9068285,7.36418 0.242473,6.21255 0.2160489,12.61694 1.363906,18.66184 11.1753395,6.37498 23.0057205,12.01541 34.4330755,18.10778 26.236905,13.57269 52.412205,27.26743 78.734845,40.67187 2.51613,0.19312 1.17688,-3.41379 1.63281,-4.84961 0.27229,-14.15029 0.12905,-28.30413 0.16602,-42.45606 -1.83786,-2.24007 -5.68185,-2.1063 -8.31103,-3.39877 -11.58652,-3.71971 -23.173115,-7.43914 -34.76026,-11.15689 0.0596,-15.94266 0.0051,-31.8864 0.2041,-47.82813 13.497885,0.53226 26.98056,2.18002 40.48438,2.1084 1.99281,-1.47618 0.19241,-4.87669 0.67643,-7.06148 -0.51485,-12.96568 -0.57586,-25.97408 -1.5319,-38.90922 -1.84245,-1.6394 -4.84235,-0.26931 -7.11524,-0.68164 -11.309325,0.19465 -22.610965,0.73122 -33.92187,0.83887 C 76.29645,95.99669 76.02622,81.002495 75.521485,66.004885 89.527475,60.56015 103.56631,55.19835 117.53711,49.664062 c 1.50193,-2.224974 -0.0157,-5.47479 0.3125,-8.077148 -0.704,-12.998074 -1.33149,-26.003241 -2.24414,-38.9882812 -0.25081,-0.5219149 -0.46049,-0.8856115 -1.10254,-0.8759766 z"
       id="path27762"
       transform="matrix(0.26458333,0,0,0.26458333,69.350834,70.731659)" />
    <path
       style="font-variation-settings:normal;opacity:0.84;vector-effect:none;fill:none;fill-opacity:1;stroke-width:0.25;stroke-linecap:butt;stroke-linejoin:miter;stroke-miterlimit:4;stroke-dasharray:none;stroke-dashoffset:0;stroke-opacity:1;-inkscape-stroke:none;stop-color:#000000;stop-opacity:1"
       d="m 115.90332,1.8242187 c -1.37218,2.3612281 0.0493,5.5473998 -0.26855,8.1953123 0.70493,13.020847 1.19831,26.070454 2.29394,39.05957 4.5321,2.552375 10.05136,3.508229 14.95645,5.454629 31.96724,10.615175 63.83977,21.537455 95.93808,31.743615 2.35482,-0.68352 1.42391,-4.18554 2.1785,-6.05211 0.56771,-5.260415 1.88697,-10.59587 1.61154,-15.869765 -8.72413,-5.40991 -18.0932,-9.938735 -27.07323,-14.987161 C 175.96149,33.454597 146.47278,17.360202 116.72852,1.7626953 l -0.49862,0.037175 z"
       id="path27801"
       transform="matrix(0.26458333,0,0,0.26458333,69.350834,70.731659)" />
    <path
       style="font-variation-settings:normal;opacity:0.84;vector-effect:none;fill:none;fill-opacity:1;stroke-width:0.25;stroke-linecap:butt;stroke-linejoin:miter;stroke-miterlimit:4;stroke-dasharray:none;stroke-dashoffset:0;stroke-opacity:1;-inkscape-stroke:none;stop-color:#000000;stop-opacity:1"
       d="m 234.52832,180.52051 c -25.0738,7.09587 -49.76666,15.51654 -74.62952,23.32532 -12.74904,4.07199 -25.48124,8.17231 -38.24353,12.19909 -1.72635,1.90462 -0.34741,5.09758 -0.84266,7.48131 -0.10554,13.52939 -0.0473,27.05935 -0.0626,40.589 1.60642,2.43543 4.50306,-1.72222 6.59424,-2.1799 36.42839,-21.17004 72.93596,-42.20505 109.35986,-63.3826 1.35236,-2.09932 -0.0647,-5.0518 0.14648,-7.43652 -0.59549,-3.36296 -0.0675,-7.23582 -1.50538,-10.30524 -0.15335,-0.30908 -0.52228,-0.32298 -0.81688,-0.29046 z"
       id="path27840"
       transform="matrix(0.26458333,0,0,0.26458333,69.350834,70.731659)" />
    <path
       style="font-variation-settings:normal;opacity:0.84;vector-effect:none;fill:none;fill-opacity:1;stroke-width:0.25;stroke-linecap:butt;stroke-linejoin:miter;stroke-miterlimit:4;stroke-dasharray:none;stroke-dashoffset:0;stroke-opacity:1;-inkscape-stroke:none;stop-color:#000000;stop-opacity:1"
       d="m 234.52832,180.52051 c -25.0738,7.09587 -49.76666,15.51654 -74.62952,23.32532 -12.74904,4.07199 -25.48124,8.17231 -38.24353,12.19909 -1.72635,1.90462 -0.34741,5.09758 -0.84266,7.48131 -0.10554,13.52939 -0.0473,27.05935 -0.0626,40.589 1.60642,2.43543 4.50306,-1.72222 6.59424,-2.1799 36.42839,-21.17004 72.93596,-42.20505 109.35986,-63.3826 1.35236,-2.09932 -0.0647,-5.0518 0.14648,-7.43652 -0.59549,-3.36296 -0.0675,-7.23582 -1.50538,-10.30524 -0.15335,-0.30908 -0.52228,-0.32298 -0.81688,-0.29046 z"
       id="path27916"
       transform="matrix(0.26458333,0,0,0.26458333,69.350834,70.731659)" />
    <path
       style="font-variation-settings:normal;opacity:0.84;vector-effect:none;fill:none;fill-opacity:1;stroke-width:0.25;stroke-linecap:butt;stroke-linejoin:miter;stroke-miterlimit:4;stroke-dasharray:none;stroke-dashoffset:0;stroke-opacity:1;-inkscape-stroke:none;stop-color:#000000;stop-opacity:1"
       d="M 114.50293,1.7226562 C 97.51503,11.157957 80.970965,21.484622 64.212535,31.359582 43.166629,44.047892 21.970043,56.502225 1.1396484,69.538085 c -1.08779622,2.46427 0.3581882,5.489175 0.3244352,8.12666 0.5311917,3.23969 0.668958,6.606785 1.6531039,9.74053 2.2651195,1.118985 4.979258,-0.97197 7.3906445,-1.11709 6.229911,-1.521025 12.377153,-3.4327 18.691387,-4.58213 1.077473,34.642925 1.998173,69.316925 2.793945,103.977535 -8.753924,-1.84442 -17.381977,-4.65302 -26.166992,-6.11133 -1.7884134,1.82442 -0.537202,5.03244 -0.9068285,7.36418 0.242473,6.21255 0.2160489,12.61694 1.363906,18.66184 11.1753395,6.37498 23.0057205,12.01541 34.4330755,18.10778 26.236905,13.57269 52.412205,27.26743 78.734845,40.67187 2.51613,0.19312 1.17688,-3.41379 1.63281,-4.84961 0.27229,-14.15029 0.12905,-28.30413 0.16602,-42.45606 -1.83786,-2.24007 -5.68185,-2.1063 -8.31103,-3.39877 -11.58652,-3.71971 -23.173115,-7.43914 -34.76026,-11.15689 0.0596,-15.94266 0.0051,-31.8864 0.2041,-47.82813 13.497885,0.53226 26.98056,2.18002 40.48438,2.1084 1.99281,-1.47618 0.19241,-4.87669 0.67643,-7.06148 -0.51485,-12.96568 -0.57586,-25.97408 -1.5319,-38.90922 -1.84245,-1.6394 -4.84235,-0.26931 -7.11524,-0.68164 -11.309325,0.19465 -22.610965,0.73122 -33.92187,0.83887 C 76.29645,95.99669 76.02622,81.002495 75.521485,66.004885 89.527475,60.56015 103.56631,55.19835 117.53711,49.664062 c 1.50193,-2.224974 -0.0157,-5.47479 0.3125,-8.077148 -0.704,-12.998074 -1.33149,-26.003241 -2.24414,-38.9882812 -0.25081,-0.5219149 -0.46049,-0.8856115 -1.10254,-0.8759766 z"
       id="path27955"
       transform="matrix(0.26458333,0,0,0.26458333,69.350834,70.731659)" />
    <path
       style="font-variation-settings:normal;opacity:0.84;vector-effect:none;fill:none;fill-opacity:1;stroke-width:0.25;stroke-linecap:butt;stroke-linejoin:miter;stroke-miterlimit:4;stroke-dasharray:none;stroke-dashoffset:0;stroke-opacity:1;-inkscape-stroke:none;stop-color:#000000;stop-opacity:1"
       d="m 119.0918,110.02441 c -2.16978,1.03263 -0.59465,4.20388 -1.00731,6.14728 0.41737,13.40717 0.36895,26.89688 1.30223,40.24921 2.22964,1.34001 5.27534,-0.13115 7.7812,0.0767 35.06531,-2.97428 70.10836,-6.21318 105.1768,-9.14997 2.06301,-1.93198 0.32117,-5.81326 0.8474,-8.50648 -0.20553,-6.66859 0.14914,-13.46422 -0.40337,-20.05413 -2.91304,-1.3571 -6.8799,-0.66675 -10.18675,-1.2473 -34.50246,-2.492 -68.98498,-5.40331 -103.5102,-7.51534 z"
       id="path27994"
       transform="matrix(0.26458333,0,0,0.26458333,69.350834,70.731659)" />
    <path
       style="font-variation-settings:normal;opacity:0.84;vector-effect:none;fill:none;fill-opacity:1;stroke-width:0.25;stroke-linecap:butt;stroke-linejoin:miter;stroke-miterlimit:4;stroke-dasharray:none;stroke-dashoffset:0;stroke-opacity:1;-inkscape-stroke:none;stop-color:#000000;stop-opacity:1"
       d="m 115.90332,1.8242187 c -1.37218,2.3612281 0.0493,5.5473998 -0.26855,8.1953123 0.70493,13.020847 1.19831,26.070454 2.29394,39.05957 4.5321,2.552375 10.05136,3.508229 14.95645,5.454629 31.96724,10.615175 63.83977,21.537455 95.93808,31.743615 2.35482,-0.68352 1.42391,-4.18554 2.1785,-6.05211 0.56771,-5.260415 1.88697,-10.59587 1.61154,-15.869765 -8.72413,-5.40991 -18.0932,-9.938735 -27.07323,-14.987161 C 175.96149,33.454597 146.47278,17.360202 116.72852,1.7626953 l -0.49862,0.037175 z"
       id="path28033"
       transform="matrix(0.26458333,0,0,0.26458333,69.350834,70.731659)" />
    <path
       style="font-variation-settings:normal;opacity:0.84;vector-effect:none;fill:none;fill-opacity:1;stroke-width:0.25;stroke-linecap:butt;stroke-linejoin:miter;stroke-miterlimit:4;stroke-dasharray:none;stroke-dashoffset:0;stroke-opacity:1;-inkscape-stroke:none;stop-color:#000000;stop-opacity:1"
       d="M 114.50293,1.7226562 C 97.51503,11.157957 80.970965,21.484622 64.212535,31.359582 43.166629,44.047892 21.970043,56.502225 1.1396484,69.538085 c -1.08779622,2.46427 0.3581882,5.489175 0.3244352,8.12666 0.5311917,3.23969 0.668958,6.606785 1.6531039,9.74053 2.2651195,1.118985 4.979258,-0.97197 7.3906445,-1.11709 6.229911,-1.521025 12.377153,-3.4327 18.691387,-4.58213 1.077473,34.642925 1.998173,69.316925 2.793945,103.977535 -8.753924,-1.84442 -17.381977,-4.65302 -26.166992,-6.11133 -1.7884134,1.82442 -0.537202,5.03244 -0.9068285,7.36418 0.242473,6.21255 0.2160489,12.61694 1.363906,18.66184 11.1753395,6.37498 23.0057205,12.01541 34.4330755,18.10778 26.236905,13.57269 52.412205,27.26743 78.734845,40.67187 2.51613,0.19312 1.17688,-3.41379 1.63281,-4.84961 0.27229,-14.15029 0.12905,-28.30413 0.16602,-42.45606 -1.83786,-2.24007 -5.68185,-2.1063 -8.31103,-3.39877 -11.58652,-3.71971 -23.173115,-7.43914 -34.76026,-11.15689 0.0596,-15.94266 0.0051,-31.8864 0.2041,-47.82813 13.497885,0.53226 26.98056,2.18002 40.48438,2.1084 1.99281,-1.47618 0.19241,-4.87669 0.67643,-7.06148 -0.51485,-12.96568 -0.57586,-25.97408 -1.5319,-38.90922 -1.84245,-1.6394 -4.84235,-0.26931 -7.11524,-0.68164 -11.309325,0.19465 -22.610965,0.73122 -33.92187,0.83887 C 76.29645,95.99669 76.02622,81.002495 75.521485,66.004885 89.527475,60.56015 103.56631,55.19835 117.53711,49.664062 c 1.50193,-2.224974 -0.0157,-5.47479 0.3125,-8.077148 -0.704,-12.998074 -1.33149,-26.003241 -2.24414,-38.9882812 -0.25081,-0.5219149 -0.46049,-0.8856115 -1.10254,-0.8759766 z"
       id="path28072"
       transform="matrix(0.26458333,0,0,0.26458333,69.350834,70.731659)" />
    <path
       style="font-variation-settings:normal;opacity:0.84;vector-effect:none;fill:none;fill-opacity:1;stroke-width:0.25;stroke-linecap:butt;stroke-linejoin:miter;stroke-miterlimit:4;stroke-dasharray:none;stroke-dashoffset:0;stroke-opacity:1;-inkscape-stroke:none;stop-color:#000000;stop-opacity:1"
       d="m 119.0918,110.02441 c -2.16978,1.03263 -0.59465,4.20388 -1.00731,6.14728 0.41737,13.40717 0.36895,26.89688 1.30223,40.24921 2.22964,1.34001 5.27534,-0.13115 7.7812,0.0767 35.06531,-2.97428 70.10836,-6.21318 105.1768,-9.14997 2.06301,-1.93198 0.32117,-5.81326 0.8474,-8.50648 -0.20553,-6.66859 0.14914,-13.46422 -0.40337,-20.05413 -2.91304,-1.3571 -6.8799,-0.66675 -10.18675,-1.2473 -34.50246,-2.492 -68.98498,-5.40331 -103.5102,-7.51534 z"
       id="path28111"
       transform="matrix(0.26458333,0,0,0.26458333,69.350834,70.731659)" />
    <path
       style="font-variation-settings:normal;opacity:0.84;vector-effect:none;fill:none;fill-opacity:1;stroke-width:0.25;stroke-linecap:butt;stroke-linejoin:miter;stroke-miterlimit:4;stroke-dasharray:none;stroke-dashoffset:0;stroke-opacity:1;-inkscape-stroke:none;stop-color:#000000;stop-opacity:1"
       d="m 115.02539,-0.26171875 c -1.38005,-0.1467832 -2.17225,1.45860515 -1.26758,2.44238275 1.3385,15.278127 2.24433,30.793467 2.68164,46.166992 -13.90194,5.610929 -28.022656,10.938109 -42.041989,16.391604 -1.404244,2.394555 0.07138,5.764725 -0.234622,8.561185 0.576405,12.81883 0.588295,25.672605 1.431887,38.475915 1.986532,1.67829 5.150082,0.21631 7.575065,0.63212 11.154542,-0.22465 22.302849,-0.7429 33.460089,-0.82645 0.67547,14.58409 1.12067,29.25768 1.35645,43.8916 -13.38083,-0.54968 -26.753044,-1.74144 -40.143557,-2.2959 -2.056672,1.26695 -0.531975,4.49766 -1.047569,6.54978 -0.02281,14.4484 -0.197982,28.91041 0.165733,43.35061 2.538583,2.12338 6.377899,2.31169 9.412285,3.67267 11.030506,3.62558 22.086258,7.17304 33.130688,10.75604 -0.0938,15.17372 0.53639,30.37309 -0.0752,45.53223 -2.69385,0.84415 0.46598,3.67545 2.17383,3.40625 1.78479,-0.33982 1.50159,-2.24711 0.93555,-3.40918 -0.45189,-15.12224 -0.0207,-30.35387 -0.042,-45.5166 37.31674,-11.95458 74.60828,-23.99818 111.95508,-35.8457 0.87364,2.3371 2.95637,-0.10102 2.19922,-1.6836 -1.52375,-2.44808 -5.24931,-1.41065 -7.66845,-2.03348 -9.65091,-0.74442 -19.30284,-1.23555 -28.93409,-2.12472 -0.51291,-8.20635 -0.008,-16.44751 -0.0566,-24.66602 11.15563,-1.125 22.48085,-1.7042 33.53199,-3.16589 1.1433,-3.00415 0.20782,-6.90354 0.56491,-10.24092 -0.16514,-6.60803 0.58116,-13.40507 -0.15842,-19.89397 -6.22817,-1.52892 -12.84888,-1.22788 -19.23212,-1.95576 -4.81586,-0.34613 -9.63171,-0.69225 -14.44757,-1.03838 0.0217,-4.57681 -0.35164,-9.14347 -0.60938,-13.70996 10.34477,-4.391265 20.65007,-8.87853 30.91114,-13.460935 1.55265,-2.654105 1.03678,-6.208975 1.75571,-9.203575 0.41144,-4.898 1.70568,-9.879935 1.51479,-14.72709 -0.93559,-1.090075 -4.44479,-3.02622 -4.29297,-0.248045 1.32728,1.46593 2.37215,2.59407 1.47464,4.795445 -0.84333,5.23175 -1.04448,11.37419 -2.33206,16.11276 C 192.19353,72.534995 155.71563,60.457285 119.39844,48.169922 118.43583,33.124898 117.36123,17.873109 116.81348,2.9394531 c 3.44208,-0.4610751 -0.0581,-3.60259205 -1.78809,-3.20117185 z M 85.287109,71.282225 c 37.272741,10.072045 74.572551,20.0616 111.830081,30.175785 0.25246,4.31964 0.4342,8.68057 0.64453,13.0205 -27.85737,-1.31579 -55.61833,-4.71224 -83.5127,-5.52246 -12.12967,0.27393 -24.249944,0.83478 -36.377927,1.13184 -0.542136,-13.711555 -0.896182,-27.425835 -1.239257,-41.149415 2.885091,0.78125 5.770182,1.5625 8.655273,2.34375 z m 34.467771,40.301755 c 37.24682,2.55968 74.56651,5.15969 111.73309,8.27264 0.58928,4.38149 -0.004,9.76327 0.13047,14.52905 -0.0366,3.81383 -0.0731,7.62765 -0.10965,11.44148 -36.9337,3.13429 -73.84518,6.75281 -110.79395,9.55468 -0.41706,-14.60498 -1.02786,-29.19899 -1.20507,-43.80957 z M 197.25,151.5 c -0.1705,8.24228 0.34748,16.6541 -0.3125,24.77246 -39.12605,8.12687 -78.28721,16.10346 -117.449219,24.03711 -0.391709,-14.91451 -0.182432,-29.83692 -0.238281,-44.75488 13.459041,1.06817 26.95118,2.15494 40.44531,2.46191 25.87026,-1.84681 51.74041,-4.46729 77.55469,-6.5166 z"
       id="path28150"
       transform="matrix(0.26458333,0,0,0.26458333,69.350834,70.731659)" />
    <path
       style="font-variation-settings:normal;opacity:0.84;vector-effect:none;fill:none;fill-opacity:1;stroke-width:0.25;stroke-linecap:butt;stroke-linejoin:miter;stroke-miterlimit:4;stroke-dasharray:none;stroke-dashoffset:0;stroke-opacity:1;-inkscape-stroke:none;stop-color:#000000;stop-opacity:1"
       d="m 234.52832,180.52051 c -25.0738,7.09587 -49.76666,15.51654 -74.62952,23.32532 -12.74904,4.07199 -25.48124,8.17231 -38.24353,12.19909 -1.72635,1.90462 -0.34741,5.09758 -0.84266,7.48131 -0.10554,13.52939 -0.0473,27.05935 -0.0626,40.589 1.60642,2.43543 4.50306,-1.72222 6.59424,-2.1799 36.42839,-21.17004 72.93596,-42.20505 109.35986,-63.3826 1.35236,-2.09932 -0.0647,-5.0518 0.14648,-7.43652 -0.59549,-3.36296 -0.0675,-7.23582 -1.50538,-10.30524 -0.15335,-0.30908 -0.52228,-0.32298 -0.81688,-0.29046 z"
       id="path28189"
       transform="matrix(0.26458333,0,0,0.26458333,69.350834,70.731659)" />
    <path
       style="font-variation-settings:normal;opacity:0.84;vector-effect:none;fill:none;fill-opacity:1;stroke-width:0.25;stroke-linecap:butt;stroke-linejoin:miter;stroke-miterlimit:4;stroke-dasharray:none;stroke-dashoffset:0;stroke-opacity:1;-inkscape-stroke:none;stop-color:#000000;stop-opacity:1"
       d="m 234.52832,180.52051 c -25.0738,7.09587 -49.76666,15.51654 -74.62952,23.32532 -12.74904,4.07199 -25.48124,8.17231 -38.24353,12.19909 -1.72635,1.90462 -0.34741,5.09758 -0.84266,7.48131 -0.10554,13.52939 -0.0473,27.05935 -0.0626,40.589 1.60642,2.43543 4.50306,-1.72222 6.59424,-2.1799 36.42839,-21.17004 72.93596,-42.20505 109.35986,-63.3826 1.35236,-2.09932 -0.0647,-5.0518 0.14648,-7.43652 -0.59549,-3.36296 -0.0675,-7.23582 -1.50538,-10.30524 -0.15335,-0.30908 -0.52228,-0.32298 -0.81688,-0.29046 z"
       id="path54096"
       transform="matrix(0.26458333,0,0,0.26458333,69.350834,70.731659)" />
    <path
       style="font-variation-settings:normal;opacity:0.84;vector-effect:none;fill:none;fill-opacity:1;stroke-width:0.25;stroke-linecap:butt;stroke-linejoin:miter;stroke-miterlimit:4;stroke-dasharray:none;stroke-dashoffset:0;stroke-opacity:1;-inkscape-stroke:none;stop-color:#000000;stop-opacity:1"
       d="M 114.50293,1.7226562 C 97.51503,11.157957 80.970965,21.484622 64.212535,31.359582 43.166629,44.047892 21.970043,56.502225 1.1396484,69.538085 c -1.08779622,2.46427 0.3581882,5.489175 0.3244352,8.12666 0.5311917,3.23969 0.668958,6.606785 1.6531039,9.74053 2.2651195,1.118985 4.979258,-0.97197 7.3906445,-1.11709 6.229911,-1.521025 12.377153,-3.4327 18.691387,-4.58213 1.077473,34.642925 1.998173,69.316925 2.793945,103.977535 -8.753924,-1.84442 -17.381977,-4.65302 -26.166992,-6.11133 -1.7884134,1.82442 -0.537202,5.03244 -0.9068285,7.36418 0.242473,6.21255 0.2160489,12.61694 1.363906,18.66184 11.1753395,6.37498 23.0057205,12.01541 34.4330755,18.10778 26.236905,13.57269 52.412205,27.26743 78.734845,40.67187 2.51613,0.19312 1.17688,-3.41379 1.63281,-4.84961 0.27229,-14.15029 0.12905,-28.30413 0.16602,-42.45606 -1.83786,-2.24007 -5.68185,-2.1063 -8.31103,-3.39877 -11.58652,-3.71971 -23.173115,-7.43914 -34.76026,-11.15689 0.0596,-15.94266 0.0051,-31.8864 0.2041,-47.82813 13.497885,0.53226 26.98056,2.18002 40.48438,2.1084 1.99281,-1.47618 0.19241,-4.87669 0.67643,-7.06148 -0.51485,-12.96568 -0.57586,-25.97408 -1.5319,-38.90922 -1.84245,-1.6394 -4.84235,-0.26931 -7.11524,-0.68164 -11.309325,0.19465 -22.610965,0.73122 -33.92187,0.83887 C 76.29645,95.99669 76.02622,81.002495 75.521485,66.004885 89.527475,60.56015 103.56631,55.19835 117.53711,49.664062 c 1.50193,-2.224974 -0.0157,-5.47479 0.3125,-8.077148 -0.704,-12.998074 -1.33149,-26.003241 -2.24414,-38.9882812 -0.25081,-0.5219149 -0.46049,-0.8856115 -1.10254,-0.8759766 z"
       id="path54135"
       transform="matrix(0.26458333,0,0,0.26458333,69.350834,70.731659)" />
    <path
       style="font-variation-settings:normal;opacity:0.84;vector-effect:none;fill:none;fill-opacity:1;stroke-width:0.25;stroke-linecap:butt;stroke-linejoin:miter;stroke-miterlimit:4;stroke-dasharray:none;stroke-dashoffset:0;stroke-opacity:1;-inkscape-stroke:none;stop-color:#000000;stop-opacity:1"
       d="m 119.0918,110.02441 c -2.16978,1.03263 -0.59465,4.20388 -1.00731,6.14728 0.41737,13.40717 0.36895,26.89688 1.30223,40.24921 2.22964,1.34001 5.27534,-0.13115 7.7812,0.0767 35.06531,-2.97428 70.10836,-6.21318 105.1768,-9.14997 2.06301,-1.93198 0.32117,-5.81326 0.8474,-8.50648 -0.20553,-6.66859 0.14914,-13.46422 -0.40337,-20.05413 -2.91304,-1.3571 -6.8799,-0.66675 -10.18675,-1.2473 -34.50246,-2.492 -68.98498,-5.40331 -103.5102,-7.51534 z"
       id="path54174"
       transform="matrix(0.26458333,0,0,0.26458333,69.350834,70.731659)" />
    <path
       style="font-variation-settings:normal;opacity:0.84;vector-effect:none;fill:none;fill-opacity:1;stroke-width:0.25;stroke-linecap:butt;stroke-linejoin:miter;stroke-miterlimit:4;stroke-dasharray:none;stroke-dashoffset:0;stroke-opacity:1;-inkscape-stroke:none;stop-color:#000000;stop-opacity:1"
       d="m 115.90332,1.8242187 c -1.37218,2.3612281 0.0493,5.5473998 -0.26855,8.1953123 0.70493,13.020847 1.19831,26.070454 2.29394,39.05957 4.5321,2.552375 10.05136,3.508229 14.95645,5.454629 31.96724,10.615175 63.83977,21.537455 95.93808,31.743615 2.35482,-0.68352 1.42391,-4.18554 2.1785,-6.05211 0.56771,-5.260415 1.88697,-10.59587 1.61154,-15.869765 -8.72413,-5.40991 -18.0932,-9.938735 -27.07323,-14.987161 C 175.96149,33.454597 146.47278,17.360202 116.72852,1.7626953 l -0.49862,0.037175 z"
       id="path54213"
       transform="matrix(0.26458333,0,0,0.26458333,69.350834,70.731659)" />
    <path
       style="font-variation-settings:normal;opacity:0.84;vector-effect:none;fill:#666666;fill-opacity:1;stroke-width:0.25;stroke-linecap:butt;stroke-linejoin:miter;stroke-miterlimit:4;stroke-dasharray:none;stroke-dashoffset:0;stroke-opacity:1;-inkscape-stroke:none;stop-color:#000000;stop-opacity:1"
       d="m 75.704101,67.96582 c -0.977428,3.63707 -0.0522,7.718837 -0.273291,11.507599 0.323863,10.423673 0.29339,20.892691 1.118994,31.281461 1.984719,1.61798 5.080269,0.20448 7.47168,0.62403 13.316399,-0.0716 26.647136,-1.11341 39.948076,-0.75574 24.56822,1.76429 49.10683,4.10643 73.70485,5.36454 3.35744,-0.30569 0.82895,-5.23352 1.36731,-7.53144 -0.55223,-2.67048 0.43874,-6.0175 -1.15989,-8.29611 -39.8443,-11.098324 -79.8433,-21.671148 -119.865229,-32.120121 -0.786617,-0.14767 -1.54874,-0.571854 -2.3125,-0.07422 z"
       id="path54252"
       transform="matrix(0.26458333,0,0,0.26458333,69.350834,70.731659)" />
    <path
       style="font-variation-settings:normal;opacity:0.84;vector-effect:none;fill:none;fill-opacity:1;stroke-width:0.25;stroke-linecap:butt;stroke-linejoin:miter;stroke-miterlimit:4;stroke-dasharray:none;stroke-dashoffset:0;stroke-opacity:1;-inkscape-stroke:none;stop-color:#000000;stop-opacity:1"
       d="m 196.49511,150.00195 c -26.3416,2.02968 -52.65141,4.94127 -78.99475,6.5513 -13.02216,-0.5937 -26.166204,-1.78806 -39.129334,-2.46556 -1.410123,2.37304 -0.235974,5.98375 -0.621026,8.83223 0.139641,12.86591 -0.277895,25.85253 0.206946,38.64364 1.987262,1.14884 4.840301,-0.72352 7.163171,-0.7745 37.606243,-7.70016 75.219163,-15.36763 112.830073,-23.04492 1.83852,-2.10547 0.29119,-5.77337 0.79981,-8.47949 -0.22576,-6.31536 0.45475,-12.82708 -0.34278,-19.01856 -0.59117,-0.36149 -1.25961,-0.22591 -1.91211,-0.24414 z"
       id="path55623"
       transform="matrix(0.26458333,0,0,0.26458333,69.350834,70.731659)" />
    <path
       style="font-variation-settings:normal;opacity:0.84;vector-effect:none;fill:#b3b3b3;fill-opacity:1;stroke-width:0.25;stroke-linecap:butt;stroke-linejoin:miter;stroke-miterlimit:4;stroke-dasharray:none;stroke-dashoffset:0;stroke-opacity:1;-inkscape-stroke:none;stop-color:#000000;stop-opacity:1"
       d="m 196.49511,150.00195 c -26.3416,2.02968 -52.65141,4.94127 -78.99475,6.5513 -13.02216,-0.5937 -26.166204,-1.78806 -39.129334,-2.46556 -1.410123,2.37304 -0.235974,5.98375 -0.621026,8.83223 0.139641,12.86591 -0.277895,25.85253 0.206946,38.64364 1.987262,1.14884 4.840301,-0.72352 7.163171,-0.7745 37.606243,-7.70016 75.219163,-15.36763 112.830073,-23.04492 1.83852,-2.10547 0.29119,-5.77337 0.79981,-8.47949 -0.22576,-6.31536 0.45475,-12.82708 -0.34278,-19.01856 -0.59117,-0.36149 -1.25961,-0.22591 -1.91211,-0.24414 z"
       id="path55662"
       transform="matrix(0.26458333,0,0,0.26458333,69.350834,70.731659)" />
    <path
       style="font-variation-settings:normal;opacity:0.84;vector-effect:none;fill:#000080;fill-opacity:1;stroke-width:0.25;stroke-linecap:butt;stroke-linejoin:miter;stroke-miterlimit:4;stroke-dasharray:none;stroke-dashoffset:0;stroke-opacity:1;-inkscape-stroke:none;stop-color:#000000;stop-opacity:1"
       d="M 114.50293,1.7226562 C 97.51503,11.157957 80.970965,21.484622 64.212535,31.359582 43.166629,44.047892 21.970043,56.502225 1.1396484,69.538085 c -1.08779622,2.46427 0.3581882,5.489175 0.3244352,8.12666 0.5311917,3.23969 0.668958,6.606785 1.6531039,9.74053 2.2651195,1.118985 4.979258,-0.97197 7.3906445,-1.11709 6.229911,-1.521025 12.377153,-3.4327 18.691387,-4.58213 1.077473,34.642925 1.998173,69.316925 2.793945,103.977535 -8.753924,-1.84442 -17.381977,-4.65302 -26.166992,-6.11133 -1.7884134,1.82442 -0.537202,5.03244 -0.9068285,7.36418 0.242473,6.21255 0.2160489,12.61694 1.363906,18.66184 11.1753395,6.37498 23.0057205,12.01541 34.4330755,18.10778 26.236905,13.57269 52.412205,27.26743 78.734845,40.67187 2.51613,0.19312 1.17688,-3.41379 1.63281,-4.84961 0.27229,-14.15029 0.12905,-28.30413 0.16602,-42.45606 -1.83786,-2.24007 -5.68185,-2.1063 -8.31103,-3.39877 -11.58652,-3.71971 -23.173115,-7.43914 -34.76026,-11.15689 0.0596,-15.94266 0.0051,-31.8864 0.2041,-47.82813 13.497885,0.53226 26.98056,2.18002 40.48438,2.1084 1.99281,-1.47618 0.19241,-4.87669 0.67643,-7.06148 -0.51485,-12.96568 -0.57586,-25.97408 -1.5319,-38.90922 -1.84245,-1.6394 -4.84235,-0.26931 -7.11524,-0.68164 -11.309325,0.19465 -22.610965,0.73122 -33.92187,0.83887 C 76.29645,95.99669 76.02622,81.002495 75.521485,66.004885 89.527475,60.56015 103.56631,55.19835 117.53711,49.664062 c 1.50193,-2.224974 -0.0157,-5.47479 0.3125,-8.077148 -0.704,-12.998074 -1.33149,-26.003241 -2.24414,-38.9882812 -0.25081,-0.5219149 -0.46049,-0.8856115 -1.10254,-0.8759766 z"
       id="path59956"
       transform="matrix(0.26458333,0,0,0.26458333,69.350834,70.731659)" />
    <path
       style="font-variation-settings:normal;opacity:0.84;vector-effect:none;fill:#00ffff;fill-opacity:1;stroke-width:0.25;stroke-linecap:butt;stroke-linejoin:miter;stroke-miterlimit:4;stroke-dasharray:none;stroke-dashoffset:0;stroke-opacity:1;-inkscape-stroke:none;stop-color:#000000;stop-opacity:1"
       d="m 115.90332,1.8242187 c -1.37218,2.3612281 0.0493,5.5473998 -0.26855,8.1953123 0.70493,13.020847 1.19831,26.070454 2.29394,39.05957 4.5321,2.552375 10.05136,3.508229 14.95645,5.454629 31.96724,10.615175 63.83977,21.537455 95.93808,31.743615 2.35482,-0.68352 1.42391,-4.18554 2.1785,-6.05211 0.56771,-5.260415 1.88697,-10.59587 1.61154,-15.869765 -8.72413,-5.40991 -18.0932,-9.938735 -27.07323,-14.987161 C 175.96149,33.454597 146.47278,17.360202 116.72852,1.7626953 l -0.49862,0.037175 z"
       id="path60032"
       transform="matrix(0.26458333,0,0,0.26458333,69.350834,70.731659)" />
    <path
       style="font-variation-settings:normal;opacity:0.84;vector-effect:none;fill:#00ffff;fill-opacity:1;stroke-width:0.25;stroke-linecap:butt;stroke-linejoin:miter;stroke-miterlimit:4;stroke-dasharray:none;stroke-dashoffset:0;stroke-opacity:1;-inkscape-stroke:none;stop-color:#000000;stop-opacity:1"
       d="m 119.0918,110.02441 c -2.16978,1.03263 -0.59465,4.20388 -1.00731,6.14728 0.41737,13.40717 0.36895,26.89688 1.30223,40.24921 2.22964,1.34001 5.27534,-0.13115 7.7812,0.0767 35.06531,-2.97428 70.10836,-6.21318 105.1768,-9.14997 2.06301,-1.93198 0.32117,-5.81326 0.8474,-8.50648 -0.20553,-6.66859 0.14914,-13.46422 -0.40337,-20.05413 -2.91304,-1.3571 -6.8799,-0.66675 -10.18675,-1.2473 -34.50246,-2.492 -68.98498,-5.40331 -103.5102,-7.51534 z"
       id="path60108"
       transform="matrix(0.26458333,0,0,0.26458333,69.350834,70.731659)" />
    <path
       style="font-variation-settings:normal;opacity:0.84;vector-effect:none;fill:#00ffff;fill-opacity:1;stroke-width:0.25;stroke-linecap:butt;stroke-linejoin:miter;stroke-miterlimit:4;stroke-dasharray:none;stroke-dashoffset:0;stroke-opacity:1;-inkscape-stroke:none;stop-color:#000000;stop-opacity:1"
       d="m 234.52832,180.52051 c -25.0738,7.09587 -49.76666,15.51654 -74.62952,23.32532 -12.74904,4.07199 -25.48124,8.17231 -38.24353,12.19909 -1.72635,1.90462 -0.34741,5.09758 -0.84266,7.48131 -0.10554,13.52939 -0.0473,27.05935 -0.0626,40.589 1.60642,2.43543 4.50306,-1.72222 6.59424,-2.1799 36.42839,-21.17004 72.93596,-42.20505 109.35986,-63.3826 1.35236,-2.09932 -0.0647,-5.0518 0.14648,-7.43652 -0.59549,-3.36296 -0.0675,-7.23582 -1.50538,-10.30524 -0.15335,-0.30908 -0.52228,-0.32298 -0.81688,-0.29046 z"
       id="path60184"
       transform="matrix(0.26458333,0,0,0.26458333,69.350834,70.731659)" />
    <path
       style="font-variation-settings:normal;opacity:0.84;vector-effect:none;fill:none;fill-opacity:1;stroke-width:0.25;stroke-linecap:butt;stroke-linejoin:miter;stroke-miterlimit:4;stroke-dasharray:none;stroke-dashoffset:0;stroke-opacity:1;-inkscape-stroke:none;stop-color:#000000;stop-opacity:1"
       d="M 114.72754,1.0253906 C 106.54179,4.6494949 99.083255,9.8515385 91.264445,14.224797 62.00042,31.796056 32.501882,48.994128 3.5898437,67.140625 1.8691037,68.31242 -0.78424175,69.58605 0.06542969,72.146485 0.71224985,77.289785 0.8445787,82.65017 2.4072265,87.59375 4.778192,89.533955 8.162411,87.39296 10.817535,87.15489 16.613254,85.737095 22.361492,84.12335 28.189453,82.838865 29.56256,116.69485 30.093966,150.59324 31.125,184.46289 22.547676,182.8196 14.116312,180.03466 5.5362665,178.73848 c -2.2949203,2.45769 -0.9962594,6.60564 -1.3092468,9.78382 0.3178941,5.8289 -0.071647,11.91607 1.4353738,17.53626 14.3752095,8.30032 29.4970435,15.58849 44.2108565,23.40111 22.502495,11.49083 44.73901,23.51747 67.42362,34.64287 1.68978,1.14471 5.33902,1.54448 4.45473,-1.60838 -0.0839,-15.41667 -0.16773,-30.83335 -0.2516,-46.25002 -1.7264,-2.14399 -5.33374,-2.06052 -7.824,-3.27317 -11.39065,-3.66723 -22.78552,-7.32196 -34.179905,-10.97781 -0.0056,-15.45542 -0.32328,-31.22417 -0.13379,-46.48437 13.334765,0.69538 26.648495,2.11022 40.014645,1.99121 2.08582,-1.22186 0.0768,-4.38014 0.51566,-6.46727 -0.67959,-13.59709 -0.60973,-27.23869 -1.49906,-40.82034 -1.62108,-1.89695 -4.83462,-0.40088 -6.98612,-0.87203 -11.19652,0.20837 -22.391425,0.49574 -33.58712,0.74362 -0.53007,-14.48692 -1.276485,-28.953635 -1.24609,-43.45312 13.698075,-5.62807 27.6842,-10.602225 41.30957,-16.371095 1.62676,-2.876726 0.0582,-6.529566 0.22559,-9.683275 -0.90445,-12.895776 -1.25361,-25.817778 -2.20411,-38.7122322 -0.2232,-0.4972703 -0.57654,-0.929259 -1.17773,-0.8388672 z"
       id="path60607"
       transform="matrix(0.26458333,0,0,0.26458333,69.350834,70.731659)"
       sodipodi:nodetypes="cccccccccccccccccccccccccccc" />
    <path
       style="font-variation-settings:normal;opacity:1;vector-effect:none;fill:none;fill-opacity:1;stroke-width:0.353553;stroke-linecap:butt;stroke-linejoin:miter;stroke-miterlimit:4;stroke-dasharray:none;stroke-dashoffset:0;stroke-opacity:1;-inkscape-stroke:none;stop-color:#000000;stop-opacity:1"
       d="M 114.05273,1.1407621 C 76.314131,23.846959 38.555035,46.668869 0.79963835,69.402807 c -1.22668939,3.257209 0.88119385,7.160629 0.98185655,10.621719 0.9800056,2.353166 -0.05025,6.53472 2.5094832,7.706431 8.2363999,-1.301147 16.8783729,-4.776054 24.6313469,-5.56708 1.304845,34.309693 2.363891,68.859953 2.763517,103.116053 -8.855007,-1.56751 -17.480989,-4.71045 -26.3756358,-5.78253 -1.8824338,2.55009 -0.040783,6.51631 -0.4591989,9.53387 0.4462158,5.48927 0.3581612,11.10536 1.4259464,16.50202 32.8553743,17.77561 66.3319243,34.5896 99.4546463,51.94031 4.76173,2.16853 9.25059,5.38678 14.17548,6.92771 1.46659,-4.57532 0.23392,-10.11852 0.70859,-15.04765 -0.10461,-10.90663 0.58959,-21.91514 -0.3868,-32.7663 -9.65559,-4.32528 -20.256431,-6.85075 -30.289519,-10.42599 -3.870477,-1.29552 -7.763255,-2.54909 -11.581702,-3.98407 -0.344559,-15.83053 0.04378,-31.66685 0.09805,-47.49907 6.898605,-0.18827 13.491569,1.96448 20.370757,1.22777 5.005934,0.89428 10.295724,1.33149 15.526984,1.1772 5.81557,1.99234 5.76349,-3.13287 5.13351,-7.32955 -0.54905,-12.79787 -0.0681,-25.77012 -1.4747,-38.4672 -3.25073,-2.31344 -7.94884,-0.67918 -11.71258,-1.12818 -9.551967,0.0537 -19.596546,0.69656 -28.853528,0.73734 C 75.914315,96.085629 76.17342,81.010798 75.462926,66.074433 89.319836,60.690794 103.17703,55.307895 117.03446,49.925606 118.47622,44.038773 117.32483,37.349407 117.39611,31.145194 116.77207,21.3284 116.78664,11.369407 115.16864,1.6710922 114.9708,1.2754533 114.47965,1.0667869 114.05273,1.1407621 Z M 101.0486,155.50825 c -0.11066,-0.11298 0.0461,-0.5811 0,0 z"
       id="path70916"
       transform="matrix(0.26458333,0,0,0.26458333,69.350834,70.731659)" />
    <path
       style="font-variation-settings:normal;opacity:1;vector-effect:none;fill:#0000ff;fill-opacity:1;stroke-width:0.353553;stroke-linecap:butt;stroke-linejoin:miter;stroke-miterlimit:4;stroke-dasharray:none;stroke-dashoffset:0;stroke-opacity:1;-inkscape-stroke:none;stop-color:#000000;stop-opacity:1"
       d="M 114.05273,1.1407621 C 76.314131,23.846959 38.555035,46.668869 0.79963835,69.402807 c -1.22668939,3.257209 0.88119385,7.160629 0.98185655,10.621719 0.9800056,2.353166 -0.05025,6.53472 2.5094832,7.706431 8.2363999,-1.301147 16.8783729,-4.776054 24.6313469,-5.56708 1.304845,34.309693 2.363891,68.859953 2.763517,103.116053 -8.855007,-1.56751 -17.480989,-4.71045 -26.3756358,-5.78253 -1.8824338,2.55009 -0.040783,6.51631 -0.4591989,9.53387 0.4462158,5.48927 0.3581612,11.10536 1.4259464,16.50202 32.8553743,17.77561 66.3319243,34.5896 99.4546463,51.94031 4.76173,2.16853 9.25059,5.38678 14.17548,6.92771 1.46659,-4.57532 0.23392,-10.11852 0.70859,-15.04765 -0.10461,-10.90663 0.58959,-21.91514 -0.3868,-32.7663 -9.65559,-4.32528 -20.256431,-6.85075 -30.289519,-10.42599 -3.870477,-1.29552 -7.763255,-2.54909 -11.581702,-3.98407 -0.344559,-15.83053 0.04378,-31.66685 0.09805,-47.49907 6.898605,-0.18827 13.491569,1.96448 20.370757,1.22777 5.005934,0.89428 10.295724,1.33149 15.526984,1.1772 5.81557,1.99234 5.76349,-3.13287 5.13351,-7.32955 -0.54905,-12.79787 -0.0681,-25.77012 -1.4747,-38.4672 -3.25073,-2.31344 -7.94884,-0.67918 -11.71258,-1.12818 -9.551967,0.0537 -19.596546,0.69656 -28.853528,0.73734 C 75.914315,96.085629 76.17342,81.010798 75.462926,66.074433 89.319836,60.690794 103.17703,55.307895 117.03446,49.925606 118.47622,44.038773 117.32483,37.349407 117.39611,31.145194 116.77207,21.3284 116.78664,11.369407 115.16864,1.6710922 114.9708,1.2754533 114.47965,1.0667869 114.05273,1.1407621 Z M 101.0486,155.50825 c -0.11066,-0.11298 0.0461,-0.5811 0,0 z"
       id="path70955"
       transform="matrix(0.26458333,0,0,0.26458333,69.350834,70.731659)" />
    <path
       style="font-variation-settings:normal;opacity:1;vector-effect:none;fill:none;fill-opacity:1;stroke-width:0.353553;stroke-linecap:butt;stroke-linejoin:miter;stroke-miterlimit:4;stroke-dasharray:none;stroke-dashoffset:0;stroke-opacity:1;-inkscape-stroke:none;stop-color:#000000;stop-opacity:1"
       d="m 118.02054,110.37771 c -0.0961,15.25983 0.90784,30.67485 0.83417,46.00475 2.12109,2.27108 6.39915,-0.3257 9.36819,0.13041 34.72608,-3.21063 69.50682,-5.85721 104.20807,-9.31589 2.05621,-3.23482 0.17683,-8.37151 0.72315,-12.31936 -0.33221,-5.46435 0.35804,-11.17698 -0.6099,-16.48695 -36.89583,-3.10363 -73.92678,-5.90128 -110.90937,-8.3411 -1.1907,0.15984 -2.55651,-0.43423 -3.61431,0.32814 z"
       id="path71260"
       transform="matrix(0.26458333,0,0,0.26458333,69.350834,70.731659)" />
    <path
       style="font-variation-settings:normal;opacity:1;vector-effect:none;fill:#000000;fill-opacity:1;stroke-width:0.353553;stroke-linecap:butt;stroke-linejoin:miter;stroke-miterlimit:4;stroke-dasharray:none;stroke-dashoffset:0;stroke-opacity:1;-inkscape-stroke:none;stop-color:#000000;stop-opacity:1"
       d="m 75.241962,67.274581 c -0.794629,7.389409 0.342095,15.233786 0.338276,22.794237 0.495721,7.042778 0.167353,14.355382 1.450207,21.214872 22.024665,-0.10719 44.213035,-1.23733 66.203785,0.80373 18.42045,1.25819 36.79207,3.17519 55.22523,4.24684 2.38629,-2.12693 0.23284,-6.76524 0.63341,-9.89899 -0.25477,-2.6885 0.0753,-6.901933 -3.74219,-6.950042 C 155.70967,88.29779 115.81642,78.014102 76.094081,67.115758 l -0.695136,0.129563 z"
       id="path71299"
       transform="matrix(0.26458333,0,0,0.26458333,69.350834,70.731659)" />
    <path
       style="font-variation-settings:normal;opacity:1;vector-effect:none;fill:#333333;fill-opacity:1;stroke-width:0.353553;stroke-linecap:butt;stroke-linejoin:miter;stroke-miterlimit:4;stroke-dasharray:none;stroke-dashoffset:0;stroke-opacity:1;-inkscape-stroke:none;stop-color:#000000;stop-opacity:1"
       d="m 194.87973,149.91492 c -27.23904,2.32804 -54.49389,5.51333 -81.76889,6.5366 -11.64622,-0.56811 -23.444165,-1.64215 -34.942395,-2.4583 -0.696437,13.70202 -0.264497,27.6998 -0.143631,41.5149 0.308408,2.15454 -0.713559,7.48322 3.152978,6.04631 39.062328,-7.77335 78.052358,-15.92372 117.089698,-23.7958 2.09483,-2.16431 0.43881,-6.19882 1.05514,-9.01975 -0.1858,-6.32274 0.50225,-12.86102 -0.35494,-19.03802 -1.30213,-0.51395 -2.74243,0.21613 -4.08796,0.21406 z"
       id="path71375"
       transform="matrix(0.26458333,0,0,0.26458333,69.350834,70.731659)" />
    <path
       style="font-variation-settings:normal;opacity:1;vector-effect:none;fill:#333333;fill-opacity:1;stroke-width:0.353553;stroke-linecap:butt;stroke-linejoin:miter;stroke-miterlimit:4;stroke-dasharray:none;stroke-dashoffset:0;stroke-opacity:1;-inkscape-stroke:none;stop-color:#000000;stop-opacity:1"
       d="m 75.739146,66.371362 c -2.758895,1.098543 -0.677028,5.423479 -1.307871,7.709122 0.496855,12.087567 0.313772,24.327846 1.856155,36.304136 3.128559,2.57752 7.99855,0.90711 11.75426,1.50357 24.99564,-0.16752 49.9623,-0.28721 74.82665,2.41792 12.1122,0.8928 24.19975,2.25433 36.34242,2.65929 2.33362,-2.09748 0.18264,-6.57658 0.59939,-9.63294 -0.27066,-3.22936 0.009,-8.155646 -4.39318,-8.443854 C 157.0235,87.831972 118.31768,77.895407 79.840918,67.140617 78.486659,66.844291 77.134124,66.409948 75.739146,66.371362 Z"
       id="path71525"
       transform="matrix(0.26458333,0,0,0.26458333,69.350834,70.731659)" />
    <path
       style="font-variation-settings:normal;opacity:1;vector-effect:none;fill:none;fill-opacity:1;stroke-width:0.353553;stroke-linecap:butt;stroke-linejoin:miter;stroke-miterlimit:4;stroke-dasharray:none;stroke-dashoffset:0;stroke-opacity:1;-inkscape-stroke:none;stop-color:#000000;stop-opacity:1"
       d="m 118.3879,111.55576 c -0.66837,14.66839 0.39035,29.51376 0.69744,44.24251 2.77151,2.1264 7.62387,0.046 11.23738,0.36704 34.05099,-2.79449 68.10232,-5.68221 102.10825,-8.96833 2.05623,-3.23482 0.17697,-8.37151 0.72335,-12.31937 -0.33207,-5.47544 0.35738,-11.19893 -0.6101,-16.52009 -24.0282,-2.40545 -48.29668,-2.49488 -72.338,-5.01046 -13.88877,-0.90692 -28.00916,-2.29329 -41.81832,-1.7913 z"
       id="path71686"
       transform="matrix(0.26458333,0,0,0.26458333,69.350834,70.731659)" />
    <path
       style="font-variation-settings:normal;opacity:1;vector-effect:none;fill:none;fill-opacity:1;stroke-width:0.353553;stroke-linecap:butt;stroke-linejoin:miter;stroke-miterlimit:4;stroke-dasharray:none;stroke-dashoffset:0;stroke-opacity:1;-inkscape-stroke:none;stop-color:#000000;stop-opacity:1"
       d="m 76.304003,65.61868 c -3.540849,0.901704 -1.720463,5.9363 -2.219678,8.530826 0.434233,12.32113 -0.315987,24.8806 1.965561,37.022314 3.103114,1.95444 7.628919,0.52555 11.221177,1.17944 30.312127,0.66472 60.643987,0.44388 90.783527,3.86068 7.33245,0.40048 14.92172,1.96549 22.14364,0.71618 -0.0892,-5.65066 0.98755,-12.05981 -1.41284,-17.404222 -6.07279,-3.630747 -13.56502,-4.362871 -20.22764,-6.66803 C 144.56611,83.703008 110.73966,73.816806 76.511163,65.607632 Z"
       id="path71725"
       transform="matrix(0.26458333,0,0,0.26458333,69.350834,70.731659)" />
    <path
       style="font-variation-settings:normal;opacity:1;vector-effect:none;fill:none;fill-opacity:1;stroke-width:0.353553;stroke-linecap:butt;stroke-linejoin:miter;stroke-miterlimit:4;stroke-dasharray:none;stroke-dashoffset:0;stroke-opacity:1;-inkscape-stroke:none;stop-color:#000000;stop-opacity:1"
       d="m 117.58827,49.266836 c -14.20062,5.021314 -28.140221,10.75501 -42.205439,16.141922 -1.377218,3.412518 6.265767,2.637083 8.467327,4.136298 37.692922,10.495908 75.723802,20.233388 113.163322,31.368194 3.16304,0.42622 5.90973,-2.795292 9.00043,-3.467859 7.50436,-3.574225 15.57414,-6.26709 22.74756,-10.37182 -0.51365,-2.854554 -5.14112,-2.402196 -7.39375,-3.774848 C 186.86583,71.882953 152.43669,60.049207 117.77747,49.225404 Z"
       id="path71764"
       transform="matrix(0.26458333,0,0,0.26458333,69.350834,70.731659)" />
    <path
       style="font-variation-settings:normal;opacity:1;vector-effect:none;fill:none;fill-opacity:1;stroke-width:0.353553;stroke-linecap:butt;stroke-linejoin:miter;stroke-miterlimit:4;stroke-dasharray:none;stroke-dashoffset:0;stroke-opacity:1;-inkscape-stroke:none;stop-color:#000000;stop-opacity:1"
       d="m 76.304003,65.61868 c -3.540849,0.901704 -1.720463,5.9363 -2.219678,8.530826 0.434233,12.32113 -0.315987,24.8806 1.965561,37.022314 3.103114,1.95444 7.628919,0.52555 11.221177,1.17944 30.312127,0.66472 60.643987,0.44388 90.783527,3.86068 7.33245,0.40048 14.92172,1.96549 22.14364,0.71618 -0.0892,-5.65066 0.98755,-12.05981 -1.41284,-17.404222 -6.07279,-3.630747 -13.56502,-4.362871 -20.22764,-6.66803 C 144.56611,83.703008 110.73966,73.816806 76.511163,65.607632 Z"
       id="path71803"
       transform="matrix(0.26458333,0,0,0.26458333,69.350834,70.731659)" />
    <path
       style="font-variation-settings:normal;opacity:1;vector-effect:none;fill:#1a1a1a;fill-opacity:1;stroke-width:0.353553;stroke-linecap:butt;stroke-linejoin:miter;stroke-miterlimit:4;stroke-dasharray:none;stroke-dashoffset:0;stroke-opacity:1;-inkscape-stroke:none;stop-color:#000000;stop-opacity:1"
       d="m 196.39339,149.10424 c -27.14349,2.20584 -54.36073,5.44717 -81.49094,6.38745 -12.48484,-0.22895 -25.114226,-1.48144 -37.468733,-2.10338 -0.596463,15.158 -0.318458,30.57836 0.05662,45.82936 -0.134027,3.15482 3.495434,4.45309 5.720384,2.68479 3.05546,-0.1644 5.946096,-1.38844 8.837453,-1.40869 1.320161,-1.1745 3.309152,0.0503 4.535428,-1.27748 2.042754,0.7549 3.619008,-1.36006 5.669288,-0.66706 1.43897,-1.43085 3.62376,-0.08 5.09752,-1.56889 6.59036,-1.01091 13.30668,-2.06657 19.70232,-3.91533 1.4288,-0.2545 3.0398,0.19366 4.35036,-0.9115 1.83213,0.92524 3.19534,-1.37568 5.03261,-0.49305 3.7002,-1.67749 8.03676,-1.48703 11.95654,-2.76764 6.67328,-1.54211 13.55109,-2.34862 20.13395,-4.07279 1.30643,-0.96081 3.12305,0.42407 4.41252,-1.06204 8.47827,-1.65172 17.06828,-3.0791 25.44203,-5.2011 2.81522,-2.40842 0.80169,-7.12255 1.58409,-10.35248 -0.0331,-6.21022 0.4122,-12.49079 -0.27898,-18.66099 -0.61621,-1.20802 -2.30375,-0.31644 -3.29246,-0.43918 z"
       id="path73035"
       transform="matrix(0.26458333,0,0,0.26458333,69.350834,70.731659)" />
    <path
       style="font-variation-settings:normal;opacity:1;fill:#1a1a1a;fill-opacity:1;stroke-width:1.48913388;stroke-linecap:butt;stroke-linejoin:miter;stroke-miterlimit:4;stroke-dasharray:none;stroke-dashoffset:0;stroke-opacity:1;stop-color:#000000;stop-opacity:1;stroke:#000000"
       d="m 76.304003,65.61868 c -3.540849,0.901704 -1.720463,5.9363 -2.219678,8.530826 0.434233,12.32113 -0.315987,24.8806 1.965561,37.022314 3.103114,1.95444 7.628919,0.52555 11.221177,1.17944 30.312127,0.66472 60.643987,0.44388 90.783527,3.86068 7.33245,0.40048 14.92172,1.96549 22.14364,0.71618 -0.0892,-5.65066 0.98755,-12.05981 -1.41284,-17.404222 -6.07279,-3.630747 -13.56502,-4.362871 -20.22764,-6.66803 C 144.56611,83.703008 110.73966,73.816806 76.511163,65.607632 Z"
       id="path73111"
       transform="matrix(0.26458333,0,0,0.26458333,69.350834,70.731659)" />
    <path
       style="font-variation-settings:normal;opacity:1;vector-effect:none;fill:#1a1a1a;fill-opacity:1;stroke-width:0.353553;stroke-linecap:butt;stroke-linejoin:miter;stroke-miterlimit:4;stroke-dasharray:none;stroke-dashoffset:0;stroke-opacity:1;-inkscape-stroke:none;stop-color:#000000;stop-opacity:1"
       d="m 30.658327,173.67758 c -7.837622,1.40504 -15.691233,2.93794 -23.3814801,4.98565 -1.5826049,2.67088 3.3461381,2.00955 4.7802281,2.78635 6.275483,0.96697 12.404504,4.08246 18.782172,3.71848 3.034419,-2.09715 1.245862,-6.70823 1.374163,-9.8553 -0.05618,-0.81731 -0.558931,-1.85747 -1.555083,-1.63518 z"
       id="path73187"
       transform="matrix(0.26458333,0,0,0.26458333,69.350834,70.731659)" />
    <path
       style="font-variation-settings:normal;opacity:1;vector-effect:none;fill:#1a1a1a;fill-opacity:1;stroke-width:0.353553;stroke-linecap:butt;stroke-linejoin:miter;stroke-miterlimit:4;stroke-dasharray:none;stroke-dashoffset:0;stroke-opacity:1;-inkscape-stroke:none;stop-color:#000000;stop-opacity:1"
       d="m 25.479322,82.047864 c -7.194725,1.630931 -14.651843,3.151453 -21.4452226,5.775627 1.2677182,2.98767 6.1900736,3.184136 8.9143246,5.061417 5.403124,2.240407 10.555369,5.320567 16.127199,7.040881 2.519036,-1.860415 0.497946,-6.062617 0.83969,-8.738017 -0.438687,-3.098672 0.08994,-6.391607 -0.653246,-9.396786 -1.213335,-0.512117 -2.535494,0.233043 -3.782745,0.256878 z"
       id="path73411"
       transform="matrix(0.26458333,0,0,0.26458333,69.350834,70.731659)" />
    <path
       style="font-variation-settings:normal;opacity:1;fill:none;fill-opacity:1;stroke-width:4.51275597;stroke-linecap:butt;stroke-linejoin:miter;stroke-miterlimit:4;stroke-dasharray:none;stroke-dashoffset:0;stroke-opacity:1;stop-color:#000000;stop-opacity:1;stroke:#000000"
       d="M 114.27922,0.63805337 C 82.646716,18.602715 51.782448,37.937862 20.706243,56.858972 13.846317,61.262615 6.6451673,65.231174 0.08424512,70.051907 -0.16628231,75.754391 1.1665555,81.6591 2.5190678,87.219965 c 2.8027162,2.165068 6.7283967,-0.91243 9.7959152,-1.197387 5.360563,-1.249995 10.800698,-3.179399 16.263455,-3.321471 1.118258,14.471901 0.398309,29.077973 0.999438,43.596833 0.406047,18.46642 0.698282,36.9771 2.121775,55.37878 0.317501,2.14739 -1.140755,3.20771 -3.184742,2.54531 -7.749872,-1.03426 -15.271308,-3.18084 -22.6729918,-5.33093 -3.3822625,1.48059 -1.5533211,6.39663 -1.7951229,9.26125 0.8107568,5.83386 -0.081062,12.18281 2.1666299,17.69168 12.9380748,8.08829 26.9530758,14.50641 40.3715278,21.81603 24.000213,12.37608 47.804729,25.1655 72.068118,37.01332 3.51416,-0.32338 2.28225,-5.47441 2.76895,-7.87179 -0.0448,-13.26257 0.48902,-26.62302 -0.81889,-39.82478 -1.38711,-3.2473 -6.23379,-2.72465 -8.92763,-4.39474 -10.90931,-3.94327 -22.365045,-6.9856 -32.866245,-11.68365 -1.442767,-13.99381 -0.982985,-28.26953 -0.905974,-42.31454 -0.926925,-4.94131 3.022429,-4.55749 6.84712,-3.9084 11.766009,0.41818 23.727939,1.49492 35.384549,1.0565 0.14437,-13.71345 -0.33426,-27.63325 -1.07033,-41.39337 -2.44311,-2.20816 -6.75545,-0.67576 -9.84702,-1.40232 -10.789208,-0.74501 -21.763746,0.10215 -32.417794,-1.7106 -2.67997,-3.67402 -1.34776,-9.02503 -2.007314,-13.309887 -0.325891,-10.239111 -0.524743,-20.4818 -0.785206,-30.722706 3.407081,-2.330188 7.868719,-2.33362 11.579269,-4.278967 10.62133,-4.145914 21.636355,-7.885693 31.855395,-12.670288 2.07282,-8.345008 0.28727,-17.236815 0.30439,-25.773014 -0.70789,-7.78883 -0.39767,-15.8583284 -2.31116,-23.4460756 -0.40039,-0.0409772 -0.68665,-0.66501772 -1.15596,-0.38669903 z"
       id="path109219"
       transform="matrix(0.26458333,0,0,0.26458333,69.350834,70.731659)" />
    <path
       style="font-variation-settings:normal;opacity:1;fill:none;fill-opacity:1;stroke-width:2.2450394;stroke-linecap:butt;stroke-linejoin:miter;stroke-miterlimit:4;stroke-dasharray:none;stroke-dashoffset:0;stroke-opacity:1;stop-color:#000000;stop-opacity:1;stroke:#000000"
       d="m 118.28985,2.827046 c -1.45252,3.1390774 0.59166,7.125843 0.31563,10.552115 0.83798,12.164557 1.52427,24.556994 1.08891,36.655548 36.3629,12.318902 72.82134,24.606682 109.33914,36.469861 3.0022,-1.07355 1.14307,-5.72895 2.28179,-8.104645 0.27121,-4.751913 1.98581,-9.725989 1.25928,-14.318375 C 195.00315,43.229644 157.07176,22.992011 119.15439,2.7704222 l -0.70559,0.046213 z"
       id="path109295"
       transform="matrix(0.26458333,0,0,0.26458333,69.350834,70.731659)" />
    <path
       style="font-variation-settings:normal;opacity:1;fill:none;fill-opacity:1;stroke-width:0.73322836;stroke-linecap:butt;stroke-linejoin:miter;stroke-miterlimit:4;stroke-dasharray:none;stroke-dashoffset:0;stroke-opacity:1;stop-color:#000000;stop-opacity:1;stroke:#000000"
       d="M 112.8802,3.315944 C 77.232916,23.752246 42.259466,45.357998 7.3445191,67.01632 c -2.5625927,2.016541 -7.54253268,3.308283 -5.6492696,7.513454 0.9566644,3.752906 0.2139109,8.802277 3.2917867,11.593623 5.2844048,-0.660423 10.5997228,-2.814588 15.9673828,-3.65647 2.909078,-0.652864 5.835285,-1.245059 8.803451,-1.557063 1.905894,32.292626 1.209156,64.843276 3.223412,97.127736 0.142875,2.67707 0.750111,8.37161 -3.499626,7.56274 -7.948401,-0.4734 -15.502544,-3.3381 -23.276518,-4.69012 -2.1054548,2.27767 -0.112238,6.1706 -0.4884883,9.05924 0.8804395,4.79262 -0.3542724,10.36231 2.1982504,14.6758 8.9671619,6.64186 19.5614559,10.8435 29.2303019,16.38637 26.721089,14.01614 53.568132,27.78941 80.488638,41.41823 2.82247,-0.35478 1.68943,-4.93351 2.21523,-7.09317 0.33044,-12.65681 0.23063,-25.34109 -0.76511,-37.96832 -5.32372,-3.28834 -12.21251,-4.38073 -18.16691,-6.79013 -7.928212,-3.00934 -16.319971,-5.01627 -23.651826,-9.33107 -0.964225,-15.16856 -0.777394,-30.56274 -1.126952,-45.82798 2.273073,-4.0418 7.386289,-1.79818 11.02721,-2.19118 10.419359,0.20532 21.014148,1.46739 31.319098,1.06561 0.49941,-12.56976 0.004,-25.39785 -1.21811,-37.96694 -2.83769,-2.27294 -7.37559,-1.03457 -10.79994,-1.77191 -10.10009,-0.82031 -20.468849,-0.15444 -30.404215,-2.09646 -3.933027,-5.84061 -2.091799,-13.568555 -2.899576,-20.202044 0.114148,-8.727359 -1.088011,-17.66352 0.118108,-26.284699 14.14118,-5.94411 28.994633,-10.270588 42.789623,-17.056188 1.23177,-7.094319 0.2512,-14.809474 0.18851,-22.145469 -0.74508,-7.740106 0.009,-15.974456 -2.34521,-23.3665847 -0.16902,-0.3609469 -0.71863,-0.14999 -1.03357,-0.1073813 z"
       id="path109371"
       transform="matrix(0.26458333,0,0,0.26458333,69.350834,70.731659)" />
    <path
       style="font-variation-settings:normal;opacity:1;fill:none;fill-opacity:1;stroke-width:4.51275597;stroke-linecap:butt;stroke-linejoin:miter;stroke-miterlimit:4;stroke-dasharray:none;stroke-dashoffset:0;stroke-opacity:1;stop-color:#000000;stop-opacity:1;stroke:#000000"
       d="m 118.72903,3.8103663 c -1.21892,4.0735606 0.64233,8.7876517 0.48956,13.0965347 0.73051,10.771111 0.92887,21.54809 1.26577,32.344742 4.79087,3.205221 11.31425,4.022577 16.77662,6.302299 30.2856,10.081874 60.51091,20.350935 90.87072,30.20485 2.74961,-0.556295 1.80764,-4.794785 2.65165,-6.879102 0.41385,-4.7769 1.93275,-9.768368 1.05376,-14.506735 C 200.22637,46.42491 167.96613,29.520173 135.96491,12.233201 130.50461,9.3873227 125.13675,6.3414754 119.58529,3.681927 L 118.886,3.7868195 Z"
       id="path109447"
       transform="matrix(0.26458333,0,0,0.26458333,69.350834,70.731659)" />
    <path
       style="font-variation-settings:normal;opacity:1;vector-effect:none;fill:none;fill-opacity:1;stroke-width:0.353553;stroke-linecap:butt;stroke-linejoin:miter;stroke-miterlimit:4;stroke-dasharray:none;stroke-dashoffset:0;stroke-opacity:1;-inkscape-stroke:none;stop-color:#000000;stop-opacity:1"
       d="m 120.99812,113.28624 c 0.0125,13.01425 0.73258,26.20783 0.83555,39.2969 -0.34443,2.45737 1.64185,4.1248 4.02719,3.15989 24.70111,-1.51834 49.32209,-4.54987 74.00452,-5.85849 10.97749,-0.50495 22.15757,-1.34759 32.93157,-2.88505 0.9654,-9.16117 -0.0219,-18.60856 0.13396,-27.86581 -3.01596,-2.35929 -8.32822,-0.91969 -12.20968,-1.81663 -6.65157,-0.22525 -13.43239,-1.53507 -20.04516,-0.66653 -7.81512,1.40207 -16.02721,-0.0589 -23.92568,-0.52212 -18.27128,-1.75426 -36.61729,-2.58317 -54.95816,-3.19019 l -0.64764,0.28383 z"
       id="path109523"
       transform="matrix(0.26458333,0,0,0.26458333,69.350834,70.731659)" />
    <path
       style="font-variation-settings:normal;opacity:1;fill:none;fill-opacity:1;stroke-width:4.51275597;stroke-linecap:butt;stroke-linejoin:miter;stroke-miterlimit:4;stroke-dasharray:none;stroke-dashoffset:0;stroke-opacity:1;stop-color:#000000;stop-opacity:1;stroke:#000000"
       d="M 112.8802,3.315944 C 77.145093,23.754629 42.128983,45.438834 7.1725797,67.176486 c -2.882412,1.633653 -6.92299293,3.87977 -5.4158613,7.894225 1.1032071,3.475967 0.099132,8.756166 3.5548688,10.968435 4.8495068,-0.515085 9.6180518,-2.65928 14.4956888,-3.358757 3.292336,-0.718032 6.597351,-1.401224 9.950594,-1.767767 1.906024,32.292138 1.209214,64.842358 3.223412,97.126368 0.281036,2.86235 0.548164,8.73471 -3.9319,7.53786 -7.431428,-0.27942 -14.425733,-3.58368 -21.746295,-4.1211 -3.3988542,1.56775 -1.0629497,6.35684 -1.5698941,9.20954 0.6539967,4.89238 -0.2333208,10.81511 3.0144913,14.88457 33.6159428,18.94954 68.2451048,36.06227 102.5678858,53.69243 2.56024,0.84216 8.19974,6.12303 8.14479,0.42224 1.09246,-14.04654 0.55152,-28.22283 -0.3764,-42.27616 -5.32372,-3.28834 -12.21251,-4.38073 -18.16691,-6.79013 -7.928212,-3.00934 -16.319971,-5.01627 -23.651826,-9.33107 -0.964225,-15.16856 -0.777394,-30.56274 -1.126952,-45.82798 2.273073,-4.0418 7.386289,-1.79818 11.02721,-2.19118 10.419359,0.20532 21.014148,1.46739 31.319098,1.06561 0.49941,-12.56976 0.004,-25.39785 -1.21811,-37.96694 -2.83769,-2.27294 -7.37559,-1.03457 -10.79994,-1.77191 -10.10009,-0.82031 -20.468849,-0.15444 -30.404215,-2.09646 -3.933027,-5.84061 -2.091799,-13.568555 -2.899576,-20.202044 0.114148,-8.727359 -1.088011,-17.66352 0.118108,-26.284699 14.14118,-5.94411 28.994633,-10.270588 42.789623,-17.056188 1.23177,-7.094319 0.2512,-14.809474 0.18851,-22.145469 -0.74508,-7.740106 0.009,-15.974456 -2.34521,-23.3665847 -0.16902,-0.3609469 -0.71863,-0.14999 -1.03357,-0.1073813 z"
       id="path109562"
       transform="matrix(0.26458333,0,0,0.26458333,69.350834,70.731659)" />
    <path
       style="font-variation-settings:normal;opacity:1;fill:none;fill-opacity:1;stroke-width:4.51275597;stroke-linecap:butt;stroke-linejoin:miter;stroke-miterlimit:4;stroke-dasharray:none;stroke-dashoffset:0;stroke-opacity:1;stop-color:#000000;stop-opacity:1;stroke:#000000"
       d="m 120.99812,113.28624 c 0.0125,13.01425 0.73258,26.20783 0.83555,39.2969 -0.34443,2.45737 1.64185,4.1248 4.02719,3.15989 24.70111,-1.51834 49.32209,-4.54987 74.00452,-5.85849 10.97749,-0.50495 22.15757,-1.34759 32.93157,-2.88505 0.9654,-9.16117 -0.0219,-18.60856 0.13396,-27.86581 -3.01596,-2.35929 -8.32822,-0.91969 -12.20968,-1.81663 -6.65157,-0.22525 -13.43239,-1.53507 -20.04516,-0.66653 -7.81512,1.40207 -16.02721,-0.0589 -23.92568,-0.52212 -18.27128,-1.75426 -36.61729,-2.58317 -54.95816,-3.19019 l -0.64764,0.28383 z"
       id="path109638"
       transform="matrix(0.26458333,0,0,0.26458333,69.350834,70.731659)" />
    <path
       style="font-variation-settings:normal;opacity:1;fill:none;fill-opacity:1;stroke-width:4.51275597;stroke-linecap:butt;stroke-linejoin:miter;stroke-miterlimit:4;stroke-dasharray:none;stroke-dashoffset:0;stroke-opacity:1;stop-color:#000000;stop-opacity:1;stroke:#000000"
       d="m 234.54814,180.16721 c -36.94187,11.38554 -73.7767,23.27484 -110.51858,35.21723 -2.3206,3.79109 -0.75632,8.87069 -1.29658,13.12152 0.27403,11.26301 -0.61873,22.64419 0.61019,33.84031 1.91339,2.86931 5.16238,-1.88533 7.36938,-2.24838 35.41264,-20.48987 70.82474,-40.97896 106.1765,-61.57352 1.34674,-3.42544 -0.41225,-7.62363 -0.32947,-11.30418 -0.76631,-2.03842 0.49921,-6.30046 -2.01144,-7.05298 z"
       id="path109714"
       transform="matrix(0.26458333,0,0,0.26458333,69.350834,70.731659)" />
    <path
       style="font-variation-settings:normal;opacity:1;fill:none;fill-opacity:1;stroke-width:4.51275597;stroke-linecap:butt;stroke-linejoin:miter;stroke-miterlimit:4;stroke-dasharray:none;stroke-dashoffset:0;stroke-opacity:1;stop-color:#000000;stop-opacity:1;stroke:#000000"
       d="m 201.27407,177.70339 c -14.22212,0.93463 -27.88581,5.64979 -41.91798,7.93021 -23.92795,4.93337 -48.05454,9.27314 -71.835055,14.70411 -2.376187,2.46292 2.838502,3.20924 4.364953,3.95689 9.919342,3.54132 20.019882,6.79366 29.788852,10.49875 35.04216,-11.63795 70.30352,-22.79732 105.54673,-33.88036 1.91165,-3.24591 -4.72818,-1.91319 -6.75894,-2.56879 -6.38532,-0.42626 -12.78836,-0.67765 -19.18856,-0.64081 z"
       id="path109790"
       transform="matrix(0.26458333,0,0,0.26458333,69.350834,70.731659)" />
    <path
       style="font-variation-settings:normal;opacity:1;fill:none;fill-opacity:1;stroke-width:4.51275597;stroke-linecap:butt;stroke-linejoin:miter;stroke-miterlimit:4;stroke-dasharray:none;stroke-dashoffset:0;stroke-opacity:1;stop-color:#000000;stop-opacity:1;stroke:#000000"
       d="m 196.99276,151.35399 c -35.5128,2.60442 -70.9637,7.31717 -106.613883,4.95738 -3.323576,0.83544 -9.850737,-2.49654 -11.122153,1.27814 0.380026,13.46062 -0.840221,27.06734 0.979177,40.43905 0.277313,3.01873 4.352032,4.46847 6.137467,1.83959 17.512722,-5.21764 35.704602,-7.87595 53.554252,-11.73498 20.06882,-3.64968 39.85379,-8.7846 60.01373,-11.89924 1.93411,-3.33287 0.25182,-8.34125 0.8162,-12.29703 -0.26134,-4.20421 0.5169,-8.64563 -0.37565,-12.70582 -1.07684,-0.49897 -2.27093,0.12422 -3.38914,0.12291 z"
       id="path109866"
       transform="matrix(0.26458333,0,0,0.26458333,69.350834,70.731659)" />
    <path
       style="font-variation-settings:normal;opacity:1;fill:none;fill-opacity:1;stroke-width:4.51275597;stroke-linecap:butt;stroke-linejoin:miter;stroke-miterlimit:4;stroke-dasharray:none;stroke-dashoffset:0;stroke-opacity:1;stop-color:#000000;stop-opacity:1;stroke:#000000"
       d="m 78.932173,66.672434 c -4.604857,-0.648736 -3.338975,4.154344 -3.304787,7.094528 0.543508,11.510386 -0.0745,23.22331 1.429297,34.617868 2.440319,3.62051 7.764693,1.5362 11.395192,2.46658 16.606195,1.20723 33.268525,1.02479 49.875885,1.4957 20.57661,0.51615 41.01793,3.43274 61.62877,3.20408 2.28593,-2.09182 0.075,-6.47302 0.38394,-9.49208 0.12157,-4.1094 -2.17707,-8.352981 -6.60013,-8.912032 C 156.97038,86.648361 120.10822,76.387096 83.015906,67.102211 81.667859,66.871474 80.303365,66.661879 78.932173,66.672434 Z"
       id="path109942"
       transform="matrix(0.26458333,0,0,0.26458333,69.350834,70.731659)" />
    <path
       style="font-variation-settings:normal;opacity:1;fill:none;fill-opacity:1;stroke-width:4.51275597;stroke-linecap:butt;stroke-linejoin:miter;stroke-miterlimit:4;stroke-dasharray:none;stroke-dashoffset:0;stroke-opacity:1;stop-color:#000000;stop-opacity:1;stroke:#000000"
       d="m 119.75792,50.976597 c -8.91317,3.496645 -17.79809,7.424506 -26.844725,10.720725 -1.921387,1.334308 -6.318538,1.135778 -6.340954,3.890973 6.190292,3.424796 13.743019,4.047954 20.484209,6.217949 29.53608,8.01907 59.28018,15.487629 88.46271,24.760785 2.6848,0.529619 4.70685,4.252801 7.64128,1.956476 7.65871,-3.320671 15.70705,-6.153712 22.89828,-10.327128 -0.24697,-2.939831 -5.09085,-2.383958 -7.15749,-3.827393 C 186.01373,73.070639 152.7778,62.583079 120.03966,50.973835 Z"
       id="path110018"
       transform="matrix(0.26458333,0,0,0.26458333,69.350834,70.731659)" />
    <path
       style="font-variation-settings:normal;opacity:1;vector-effect:none;fill:none;fill-opacity:1;stroke-width:0.353553;stroke-linecap:butt;stroke-linejoin:miter;stroke-miterlimit:4;stroke-dasharray:none;stroke-dashoffset:0;stroke-opacity:1;-inkscape-stroke:none;stop-color:#000000;stop-opacity:1"
       d="M 115.05953,-2.0260266 C 106.81862,0.30353795 99.988715,6.0927706 92.452922,10.010203 60.735352,29.158636 28.770814,47.9372 -2.3105266,68.110126 c -1.1603244,6.754817 0.4120459,14.147427 2.78975718,20.61244 3.07052072,4.048788 8.87806312,0.797157 12.86238542,0.327928 4.038098,-0.981577 8.056623,-2.068337 12.147373,-2.834572 1.43371,31.574768 1.387573,63.275148 3.007966,94.872468 -7.866202,-1.02064 -15.301545,-4.18482 -23.1646516,-4.8075 -5.46414791,1.38661 -4.4311652,8.27296 -4.1753642,12.50231 0.7547332,5.96719 0.1206399,12.49694 2.7141941,18.0331 6.3078727,6.0624 14.9818477,8.98629 22.3992697,13.46746 30.541581,16.0156 61.062663,32.1095 92.060877,47.22219 2.47729,-0.28326 4.71911,-1.83955 7.28789,-1.98736 26.63676,-13.74201 52.12932,-29.61256 78.18475,-44.41816 11.53276,-7.14571 23.9376,-13.00145 34.93991,-20.94502 2.93297,-3.37323 0.65074,-8.4499 0.79796,-12.47644 -0.4709,-3.67667 -0.51162,-10.39783 -5.78638,-10.10264 -2.14736,0.44037 -4.15417,0.47814 -5.79634,-1.00128 -7.95742,-1.91042 -16.25799,-1.29861 -24.37309,-1.50121 0,-7.53143 0,-15.06286 0,-22.59428 10.09822,-0.78094 20.46701,-0.66285 30.32687,-3.0563 3.32007,-2.71394 1.40743,-7.99186 2.14022,-11.72052 -0.32828,-6.67701 0.9445,-13.68494 -0.75086,-20.18629 -3.19625,-3.08393 -8.53055,-1.88858 -12.57325,-2.89748 -6.3628,-0.62822 -12.74931,-1.1009 -19.14712,-1.05928 0.0149,-3.86752 0.004,-7.79975 -1.03166,-11.55816 8.63722,-4.023834 18.16743,-6.73416 25.88812,-12.419942 1.54422,-1.752366 4.23465,-2.828632 4.37522,-5.659619 1.31234,-7.05187 2.65428,-14.631092 1.36864,-21.615091 C 196.53673,41.638502 159.12063,20.470133 120.59209,1.4791237 c -1.82163,-0.2086681 -2.41002,-1.20768649 -3.17508,-2.705512 -0.60041,-0.633701 -1.50529,-0.8788642 -2.35748,-0.7996383 z m -3.27451,9.8539191 c 1.56214,12.2189255 1.74014,24.6323895 1.736,36.9490905 -0.48477,4.088975 -6.0105,4.055133 -8.87949,5.846883 -11.319071,4.737631 -23.132683,8.455762 -34.256788,13.709039 -1.139665,6.999424 0.100579,14.620232 -0.125674,21.858163 0.72255,8.77267 -0.850126,18.157422 2.523212,26.497162 1.948744,3.97505 7.524768,2.73111 11.112105,3.61282 10.129905,1.03726 20.542125,0.85835 30.517415,2.09376 0.75631,11.10132 1.41116,22.25059 0.83279,33.37902 -12.70138,-1.14955 -25.63073,-1.48247 -38.296829,-1.40188 -3.671935,2.23574 -4.571686,5.88484 -3.791153,9.93865 0.253936,14.18054 0.529284,28.36394 1.285711,42.52822 6.576142,4.59591 15.012796,6.52958 22.544558,9.52661 6.322663,2.24221 12.714143,4.26854 18.846053,6.88186 0.94101,12.91967 1.09392,26.01321 0.58971,38.99169 C 82.629371,241.60064 49.185318,224.2181 16.119824,206.17548 12.829276,204.45524 9.0851205,202.14041 9.4009293,197.89736 8.8079029,193.57022 8.672634,189.20025 8.3706528,184.84765 c 8.3577582,0.39597 16.8216662,5.24404 25.1754862,2.58398 3.60026,-3.2517 1.781029,-9.05679 2.209709,-13.31488 C 34.367787,143.13413 34.208065,112.09689 32.631588,81.129689 33.286977,75.426619 26.92453,78.870264 23.71846,78.92527 17.846757,79.790457 12.174053,81.755889 6.2949076,82.478757 5.6221062,79.27422 4.16847,75.44967 5.0491842,72.503305 38.316695,50.960359 72.421606,30.523057 106.59446,10.394204 c 1.64795,-0.746317 3.7396,-2.5133068 5.19056,-2.5663115 z m 11.96004,1.2401995 c 33.50619,17.953285 67.30982,35.725544 100.41767,54.536115 2.15583,1.552426 6.06055,2.472263 4.74237,5.886986 -0.53534,4.207271 -0.57964,8.84669 -1.97079,12.819075 C 192.43072,71.047811 157.99487,59.505119 123.67325,47.710371 122.61319,34.571903 122.72266,21.177716 121.53674,7.9521891 c 0.7361,0.3719672 1.47222,0.743935 2.20832,1.1159029 z m 44.76041,61.581815 c 17.03644,5.749026 34.09325,11.438845 51.09675,17.284066 -6.29259,2.839755 -12.5692,6.322977 -19.27004,7.814081 -5.77096,-3.39692 -12.85189,-4.406909 -19.17117,-6.673334 -28.98787,-8.622863 -58.2582,-16.287879 -87.494226,-23.982228 8.525166,-4.068564 17.519196,-7.110302 26.223716,-10.783378 16.205,5.446931 32.40999,10.893864 48.61497,16.340793 z M 79.089616,69.877895 c 17.700699,3.321175 34.937164,8.837852 52.390864,13.25058 21.13311,5.932803 42.60199,11.212592 63.40063,18.000225 3.16275,2.57124 2.30695,7.42223 2.9472,10.99882 -26.43219,-0.1304 -52.76077,-3.22956 -79.23221,-3.30843 -12.84,-0.48731 -25.724705,-0.60264 -38.476209,-2.11088 C 79.15829,94.485119 78.787264,82.121951 79.089616,69.877895 Z M 129.31906,116.2652 c 21.62415,0.32156 43.2025,2.76695 64.80108,3.80899 11.68775,-0.86477 23.67423,-0.52366 35.17166,0.92531 1.13744,7.75292 1.32517,15.7338 0.50547,23.55826 -29.99712,2.73347 -60.12785,4.34729 -90.15402,7.15123 -4.8585,0.38775 -9.71449,0.81074 -14.57789,1.13379 -1.08446,-12.1477 -0.79733,-24.38639 -1.15181,-36.5831 1.80184,0.002 3.60367,0.004 5.40551,0.006 z m 67.86982,40.2236 c -0.0127,5.59625 0.60566,11.6035 0.0566,17.09348 -28.38453,5.0635 -56.56988,11.30526 -84.8542,16.95675 -9.65993,1.84262 -19.689193,4.58174 -28.93337,6.73685 -1.407326,-12.73488 -0.506069,-25.64263 -0.787208,-38.44202 38.166128,3.4587 76.379858,-1.61955 114.443578,-4.20121 0.0249,0.61871 0.0497,1.23743 0.0746,1.85615 z m 9.11228,24.31785 c 3.10551,0.0175 6.19921,0.19605 9.27525,0.42674 -31.31707,10.2118 -62.7726,20.01449 -94.07005,30.3034 -8.81435,-3.457 -17.85384,-6.29178 -26.734722,-9.56113 32.813512,-6.90626 65.690582,-13.53591 98.550942,-20.20204 4.29281,-0.65889 8.63517,-0.9891 12.97858,-0.96697 z m 26.97364,3.25241 c 0.27004,4.24652 0.32962,8.61501 0.46818,12.91437 -35.90323,20.79266 -71.71229,41.74178 -107.72882,62.3345 -0.0922,-13.74737 -0.73477,-27.61931 0.39222,-41.28427 35.35169,-11.99171 71.10719,-23.34827 106.8477,-34.20629 z"
       id="path110094"
       transform="matrix(0.26458333,0,0,0.26458333,69.350834,70.731659)" />
    <path
       style="font-variation-settings:normal;opacity:1;fill:none;fill-opacity:1;stroke-width:4.51275597;stroke-linecap:butt;stroke-linejoin:miter;stroke-miterlimit:4;stroke-dasharray:none;stroke-dashoffset:0;stroke-opacity:1;stop-color:#000000;stop-opacity:1;stroke:#000000"
       d="m 25.339834,84.576598 c -6.652683,0.982478 -13.444055,2.612725 -19.6180697,5.003609 1.6657047,3.243477 7.1397997,3.600059 10.2682397,5.706572 3.599531,0.819543 7.707929,5.066701 11.055843,3.811709 0.143767,-4.540305 0.846184,-9.366162 -0.0018,-13.896266 -0.344078,-0.601369 -1.092947,-0.660938 -1.704238,-0.625624 z"
       id="path110133"
       transform="matrix(0.26458333,0,0,0.26458333,69.350834,70.731659)" />
    <path
       style="font-variation-settings:normal;opacity:1;vector-effect:none;fill:none;fill-opacity:1;stroke-width:0.353553;stroke-linecap:butt;stroke-linejoin:miter;stroke-miterlimit:4;stroke-dasharray:none;stroke-dashoffset:0;stroke-opacity:1;-inkscape-stroke:none;stop-color:#000000;stop-opacity:1"
       d="M 115.05953,-2.0260266 C 106.81862,0.30353795 99.988715,6.0927706 92.452922,10.010203 60.735352,29.158636 28.770814,47.9372 -2.3105266,68.110126 c -1.1291718,6.124537 0.3260887,12.776913 1.97354603,18.807381 3.57872587,6.67648 11.11214857,9.205738 17.58305757,12.117285 2.772317,1.333018 5.790939,2.852448 8.787053,3.190468 0.686388,26.27462 1.135536,52.59628 2.458301,78.86313 -7.863838,-1.02344 -15.297966,-4.18424 -23.1591276,-4.8075 -5.46414791,1.38661 -4.4311652,8.27296 -4.1753642,12.50231 0.7547332,5.96719 0.1206399,12.49694 2.7141941,18.0331 6.3078727,6.0624 14.9818477,8.98629 22.3992697,13.46746 30.541581,16.0156 61.062663,32.1095 92.060877,47.22219 2.47729,-0.28326 4.71911,-1.83955 7.28789,-1.98736 26.63676,-13.74201 52.12932,-29.61256 78.18475,-44.41816 11.53276,-7.14571 23.9376,-13.00145 34.93991,-20.94502 2.93297,-3.37323 0.65074,-8.4499 0.79796,-12.47644 -0.4709,-3.67667 -0.51162,-10.39783 -5.78638,-10.10264 -2.14736,0.44037 -4.15417,0.47814 -5.79634,-1.00128 -7.95742,-1.91042 -16.25799,-1.29861 -24.37309,-1.50121 0,-7.53143 0,-15.06286 0,-22.59428 10.09822,-0.78094 20.46701,-0.66285 30.32687,-3.0563 3.32007,-2.71394 1.40743,-7.99186 2.14022,-11.72052 -0.32828,-6.67701 0.9445,-13.68494 -0.75086,-20.18629 -3.19625,-3.08393 -8.53055,-1.88858 -12.57325,-2.89748 -6.3628,-0.62822 -12.74931,-1.1009 -19.14712,-1.05928 0.0149,-3.86752 0.004,-7.79975 -1.03166,-11.55816 8.63722,-4.023834 18.16743,-6.73416 25.88812,-12.419942 1.54422,-1.752366 4.23465,-2.828632 4.37522,-5.659619 1.31234,-7.05187 2.65428,-14.631092 1.36864,-21.615091 C 196.53673,41.638502 159.12063,20.470133 120.59209,1.4791237 c -1.82163,-0.2086681 -2.41002,-1.20768649 -3.17508,-2.705512 -0.60041,-0.633701 -1.50529,-0.8788642 -2.35748,-0.7996383 z m -3.27451,9.8539191 c 1.56214,12.2189255 1.74014,24.6323895 1.736,36.9490905 -0.48477,4.088975 -6.0105,4.055133 -8.87949,5.846883 -11.319071,4.737631 -23.132683,8.455762 -34.256788,13.709039 -1.139665,6.999424 0.100579,14.620232 -0.125674,21.858163 0.72255,8.77267 -0.850126,18.157422 2.523212,26.497162 1.948744,3.97505 7.524768,2.73111 11.112105,3.61282 10.129905,1.03726 20.542125,0.85835 30.517415,2.09376 0.75631,11.10132 1.41116,22.25059 0.83279,33.37902 -12.70138,-1.14955 -25.63073,-1.48247 -38.296829,-1.40188 -3.671935,2.23574 -4.571686,5.88484 -3.791153,9.93865 0.253936,14.18054 0.529284,28.36394 1.285711,42.52822 6.576142,4.59591 15.012796,6.52958 22.544558,9.52661 6.322663,2.24221 12.714143,4.26854 18.846053,6.88186 0.94101,12.91967 1.09392,26.01321 0.58971,38.99169 C 82.629371,241.60064 49.185318,224.2181 16.119824,206.17548 12.829276,204.45524 9.0851205,202.14041 9.4009293,197.89736 8.8079029,193.57022 8.672634,189.20025 8.3706528,184.84765 c 8.3577582,0.39597 16.8216662,5.24404 25.1754862,2.58398 3.60026,-3.2517 1.781029,-9.05679 2.209709,-13.31488 C 34.367787,143.13413 34.208065,112.09689 32.631588,81.129689 33.286977,75.426619 26.92453,78.870264 23.71846,78.92527 17.846757,79.790457 12.174053,81.755889 6.2949076,82.478757 5.6221062,79.27422 4.16847,75.44967 5.0491842,72.503305 38.316695,50.960359 72.421606,30.523057 106.59446,10.394204 c 1.64795,-0.746317 3.7396,-2.5133068 5.19056,-2.5663115 z m 11.96004,1.2401995 c 33.50619,17.953285 67.30982,35.725544 100.41767,54.536115 2.15583,1.552426 6.06055,2.472263 4.74237,5.886986 -0.53534,4.207271 -0.57964,8.84669 -1.97079,12.819075 C 192.43072,71.047811 157.99487,59.505119 123.67325,47.710371 122.61319,34.571903 122.72266,21.177716 121.53674,7.9521891 c 0.7361,0.3719672 1.47222,0.743935 2.20832,1.1159029 z m 44.76041,61.581815 c 17.03644,5.749026 34.09325,11.438845 51.09675,17.284066 -6.29259,2.839755 -12.5692,6.322977 -19.27004,7.814081 -5.77096,-3.39692 -12.85189,-4.406909 -19.17117,-6.673334 -28.98787,-8.622863 -58.2582,-16.287879 -87.494226,-23.982228 8.525166,-4.068564 17.519196,-7.110302 26.223716,-10.783378 16.205,5.446931 32.40999,10.893864 48.61497,16.340793 z M 79.089616,69.877895 c 17.700699,3.321175 34.937164,8.837852 52.390864,13.25058 21.13311,5.932803 42.60199,11.212592 63.40063,18.000225 3.16275,2.57124 2.30695,7.42223 2.9472,10.99882 -26.43219,-0.1304 -52.76077,-3.22956 -79.23221,-3.30843 -12.84,-0.48731 -25.724705,-0.60264 -38.476209,-2.11088 C 79.15829,94.485119 78.787264,82.121951 79.089616,69.877895 Z M 23.862091,88.087273 c 0.25007,2.2985 0.545003,5.557258 -0.151917,7.312757 -3.302399,-1.61086 -7.721977,-3.570663 -10.413252,-4.95942 3.44833,-0.973991 7.095235,-1.906049 10.565169,-2.353337 z M 129.31906,116.2652 c 21.62415,0.32156 43.2025,2.76695 64.80108,3.80899 11.68775,-0.86477 23.67423,-0.52366 35.17166,0.92531 1.13744,7.75292 1.32517,15.7338 0.50547,23.55826 -29.99712,2.73347 -60.12785,4.34729 -90.15402,7.15123 -4.8585,0.38775 -9.71449,0.81074 -14.57789,1.13379 -1.08446,-12.1477 -0.79733,-24.38639 -1.15181,-36.5831 1.80184,0.002 3.60367,0.004 5.40551,0.006 z m 67.86982,40.2236 c -0.0127,5.59625 0.60566,11.6035 0.0566,17.09348 -28.38453,5.0635 -56.56988,11.30526 -84.8542,16.95675 -9.65993,1.84262 -19.689193,4.58174 -28.93337,6.73685 -1.407326,-12.73488 -0.506069,-25.64263 -0.787208,-38.44202 38.166128,3.4587 76.379858,-1.61955 114.443578,-4.20121 0.0249,0.61871 0.0497,1.23743 0.0746,1.85615 z m 9.11228,24.31785 c 3.10551,0.0175 6.19921,0.19605 9.27525,0.42674 -31.31707,10.2118 -62.7726,20.01449 -94.07005,30.3034 -8.81435,-3.457 -17.85384,-6.29178 -26.734722,-9.56113 32.813512,-6.90626 65.690582,-13.53591 98.550942,-20.20204 4.29281,-0.65889 8.63517,-0.9891 12.97858,-0.96697 z m 26.97364,3.25241 c 0.27004,4.24652 0.32962,8.61501 0.46818,12.91437 -35.90323,20.79266 -71.71229,41.74178 -107.72882,62.3345 -0.0922,-13.74737 -0.73477,-27.61931 0.39222,-41.28427 35.35169,-11.99171 71.10719,-23.34827 106.8477,-34.20629 z"
       id="path110209"
       transform="matrix(0.26458333,0,0,0.26458333,69.350834,70.731659)" />
    <path
       style="font-variation-settings:normal;opacity:1;fill:none;fill-opacity:1;stroke-width:4.51275597;stroke-linecap:butt;stroke-linejoin:miter;stroke-miterlimit:4;stroke-dasharray:none;stroke-dashoffset:0;stroke-opacity:1;stop-color:#000000;stop-opacity:1;stroke:#000000"
       d="m 27.212562,173.46765 c -5.567347,1.04391 -11.383706,1.63423 -16.69573,3.5894 -1.2801461,2.77595 3.717088,2.29602 5.190053,3.1585 4.490302,0.49801 9.285126,3.37386 13.755437,1.92245 1.645958,-2.24378 1.000092,-6.03518 -0.393605,-8.27674 -0.522235,-0.40567 -1.222328,-0.44387 -1.856155,-0.39361 z"
       id="path110248"
       transform="matrix(0.26458333,0,0,0.26458333,69.350834,70.731659)" />
  </g>
</svg>
