<?xml version="1.0" encoding="UTF-8" standalone="no"?>
<!-- Created with Inkscape (http://www.inkscape.org/) -->

<svg
   width="62.895885mm"
   height="70.304825mm"
   viewBox="0 0 62.895885 70.304825"
   version="1.1"
   id="svg5"
   sodipodi:docname="favicon.svg"
   inkscape:version="1.1 (c68e22c387, 2021-05-23)"
   xmlns:inkscape="http://www.inkscape.org/namespaces/inkscape"
   xmlns:sodipodi="http://sodipodi.sourceforge.net/DTD/sodipodi-0.dtd"
   xmlns="http://www.w3.org/2000/svg"
   xmlns:svg="http://www.w3.org/2000/svg">
  <sodipodi:namedview
     id="namedview7"
     pagecolor="#ffffff"
     bordercolor="#666666"
     borderopacity="1.0"
     inkscape:pageshadow="2"
     inkscape:pageopacity="0.0"
     inkscape:pagecheckerboard="0"
     inkscape:document-units="mm"
     showgrid="false"
     inkscape:object-nodes="true"
     inkscape:snap-nodes="false"
     inkscape:snap-midpoints="true"
     inkscape:object-paths="true"
     inkscape:snap-smooth-nodes="true"
     inkscape:snap-intersection-paths="true"
     inkscape:zoom="2"
     inkscape:cx="186"
     inkscape:cy="99.25"
     inkscape:window-width="1920"
     inkscape:window-height="1001"
     inkscape:window-x="-9"
     inkscape:window-y="-9"
     inkscape:window-maximized="1"
     inkscape:current-layer="layer1"
     inkscape:snap-others="false"
     inkscape:snap-global="false" />
  <defs
     id="defs2" />
  <g
     inkscape:label="Capa 1"
     inkscape:groupmode="layer"
     id="layer1"
     transform="translate(-69.350834,-70.731659)">
    <path
       style="fill:none;stroke:#000000;stroke-width:0.264583px;stroke-linecap:butt;stroke-linejoin:miter;stroke-opacity:1"
       d="m 101.3165,140.81896 -30.358373,-15.72783 -0.365762,-6.9495 7.31527,1.82881 -0.731527,-27.798026 -6.949507,1.828818 -0.731527,-4.754927 30.358374,-18.288177 0.731532,12.801724 -11.338675,4.389163 0.365764,12.070195 10.972911,-0.365762 0.36576,12.435962 -10.972907,-0.73153 v 12.80173 l 11.338667,3.65763 z"
       id="path451" />
    <path
       style="fill:none;stroke:#000000;stroke-width:0.264583px;stroke-linecap:butt;stroke-linejoin:miter;stroke-opacity:1"
       d="m 99.853447,70.958127 31.089903,16.825124 -0.73153,5.852217 -29.62684,-9.875616"
       id="path1170" />
    <path
       style="fill:none;stroke:#000000;stroke-width:0.264583px;stroke-linecap:butt;stroke-linejoin:miter;stroke-opacity:1"
       d="m 130.21182,93.635466 -8.41256,3.657637 -32.552955,-8.778325"
       id="path1172" />
    <path
       style="fill:none;stroke:#000000;stroke-width:0.264583px;stroke-linecap:butt;stroke-linejoin:miter;stroke-opacity:1"
       d="m 100.58498,100.58498 v -0.36577"
       id="path1174" />
    <path
       style="fill:none;stroke:#000000;stroke-width:0.268087px;stroke-linecap:butt;stroke-linejoin:miter;stroke-opacity:1"
       d="m 100.22046,99.855724 h 0.73147 l 29.99019,2.253286 v 7.51094 l -29.99019,2.62884"
       id="path1257" />
    <path
       style="fill:none;stroke:#000000;stroke-width:0.264583px;stroke-linecap:butt;stroke-linejoin:miter;stroke-opacity:1"
       d="m 121.93116,110.32868 v 7.31528 l -32.187188,6.58374"
       id="path1265" />
    <path
       style="fill:none;stroke:#000000;stroke-width:0.258527px;stroke-linecap:butt;stroke-linejoin:miter;stroke-opacity:1"
       d="m 121.8445,117.60406 9.89827,0.69682 -30.42802,9.75556"
       id="path1269" />
    <path
       style="fill:none;stroke:#000000;stroke-width:0.259113px;stroke-linecap:butt;stroke-linejoin:miter;stroke-opacity:1"
       d="m 101.36601,140.92131 30.74415,-17.80794 -0.44448,-4.85914"
       id="path1273"
       sodipodi:nodetypes="ccc" />
    <path
       style="fill:none;stroke:#000000;stroke-width:0.245296px;stroke-linecap:butt;stroke-linejoin:miter;stroke-opacity:1"
       d="m 70.197691,94.045963 7.162613,3.210821"
       id="path1503" />
    <path
       style="fill:none;stroke:#000000;stroke-width:0.264349px;stroke-linecap:butt;stroke-linejoin:miter;stroke-opacity:1"
       d="m 70.498354,118.11932 7.409747,-1.44184"
       id="path1507" />
    <path
       style="fill:none;stroke:#000000;stroke-width:0.264583px;stroke-linecap:butt;stroke-linejoin:miter;stroke-opacity:1"
       d="m 121.84147,97.332878 h 0.0468 l 0.0935,4.022412"
       id="path23399" />
    <path
       style="fill:#000000;stroke-width:0.125"
       d="m 117.73755,48.892334 c -13.49424,5.253848 -27.034286,10.391291 -40.492518,15.736608 -0.880399,0.463937 -2.416967,0.679965 -2.428138,1.936243 0.151294,1.1954 1.619433,1.22452 2.502498,1.581541 14.81546,4.16961 29.700918,8.086783 44.552228,12.12616 25.27775,6.804014 50.53864,13.672095 75.84935,20.352504 1.10567,0.24475 2.0762,-0.61883 3.09695,-0.916467 9.29844,-3.998802 18.60179,-7.991588 27.82197,-12.167663 0.93965,-0.421316 0.61797,-1.862229 -0.3645,-1.978028 -36.59248,-12.311971 -73.2396,-24.460733 -109.86084,-36.687011 -0.22335,0.01484 -0.46319,-0.06333 -0.677,0.01611 z"
       id="path25307"
       transform="matrix(0.26458333,0,0,0.26458333,69.350834,70.731659)" />
    <path
       style="fill:#000000;stroke-width:0.125"
       d="m 199.11157,176.77881 c -40.02297,8.19841 -80.05999,16.32923 -120.068601,24.59668 -0.988648,0.21983 -0.974094,1.7254 -0.01636,1.97485 8.090258,2.83579 16.282934,5.37327 24.429821,8.0415 5.80777,1.85421 11.59701,3.77221 17.4298,5.54468 1.51913,-0.16647 2.94013,-0.88235 4.41988,-1.26588 35.93948,-11.49136 71.87799,-22.98701 107.78764,-34.57128 1.02581,-0.36999 0.69685,-1.9707 -0.36279,-1.95898 -11.15409,-0.83423 -22.31604,-1.61002 -33.47361,-2.37118 l -0.12473,0.008 z"
       id="path25346"
       transform="matrix(0.26458333,0,0,0.26458333,69.350834,70.731659)" />
    <path
       style="fill:#000000;stroke-width:0.5"
       d="m 27.895508,81.165039 c -7.378953,2.243962 -15.089867,3.535978 -22.2998049,6.251953 -1.9215479,2.06548 2.0378197,2.954254 3.2926734,3.583037 6.7464985,2.873706 13.3804175,6.297738 20.2034115,8.817332 1.854785,-1.133564 0.732625,-4.322927 1.126962,-6.352517 -0.256797,-3.96213 0.296042,-8.324487 -1.342774,-12.003907 -0.253474,-0.247574 -0.629074,-0.370135 -0.980468,-0.295898 z"
       id="path25385"
       transform="matrix(0.26458333,0,0,0.26458333,69.350834,70.731659)" />
    <path
       style="fill:#000000;stroke-width:0.5"
       d="m 31.060547,173.66016 c -8.021987,1.68408 -16.260387,2.85308 -24.1516972,4.83807 -0.8466171,2.88184 4.7416702,2.13812 6.6488592,3.26331 5.970338,1.33993 11.867663,3.36617 17.921783,4.16326 2.499051,-1.09641 0.473808,-4.45002 0.824219,-6.47265 -0.478327,-1.75465 1.006187,-5.34463 -1.243164,-5.79199 z"
       id="path25424"
       transform="matrix(0.26458333,0,0,0.26458333,69.350834,70.731659)" />
    <path
       style="font-variation-settings:normal;opacity:1;vector-effect:none;fill:none;fill-opacity:1;stroke-width:0.25;stroke-linecap:butt;stroke-linejoin:miter;stroke-miterlimit:4;stroke-dasharray:none;stroke-dashoffset:0;stroke-opacity:1;-inkscape-stroke:none;stop-color:#000000;stop-opacity:1"
       d="M 114.50293,1.7226562 C 97.51503,11.157957 80.970965,21.484622 64.212535,31.359582 43.166629,44.047892 21.970043,56.502225 1.1396484,69.538085 c -1.08779622,2.46427 0.3581882,5.489175 0.3244352,8.12666 0.5311917,3.23969 0.668958,6.606785 1.6531039,9.74053 2.2651195,1.118985 4.979258,-0.97197 7.3906445,-1.11709 6.229911,-1.521025 12.377153,-3.4327 18.691387,-4.58213 1.077473,34.642925 1.998173,69.316925 2.793945,103.977535 -8.753924,-1.84442 -17.381977,-4.65302 -26.166992,-6.11133 -1.7884134,1.82442 -0.537202,5.03244 -0.9068285,7.36418 0.242473,6.21255 0.2160489,12.61694 1.363906,18.66184 11.1753395,6.37498 23.0057205,12.01541 34.4330755,18.10778 26.236905,13.57269 52.412205,27.26743 78.734845,40.67187 2.51613,0.19312 1.17688,-3.41379 1.63281,-4.84961 0.27229,-14.15029 0.12905,-28.30413 0.16602,-42.45606 -1.83786,-2.24007 -5.68185,-2.1063 -8.31103,-3.39877 -11.58652,-3.71971 -23.173115,-7.43914 -34.76026,-11.15689 0.0596,-15.94266 0.0051,-31.8864 0.2041,-47.82813 13.497885,0.53226 26.98056,2.18002 40.48438,2.1084 1.99281,-1.47618 0.19241,-4.87669 0.67643,-7.06148 -0.51485,-12.96568 -0.57586,-25.97408 -1.5319,-38.90922 -1.84245,-1.6394 -4.84235,-0.26931 -7.11524,-0.68164 -11.309325,0.19465 -22.610965,0.73122 -33.92187,0.83887 C 76.29645,95.99669 76.02622,81.002495 75.521485,66.004885 89.527475,60.56015 103.56631,55.19835 117.53711,49.664062 c 1.50193,-2.224974 -0.0157,-5.47479 0.3125,-8.077148 -0.704,-12.998074 -1.33149,-26.003241 -2.24414,-38.9882812 -0.25081,-0.5219149 -0.46049,-0.8856115 -1.10254,-0.8759766 z"
       id="path27762"
       transform="matrix(0.26458333,0,0,0.26458333,69.350834,70.731659)" />
    <path
       style="font-variation-settings:normal;opacity:1;vector-effect:none;fill:none;fill-opacity:1;stroke-width:0.25;stroke-linecap:butt;stroke-linejoin:miter;stroke-miterlimit:4;stroke-dasharray:none;stroke-dashoffset:0;stroke-opacity:1;-inkscape-stroke:none;stop-color:#000000;stop-opacity:1"
       d="m 115.90332,1.8242187 c -1.37218,2.3612281 0.0493,5.5473998 -0.26855,8.1953123 0.70493,13.020847 1.19831,26.070454 2.29394,39.05957 4.5321,2.552375 10.05136,3.508229 14.95645,5.454629 31.96724,10.615175 63.83977,21.537455 95.93808,31.743615 2.35482,-0.68352 1.42391,-4.18554 2.1785,-6.05211 0.56771,-5.260415 1.88697,-10.59587 1.61154,-15.869765 -8.72413,-5.40991 -18.0932,-9.938735 -27.07323,-14.987161 C 175.96149,33.454597 146.47278,17.360202 116.72852,1.7626953 l -0.49862,0.037175 z"
       id="path27801"
       transform="matrix(0.26458333,0,0,0.26458333,69.350834,70.731659)" />
    <path
       style="font-variation-settings:normal;opacity:1;vector-effect:none;fill:none;fill-opacity:1;stroke-width:0.25;stroke-linecap:butt;stroke-linejoin:miter;stroke-miterlimit:4;stroke-dasharray:none;stroke-dashoffset:0;stroke-opacity:1;-inkscape-stroke:none;stop-color:#000000;stop-opacity:1"
       d="m 234.52832,180.52051 c -25.0738,7.09587 -49.76666,15.51654 -74.62952,23.32532 -12.74904,4.07199 -25.48124,8.17231 -38.24353,12.19909 -1.72635,1.90462 -0.34741,5.09758 -0.84266,7.48131 -0.10554,13.52939 -0.0473,27.05935 -0.0626,40.589 1.60642,2.43543 4.50306,-1.72222 6.59424,-2.1799 36.42839,-21.17004 72.93596,-42.20505 109.35986,-63.3826 1.35236,-2.09932 -0.0647,-5.0518 0.14648,-7.43652 -0.59549,-3.36296 -0.0675,-7.23582 -1.50538,-10.30524 -0.15335,-0.30908 -0.52228,-0.32298 -0.81688,-0.29046 z"
       id="path27840"
       transform="matrix(0.26458333,0,0,0.26458333,69.350834,70.731659)" />
    <path
       style="font-variation-settings:normal;opacity:1;vector-effect:none;fill:none;fill-opacity:1;stroke-width:0.25;stroke-linecap:butt;stroke-linejoin:miter;stroke-miterlimit:4;stroke-dasharray:none;stroke-dashoffset:0;stroke-opacity:1;-inkscape-stroke:none;stop-color:#000000;stop-opacity:1"
       d="m 234.52832,180.52051 c -25.0738,7.09587 -49.76666,15.51654 -74.62952,23.32532 -12.74904,4.07199 -25.48124,8.17231 -38.24353,12.19909 -1.72635,1.90462 -0.34741,5.09758 -0.84266,7.48131 -0.10554,13.52939 -0.0473,27.05935 -0.0626,40.589 1.60642,2.43543 4.50306,-1.72222 6.59424,-2.1799 36.42839,-21.17004 72.93596,-42.20505 109.35986,-63.3826 1.35236,-2.09932 -0.0647,-5.0518 0.14648,-7.43652 -0.59549,-3.36296 -0.0675,-7.23582 -1.50538,-10.30524 -0.15335,-0.30908 -0.52228,-0.32298 -0.81688,-0.29046 z"
       id="path27916"
       transform="matrix(0.26458333,0,0,0.26458333,69.350834,70.731659)" />
    <path
       style="font-variation-settings:normal;opacity:1;vector-effect:none;fill:none;fill-opacity:1;stroke-width:0.25;stroke-linecap:butt;stroke-linejoin:miter;stroke-miterlimit:4;stroke-dasharray:none;stroke-dashoffset:0;stroke-opacity:1;-inkscape-stroke:none;stop-color:#000000;stop-opacity:1"
       d="M 114.50293,1.7226562 C 97.51503,11.157957 80.970965,21.484622 64.212535,31.359582 43.166629,44.047892 21.970043,56.502225 1.1396484,69.538085 c -1.08779622,2.46427 0.3581882,5.489175 0.3244352,8.12666 0.5311917,3.23969 0.668958,6.606785 1.6531039,9.74053 2.2651195,1.118985 4.979258,-0.97197 7.3906445,-1.11709 6.229911,-1.521025 12.377153,-3.4327 18.691387,-4.58213 1.077473,34.642925 1.998173,69.316925 2.793945,103.977535 -8.753924,-1.84442 -17.381977,-4.65302 -26.166992,-6.11133 -1.7884134,1.82442 -0.537202,5.03244 -0.9068285,7.36418 0.242473,6.21255 0.2160489,12.61694 1.363906,18.66184 11.1753395,6.37498 23.0057205,12.01541 34.4330755,18.10778 26.236905,13.57269 52.412205,27.26743 78.734845,40.67187 2.51613,0.19312 1.17688,-3.41379 1.63281,-4.84961 0.27229,-14.15029 0.12905,-28.30413 0.16602,-42.45606 -1.83786,-2.24007 -5.68185,-2.1063 -8.31103,-3.39877 -11.58652,-3.71971 -23.173115,-7.43914 -34.76026,-11.15689 0.0596,-15.94266 0.0051,-31.8864 0.2041,-47.82813 13.497885,0.53226 26.98056,2.18002 40.48438,2.1084 1.99281,-1.47618 0.19241,-4.87669 0.67643,-7.06148 -0.51485,-12.96568 -0.57586,-25.97408 -1.5319,-38.90922 -1.84245,-1.6394 -4.84235,-0.26931 -7.11524,-0.68164 -11.309325,0.19465 -22.610965,0.73122 -33.92187,0.83887 C 76.29645,95.99669 76.02622,81.002495 75.521485,66.004885 89.527475,60.56015 103.56631,55.19835 117.53711,49.664062 c 1.50193,-2.224974 -0.0157,-5.47479 0.3125,-8.077148 -0.704,-12.998074 -1.33149,-26.003241 -2.24414,-38.9882812 -0.25081,-0.5219149 -0.46049,-0.8856115 -1.10254,-0.8759766 z"
       id="path27955"
       transform="matrix(0.26458333,0,0,0.26458333,69.350834,70.731659)" />
    <path
       style="font-variation-settings:normal;opacity:1;vector-effect:none;fill:none;fill-opacity:1;stroke-width:0.25;stroke-linecap:butt;stroke-linejoin:miter;stroke-miterlimit:4;stroke-dasharray:none;stroke-dashoffset:0;stroke-opacity:1;-inkscape-stroke:none;stop-color:#000000;stop-opacity:1"
       d="m 119.0918,110.02441 c -2.16978,1.03263 -0.59465,4.20388 -1.00731,6.14728 0.41737,13.40717 0.36895,26.89688 1.30223,40.24921 2.22964,1.34001 5.27534,-0.13115 7.7812,0.0767 35.06531,-2.97428 70.10836,-6.21318 105.1768,-9.14997 2.06301,-1.93198 0.32117,-5.81326 0.8474,-8.50648 -0.20553,-6.66859 0.14914,-13.46422 -0.40337,-20.05413 -2.91304,-1.3571 -6.8799,-0.66675 -10.18675,-1.2473 -34.50246,-2.492 -68.98498,-5.40331 -103.5102,-7.51534 z"
       id="path27994"
       transform="matrix(0.26458333,0,0,0.26458333,69.350834,70.731659)" />
    <path
       style="font-variation-settings:normal;opacity:1;vector-effect:none;fill:none;fill-opacity:1;stroke-width:0.25;stroke-linecap:butt;stroke-linejoin:miter;stroke-miterlimit:4;stroke-dasharray:none;stroke-dashoffset:0;stroke-opacity:1;-inkscape-stroke:none;stop-color:#000000;stop-opacity:1"
       d="m 115.90332,1.8242187 c -1.37218,2.3612281 0.0493,5.5473998 -0.26855,8.1953123 0.70493,13.020847 1.19831,26.070454 2.29394,39.05957 4.5321,2.552375 10.05136,3.508229 14.95645,5.454629 31.96724,10.615175 63.83977,21.537455 95.93808,31.743615 2.35482,-0.68352 1.42391,-4.18554 2.1785,-6.05211 0.56771,-5.260415 1.88697,-10.59587 1.61154,-15.869765 -8.72413,-5.40991 -18.0932,-9.938735 -27.07323,-14.987161 C 175.96149,33.454597 146.47278,17.360202 116.72852,1.7626953 l -0.49862,0.037175 z"
       id="path28033"
       transform="matrix(0.26458333,0,0,0.26458333,69.350834,70.731659)" />
    <path
       style="font-variation-settings:normal;opacity:1;vector-effect:none;fill:none;fill-opacity:1;stroke-width:0.25;stroke-linecap:butt;stroke-linejoin:miter;stroke-miterlimit:4;stroke-dasharray:none;stroke-dashoffset:0;stroke-opacity:1;-inkscape-stroke:none;stop-color:#000000;stop-opacity:1"
       d="M 114.50293,1.7226562 C 97.51503,11.157957 80.970965,21.484622 64.212535,31.359582 43.166629,44.047892 21.970043,56.502225 1.1396484,69.538085 c -1.08779622,2.46427 0.3581882,5.489175 0.3244352,8.12666 0.5311917,3.23969 0.668958,6.606785 1.6531039,9.74053 2.2651195,1.118985 4.979258,-0.97197 7.3906445,-1.11709 6.229911,-1.521025 12.377153,-3.4327 18.691387,-4.58213 1.077473,34.642925 1.998173,69.316925 2.793945,103.977535 -8.753924,-1.84442 -17.381977,-4.65302 -26.166992,-6.11133 -1.7884134,1.82442 -0.537202,5.03244 -0.9068285,7.36418 0.242473,6.21255 0.2160489,12.61694 1.363906,18.66184 11.1753395,6.37498 23.0057205,12.01541 34.4330755,18.10778 26.236905,13.57269 52.412205,27.26743 78.734845,40.67187 2.51613,0.19312 1.17688,-3.41379 1.63281,-4.84961 0.27229,-14.15029 0.12905,-28.30413 0.16602,-42.45606 -1.83786,-2.24007 -5.68185,-2.1063 -8.31103,-3.39877 -11.58652,-3.71971 -23.173115,-7.43914 -34.76026,-11.15689 0.0596,-15.94266 0.0051,-31.8864 0.2041,-47.82813 13.497885,0.53226 26.98056,2.18002 40.48438,2.1084 1.99281,-1.47618 0.19241,-4.87669 0.67643,-7.06148 -0.51485,-12.96568 -0.57586,-25.97408 -1.5319,-38.90922 -1.84245,-1.6394 -4.84235,-0.26931 -7.11524,-0.68164 -11.309325,0.19465 -22.610965,0.73122 -33.92187,0.83887 C 76.29645,95.99669 76.02622,81.002495 75.521485,66.004885 89.527475,60.56015 103.56631,55.19835 117.53711,49.664062 c 1.50193,-2.224974 -0.0157,-5.47479 0.3125,-8.077148 -0.704,-12.998074 -1.33149,-26.003241 -2.24414,-38.9882812 -0.25081,-0.5219149 -0.46049,-0.8856115 -1.10254,-0.8759766 z"
       id="path28072"
       transform="matrix(0.26458333,0,0,0.26458333,69.350834,70.731659)" />
    <path
       style="font-variation-settings:normal;opacity:1;vector-effect:none;fill:none;fill-opacity:1;stroke-width:0.25;stroke-linecap:butt;stroke-linejoin:miter;stroke-miterlimit:4;stroke-dasharray:none;stroke-dashoffset:0;stroke-opacity:1;-inkscape-stroke:none;stop-color:#000000;stop-opacity:1"
       d="m 119.0918,110.02441 c -2.16978,1.03263 -0.59465,4.20388 -1.00731,6.14728 0.41737,13.40717 0.36895,26.89688 1.30223,40.24921 2.22964,1.34001 5.27534,-0.13115 7.7812,0.0767 35.06531,-2.97428 70.10836,-6.21318 105.1768,-9.14997 2.06301,-1.93198 0.32117,-5.81326 0.8474,-8.50648 -0.20553,-6.66859 0.14914,-13.46422 -0.40337,-20.05413 -2.91304,-1.3571 -6.8799,-0.66675 -10.18675,-1.2473 -34.50246,-2.492 -68.98498,-5.40331 -103.5102,-7.51534 z"
       id="path28111"
       transform="matrix(0.26458333,0,0,0.26458333,69.350834,70.731659)" />
    <path
       style="font-variation-settings:normal;opacity:1;vector-effect:none;fill:none;fill-opacity:1;stroke-width:0.25;stroke-linecap:butt;stroke-linejoin:miter;stroke-miterlimit:4;stroke-dasharray:none;stroke-dashoffset:0;stroke-opacity:1;-inkscape-stroke:none;stop-color:#000000;stop-opacity:1"
       d="m 115.02539,-0.26171875 c -1.38005,-0.1467832 -2.17225,1.45860515 -1.26758,2.44238275 1.3385,15.278127 2.24433,30.793467 2.68164,46.166992 -13.90194,5.610929 -28.022656,10.938109 -42.041989,16.391604 -1.404244,2.394555 0.07138,5.764725 -0.234622,8.561185 0.576405,12.81883 0.588295,25.672605 1.431887,38.475915 1.986532,1.67829 5.150082,0.21631 7.575065,0.63212 11.154542,-0.22465 22.302849,-0.7429 33.460089,-0.82645 0.67547,14.58409 1.12067,29.25768 1.35645,43.8916 -13.38083,-0.54968 -26.753044,-1.74144 -40.143557,-2.2959 -2.056672,1.26695 -0.531975,4.49766 -1.047569,6.54978 -0.02281,14.4484 -0.197982,28.91041 0.165733,43.35061 2.538583,2.12338 6.377899,2.31169 9.412285,3.67267 11.030506,3.62558 22.086258,7.17304 33.130688,10.75604 -0.0938,15.17372 0.53639,30.37309 -0.0752,45.53223 -2.69385,0.84415 0.46598,3.67545 2.17383,3.40625 1.78479,-0.33982 1.50159,-2.24711 0.93555,-3.40918 -0.45189,-15.12224 -0.0207,-30.35387 -0.042,-45.5166 37.31674,-11.95458 74.60828,-23.99818 111.95508,-35.8457 0.87364,2.3371 2.95637,-0.10102 2.19922,-1.6836 -1.52375,-2.44808 -5.24931,-1.41065 -7.66845,-2.03348 -9.65091,-0.74442 -19.30284,-1.23555 -28.93409,-2.12472 -0.51291,-8.20635 -0.008,-16.44751 -0.0566,-24.66602 11.15563,-1.125 22.48085,-1.7042 33.53199,-3.16589 1.1433,-3.00415 0.20782,-6.90354 0.56491,-10.24092 -0.16514,-6.60803 0.58116,-13.40507 -0.15842,-19.89397 -6.22817,-1.52892 -12.84888,-1.22788 -19.23212,-1.95576 -4.81586,-0.34613 -9.63171,-0.69225 -14.44757,-1.03838 0.0217,-4.57681 -0.35164,-9.14347 -0.60938,-13.70996 10.34477,-4.391265 20.65007,-8.87853 30.91114,-13.460935 1.55265,-2.654105 1.03678,-6.208975 1.75571,-9.203575 0.41144,-4.898 1.70568,-9.879935 1.51479,-14.72709 -0.93559,-1.090075 -4.44479,-3.02622 -4.29297,-0.248045 1.32728,1.46593 2.37215,2.59407 1.47464,4.795445 -0.84333,5.23175 -1.04448,11.37419 -2.33206,16.11276 C 192.19353,72.534995 155.71563,60.457285 119.39844,48.169922 118.43583,33.124898 117.36123,17.873109 116.81348,2.9394531 c 3.44208,-0.4610751 -0.0581,-3.60259205 -1.78809,-3.20117185 z M 85.287109,71.282225 c 37.272741,10.072045 74.572551,20.0616 111.830081,30.175785 0.25246,4.31964 0.4342,8.68057 0.64453,13.0205 -27.85737,-1.31579 -55.61833,-4.71224 -83.5127,-5.52246 -12.12967,0.27393 -24.249944,0.83478 -36.377927,1.13184 -0.542136,-13.711555 -0.896182,-27.425835 -1.239257,-41.149415 2.885091,0.78125 5.770182,1.5625 8.655273,2.34375 z m 34.467771,40.301755 c 37.24682,2.55968 74.56651,5.15969 111.73309,8.27264 0.58928,4.38149 -0.004,9.76327 0.13047,14.52905 -0.0366,3.81383 -0.0731,7.62765 -0.10965,11.44148 -36.9337,3.13429 -73.84518,6.75281 -110.79395,9.55468 -0.41706,-14.60498 -1.02786,-29.19899 -1.20507,-43.80957 z M 197.25,151.5 c -0.1705,8.24228 0.34748,16.6541 -0.3125,24.77246 -39.12605,8.12687 -78.28721,16.10346 -117.449219,24.03711 -0.391709,-14.91451 -0.182432,-29.83692 -0.238281,-44.75488 13.459041,1.06817 26.95118,2.15494 40.44531,2.46191 25.87026,-1.84681 51.74041,-4.46729 77.55469,-6.5166 z"
       id="path28150"
       transform="matrix(0.26458333,0,0,0.26458333,69.350834,70.731659)" />
    <path
       style="font-variation-settings:normal;opacity:0;vector-effect:none;fill:none;fill-opacity:1;stroke-width:0.25;stroke-linecap:butt;stroke-linejoin:miter;stroke-miterlimit:4;stroke-dasharray:none;stroke-dashoffset:0;stroke-opacity:1;-inkscape-stroke:none;stop-color:#000000;stop-opacity:1"
       d="m 234.52832,180.52051 c -25.0738,7.09587 -49.76666,15.51654 -74.62952,23.32532 -12.74904,4.07199 -25.48124,8.17231 -38.24353,12.19909 -1.72635,1.90462 -0.34741,5.09758 -0.84266,7.48131 -0.10554,13.52939 -0.0473,27.05935 -0.0626,40.589 1.60642,2.43543 4.50306,-1.72222 6.59424,-2.1799 36.42839,-21.17004 72.93596,-42.20505 109.35986,-63.3826 1.35236,-2.09932 -0.0647,-5.0518 0.14648,-7.43652 -0.59549,-3.36296 -0.0675,-7.23582 -1.50538,-10.30524 -0.15335,-0.30908 -0.52228,-0.32298 -0.81688,-0.29046 z"
       id="path28189"
       transform="matrix(0.26458333,0,0,0.26458333,69.350834,70.731659)" />
    <path
       style="font-variation-settings:normal;opacity:1;vector-effect:none;fill:none;fill-opacity:1;stroke-width:0.25;stroke-linecap:butt;stroke-linejoin:miter;stroke-miterlimit:4;stroke-dasharray:none;stroke-dashoffset:0;stroke-opacity:1;-inkscape-stroke:none;stop-color:#000000;stop-opacity:1"
       d="m 234.52832,180.52051 c -25.0738,7.09587 -49.76666,15.51654 -74.62952,23.32532 -12.74904,4.07199 -25.48124,8.17231 -38.24353,12.19909 -1.72635,1.90462 -0.34741,5.09758 -0.84266,7.48131 -0.10554,13.52939 -0.0473,27.05935 -0.0626,40.589 1.60642,2.43543 4.50306,-1.72222 6.59424,-2.1799 36.42839,-21.17004 72.93596,-42.20505 109.35986,-63.3826 1.35236,-2.09932 -0.0647,-5.0518 0.14648,-7.43652 -0.59549,-3.36296 -0.0675,-7.23582 -1.50538,-10.30524 -0.15335,-0.30908 -0.52228,-0.32298 -0.81688,-0.29046 z"
       id="path54096"
       transform="matrix(0.26458333,0,0,0.26458333,69.350834,70.731659)" />
    <path
       style="font-variation-settings:normal;opacity:1;vector-effect:none;fill:none;fill-opacity:1;stroke-width:0.25;stroke-linecap:butt;stroke-linejoin:miter;stroke-miterlimit:4;stroke-dasharray:none;stroke-dashoffset:0;stroke-opacity:1;-inkscape-stroke:none;stop-color:#000000;stop-opacity:1"
       d="M 114.50293,1.7226562 C 97.51503,11.157957 80.970965,21.484622 64.212535,31.359582 43.166629,44.047892 21.970043,56.502225 1.1396484,69.538085 c -1.08779622,2.46427 0.3581882,5.489175 0.3244352,8.12666 0.5311917,3.23969 0.668958,6.606785 1.6531039,9.74053 2.2651195,1.118985 4.979258,-0.97197 7.3906445,-1.11709 6.229911,-1.521025 12.377153,-3.4327 18.691387,-4.58213 1.077473,34.642925 1.998173,69.316925 2.793945,103.977535 -8.753924,-1.84442 -17.381977,-4.65302 -26.166992,-6.11133 -1.7884134,1.82442 -0.537202,5.03244 -0.9068285,7.36418 0.242473,6.21255 0.2160489,12.61694 1.363906,18.66184 11.1753395,6.37498 23.0057205,12.01541 34.4330755,18.10778 26.236905,13.57269 52.412205,27.26743 78.734845,40.67187 2.51613,0.19312 1.17688,-3.41379 1.63281,-4.84961 0.27229,-14.15029 0.12905,-28.30413 0.16602,-42.45606 -1.83786,-2.24007 -5.68185,-2.1063 -8.31103,-3.39877 -11.58652,-3.71971 -23.173115,-7.43914 -34.76026,-11.15689 0.0596,-15.94266 0.0051,-31.8864 0.2041,-47.82813 13.497885,0.53226 26.98056,2.18002 40.48438,2.1084 1.99281,-1.47618 0.19241,-4.87669 0.67643,-7.06148 -0.51485,-12.96568 -0.57586,-25.97408 -1.5319,-38.90922 -1.84245,-1.6394 -4.84235,-0.26931 -7.11524,-0.68164 -11.309325,0.19465 -22.610965,0.73122 -33.92187,0.83887 C 76.29645,95.99669 76.02622,81.002495 75.521485,66.004885 89.527475,60.56015 103.56631,55.19835 117.53711,49.664062 c 1.50193,-2.224974 -0.0157,-5.47479 0.3125,-8.077148 -0.704,-12.998074 -1.33149,-26.003241 -2.24414,-38.9882812 -0.25081,-0.5219149 -0.46049,-0.8856115 -1.10254,-0.8759766 z"
       id="path54135"
       transform="matrix(0.26458333,0,0,0.26458333,69.350834,70.731659)" />
    <path
       style="font-variation-settings:normal;opacity:1;vector-effect:none;fill:none;fill-opacity:1;stroke-width:0.25;stroke-linecap:butt;stroke-linejoin:miter;stroke-miterlimit:4;stroke-dasharray:none;stroke-dashoffset:0;stroke-opacity:1;-inkscape-stroke:none;stop-color:#000000;stop-opacity:1"
       d="m 119.0918,110.02441 c -2.16978,1.03263 -0.59465,4.20388 -1.00731,6.14728 0.41737,13.40717 0.36895,26.89688 1.30223,40.24921 2.22964,1.34001 5.27534,-0.13115 7.7812,0.0767 35.06531,-2.97428 70.10836,-6.21318 105.1768,-9.14997 2.06301,-1.93198 0.32117,-5.81326 0.8474,-8.50648 -0.20553,-6.66859 0.14914,-13.46422 -0.40337,-20.05413 -2.91304,-1.3571 -6.8799,-0.66675 -10.18675,-1.2473 -34.50246,-2.492 -68.98498,-5.40331 -103.5102,-7.51534 z"
       id="path54174"
       transform="matrix(0.26458333,0,0,0.26458333,69.350834,70.731659)" />
    <path
       style="font-variation-settings:normal;opacity:1;vector-effect:none;fill:none;fill-opacity:1;stroke-width:0.25;stroke-linecap:butt;stroke-linejoin:miter;stroke-miterlimit:4;stroke-dasharray:none;stroke-dashoffset:0;stroke-opacity:1;-inkscape-stroke:none;stop-color:#000000;stop-opacity:1"
       d="m 115.90332,1.8242187 c -1.37218,2.3612281 0.0493,5.5473998 -0.26855,8.1953123 0.70493,13.020847 1.19831,26.070454 2.29394,39.05957 4.5321,2.552375 10.05136,3.508229 14.95645,5.454629 31.96724,10.615175 63.83977,21.537455 95.93808,31.743615 2.35482,-0.68352 1.42391,-4.18554 2.1785,-6.05211 0.56771,-5.260415 1.88697,-10.59587 1.61154,-15.869765 -8.72413,-5.40991 -18.0932,-9.938735 -27.07323,-14.987161 C 175.96149,33.454597 146.47278,17.360202 116.72852,1.7626953 l -0.49862,0.037175 z"
       id="path54213"
       transform="matrix(0.26458333,0,0,0.26458333,69.350834,70.731659)" />
    <path
       style="font-variation-settings:normal;opacity:0.48511905;vector-effect:none;fill:#666666;fill-opacity:1;stroke-width:0.25;stroke-linecap:butt;stroke-linejoin:miter;stroke-miterlimit:4;stroke-dasharray:none;stroke-dashoffset:0;stroke-opacity:1;-inkscape-stroke:none;stop-color:#000000;stop-opacity:1"
       d="m 75.704101,67.96582 c -0.977428,3.63707 -0.0522,7.718837 -0.273291,11.507599 0.323863,10.423673 0.29339,20.892691 1.118994,31.281461 1.984719,1.61798 5.080269,0.20448 7.47168,0.62403 13.316399,-0.0716 26.647136,-1.11341 39.948076,-0.75574 24.56822,1.76429 49.10683,4.10643 73.70485,5.36454 3.35744,-0.30569 0.82895,-5.23352 1.36731,-7.53144 -0.55223,-2.67048 0.43874,-6.0175 -1.15989,-8.29611 -39.8443,-11.098324 -79.8433,-21.671148 -119.865229,-32.120121 -0.786617,-0.14767 -1.54874,-0.571854 -2.3125,-0.07422 z"
       id="path54252"
       transform="matrix(0.26458333,0,0,0.26458333,69.350834,70.731659)" />
    <path
       style="font-variation-settings:normal;opacity:1;vector-effect:none;fill:none;fill-opacity:1;stroke-width:0.25;stroke-linecap:butt;stroke-linejoin:miter;stroke-miterlimit:4;stroke-dasharray:none;stroke-dashoffset:0;stroke-opacity:1;-inkscape-stroke:none;stop-color:#000000;stop-opacity:1"
       d="m 196.49511,150.00195 c -26.3416,2.02968 -52.65141,4.94127 -78.99475,6.5513 -13.02216,-0.5937 -26.166204,-1.78806 -39.129334,-2.46556 -1.410123,2.37304 -0.235974,5.98375 -0.621026,8.83223 0.139641,12.86591 -0.277895,25.85253 0.206946,38.64364 1.987262,1.14884 4.840301,-0.72352 7.163171,-0.7745 37.606243,-7.70016 75.219163,-15.36763 112.830073,-23.04492 1.83852,-2.10547 0.29119,-5.77337 0.79981,-8.47949 -0.22576,-6.31536 0.45475,-12.82708 -0.34278,-19.01856 -0.59117,-0.36149 -1.25961,-0.22591 -1.91211,-0.24414 z"
       id="path55623"
       transform="matrix(0.26458333,0,0,0.26458333,69.350834,70.731659)" />
    <path
       style="font-variation-settings:normal;opacity:0.48511905;vector-effect:none;fill:#b3b3b3;fill-opacity:1;stroke-width:0.25;stroke-linecap:butt;stroke-linejoin:miter;stroke-miterlimit:4;stroke-dasharray:none;stroke-dashoffset:0;stroke-opacity:1;-inkscape-stroke:none;stop-color:#000000;stop-opacity:1"
       d="m 196.49511,150.00195 c -26.3416,2.02968 -52.65141,4.94127 -78.99475,6.5513 -13.02216,-0.5937 -26.166204,-1.78806 -39.129334,-2.46556 -1.410123,2.37304 -0.235974,5.98375 -0.621026,8.83223 0.139641,12.86591 -0.277895,25.85253 0.206946,38.64364 1.987262,1.14884 4.840301,-0.72352 7.163171,-0.7745 37.606243,-7.70016 75.219163,-15.36763 112.830073,-23.04492 1.83852,-2.10547 0.29119,-5.77337 0.79981,-8.47949 -0.22576,-6.31536 0.45475,-12.82708 -0.34278,-19.01856 -0.59117,-0.36149 -1.25961,-0.22591 -1.91211,-0.24414 z"
       id="path55662"
       transform="matrix(0.26458333,0,0,0.26458333,69.350834,70.731659)" />
    <path
       style="font-variation-settings:normal;opacity:1;vector-effect:none;fill:#000080;fill-opacity:1;stroke-width:0.25;stroke-linecap:butt;stroke-linejoin:miter;stroke-miterlimit:4;stroke-dasharray:none;stroke-dashoffset:0;stroke-opacity:1;-inkscape-stroke:none;stop-color:#000000;stop-opacity:1"
       d="M 114.50293,1.7226562 C 97.51503,11.157957 80.970965,21.484622 64.212535,31.359582 43.166629,44.047892 21.970043,56.502225 1.1396484,69.538085 c -1.08779622,2.46427 0.3581882,5.489175 0.3244352,8.12666 0.5311917,3.23969 0.668958,6.606785 1.6531039,9.74053 2.2651195,1.118985 4.979258,-0.97197 7.3906445,-1.11709 6.229911,-1.521025 12.377153,-3.4327 18.691387,-4.58213 1.077473,34.642925 1.998173,69.316925 2.793945,103.977535 -8.753924,-1.84442 -17.381977,-4.65302 -26.166992,-6.11133 -1.7884134,1.82442 -0.537202,5.03244 -0.9068285,7.36418 0.242473,6.21255 0.2160489,12.61694 1.363906,18.66184 11.1753395,6.37498 23.0057205,12.01541 34.4330755,18.10778 26.236905,13.57269 52.412205,27.26743 78.734845,40.67187 2.51613,0.19312 1.17688,-3.41379 1.63281,-4.84961 0.27229,-14.15029 0.12905,-28.30413 0.16602,-42.45606 -1.83786,-2.24007 -5.68185,-2.1063 -8.31103,-3.39877 -11.58652,-3.71971 -23.173115,-7.43914 -34.76026,-11.15689 0.0596,-15.94266 0.0051,-31.8864 0.2041,-47.82813 13.497885,0.53226 26.98056,2.18002 40.48438,2.1084 1.99281,-1.47618 0.19241,-4.87669 0.67643,-7.06148 -0.51485,-12.96568 -0.57586,-25.97408 -1.5319,-38.90922 -1.84245,-1.6394 -4.84235,-0.26931 -7.11524,-0.68164 -11.309325,0.19465 -22.610965,0.73122 -33.92187,0.83887 C 76.29645,95.99669 76.02622,81.002495 75.521485,66.004885 89.527475,60.56015 103.56631,55.19835 117.53711,49.664062 c 1.50193,-2.224974 -0.0157,-5.47479 0.3125,-8.077148 -0.704,-12.998074 -1.33149,-26.003241 -2.24414,-38.9882812 -0.25081,-0.5219149 -0.46049,-0.8856115 -1.10254,-0.8759766 z"
       id="path59956"
       transform="matrix(0.26458333,0,0,0.26458333,69.350834,70.731659)" />
    <path
       style="font-variation-settings:normal;opacity:1;vector-effect:none;fill:#00ffff;fill-opacity:1;stroke-width:0.25;stroke-linecap:butt;stroke-linejoin:miter;stroke-miterlimit:4;stroke-dasharray:none;stroke-dashoffset:0;stroke-opacity:1;-inkscape-stroke:none;stop-color:#000000;stop-opacity:1"
       d="m 115.90332,1.8242187 c -1.37218,2.3612281 0.0493,5.5473998 -0.26855,8.1953123 0.70493,13.020847 1.19831,26.070454 2.29394,39.05957 4.5321,2.552375 10.05136,3.508229 14.95645,5.454629 31.96724,10.615175 63.83977,21.537455 95.93808,31.743615 2.35482,-0.68352 1.42391,-4.18554 2.1785,-6.05211 0.56771,-5.260415 1.88697,-10.59587 1.61154,-15.869765 -8.72413,-5.40991 -18.0932,-9.938735 -27.07323,-14.987161 C 175.96149,33.454597 146.47278,17.360202 116.72852,1.7626953 l -0.49862,0.037175 z"
       id="path60032"
       transform="matrix(0.26458333,0,0,0.26458333,69.350834,70.731659)" />
    <path
       style="font-variation-settings:normal;opacity:1;vector-effect:none;fill:#00ffff;fill-opacity:1;stroke-width:0.25;stroke-linecap:butt;stroke-linejoin:miter;stroke-miterlimit:4;stroke-dasharray:none;stroke-dashoffset:0;stroke-opacity:1;-inkscape-stroke:none;stop-color:#000000;stop-opacity:1"
       d="m 119.0918,110.02441 c -2.16978,1.03263 -0.59465,4.20388 -1.00731,6.14728 0.41737,13.40717 0.36895,26.89688 1.30223,40.24921 2.22964,1.34001 5.27534,-0.13115 7.7812,0.0767 35.06531,-2.97428 70.10836,-6.21318 105.1768,-9.14997 2.06301,-1.93198 0.32117,-5.81326 0.8474,-8.50648 -0.20553,-6.66859 0.14914,-13.46422 -0.40337,-20.05413 -2.91304,-1.3571 -6.8799,-0.66675 -10.18675,-1.2473 -34.50246,-2.492 -68.98498,-5.40331 -103.5102,-7.51534 z"
       id="path60108"
       transform="matrix(0.26458333,0,0,0.26458333,69.350834,70.731659)" />
    <path
       style="font-variation-settings:normal;opacity:1;vector-effect:none;fill:#00ffff;fill-opacity:1;stroke-width:0.25;stroke-linecap:butt;stroke-linejoin:miter;stroke-miterlimit:4;stroke-dasharray:none;stroke-dashoffset:0;stroke-opacity:1;-inkscape-stroke:none;stop-color:#000000;stop-opacity:1"
       d="m 234.52832,180.52051 c -25.0738,7.09587 -49.76666,15.51654 -74.62952,23.32532 -12.74904,4.07199 -25.48124,8.17231 -38.24353,12.19909 -1.72635,1.90462 -0.34741,5.09758 -0.84266,7.48131 -0.10554,13.52939 -0.0473,27.05935 -0.0626,40.589 1.60642,2.43543 4.50306,-1.72222 6.59424,-2.1799 36.42839,-21.17004 72.93596,-42.20505 109.35986,-63.3826 1.35236,-2.09932 -0.0647,-5.0518 0.14648,-7.43652 -0.59549,-3.36296 -0.0675,-7.23582 -1.50538,-10.30524 -0.15335,-0.30908 -0.52228,-0.32298 -0.81688,-0.29046 z"
       id="path60184"
       transform="matrix(0.26458333,0,0,0.26458333,69.350834,70.731659)" />
  </g>
</svg>
