<?xml version="1.0" encoding="UTF-8" standalone="no"?>
<!-- Created with Inkscape (http://www.inkscape.org/) -->

<svg
   width="62.895885mm"
   height="70.304825mm"
   viewBox="0 0 62.895885 70.304825"
   version="1.1"
   id="svg5"
   sodipodi:docname="favicon.svg"
   inkscape:version="1.1 (c68e22c387, 2021-05-23)"
   xmlns:inkscape="http://www.inkscape.org/namespaces/inkscape"
   xmlns:sodipodi="http://sodipodi.sourceforge.net/DTD/sodipodi-0.dtd"
   xmlns="http://www.w3.org/2000/svg"
   xmlns:svg="http://www.w3.org/2000/svg">
  <sodipodi:namedview
     id="namedview7"
     pagecolor="#ffffff"
     bordercolor="#666666"
     borderopacity="1.0"
     inkscape:pageshadow="2"
     inkscape:pageopacity="0.0"
     inkscape:pagecheckerboard="0"
     inkscape:document-units="mm"
     showgrid="false"
     inkscape:object-nodes="true"
     inkscape:snap-nodes="false"
     inkscape:snap-midpoints="true"
     inkscape:object-paths="true"
     inkscape:snap-smooth-nodes="true"
     inkscape:snap-intersection-paths="true"
     inkscape:zoom="1.4142136"
     inkscape:cx="246.42671"
     inkscape:cy="100.76272"
     inkscape:window-width="1920"
     inkscape:window-height="1001"
     inkscape:window-x="-9"
     inkscape:window-y="-9"
     inkscape:window-maximized="1"
     inkscape:current-layer="layer1"
     inkscape:snap-others="false"
     inkscape:snap-global="false" />
  <defs
     id="defs2" />
  <g
     inkscape:label="Capa 1"
     inkscape:groupmode="layer"
     id="layer1"
     transform="translate(-69.350834,-70.731659)">
    <path
       style="fill:none;stroke:#000000;stroke-width:0.264583px;stroke-linecap:butt;stroke-linejoin:miter;stroke-opacity:1;opacity:0.84"
       d="m 101.3165,140.81896 -30.358373,-15.72783 -0.365762,-6.9495 7.31527,1.82881 -0.731527,-27.798026 -6.949507,1.828818 -0.731527,-4.754927 30.358374,-18.288177 0.731532,12.801724 -11.338675,4.389163 0.365764,12.070195 10.972911,-0.365762 0.36576,12.435962 -10.972907,-0.73153 v 12.80173 l 11.338667,3.65763 z"
       id="path451" />
    <path
       style="fill:none;stroke:#000000;stroke-width:0.264583px;stroke-linecap:butt;stroke-linejoin:miter;stroke-opacity:1;opacity:0.84"
       d="m 99.853447,70.958127 31.089903,16.825124 -0.73153,5.852217 -29.62684,-9.875616"
       id="path1170" />
    <path
       style="fill:none;stroke:#000000;stroke-width:0.264583px;stroke-linecap:butt;stroke-linejoin:miter;stroke-opacity:1;opacity:0.84"
       d="m 130.21182,93.635466 -8.41256,3.657637 -32.552955,-8.778325"
       id="path1172" />
    <path
       style="fill:none;stroke:#000000;stroke-width:0.264583px;stroke-linecap:butt;stroke-linejoin:miter;stroke-opacity:1;opacity:0.84"
       d="m 100.58498,100.58498 v -0.36577"
       id="path1174" />
    <path
       style="fill:none;stroke:#000000;stroke-width:0.268087px;stroke-linecap:butt;stroke-linejoin:miter;stroke-opacity:1;opacity:0.84"
       d="m 100.22046,99.855724 h 0.73147 l 29.99019,2.253286 v 7.51094 l -29.99019,2.62884"
       id="path1257" />
    <path
       style="fill:none;stroke:#000000;stroke-width:0.264583px;stroke-linecap:butt;stroke-linejoin:miter;stroke-opacity:1;opacity:0.84"
       d="m 121.93116,110.32868 v 7.31528 l -32.187188,6.58374"
       id="path1265" />
    <path
       style="fill:none;stroke:#000000;stroke-width:0.258527px;stroke-linecap:butt;stroke-linejoin:miter;stroke-opacity:1;opacity:0.84"
       d="m 121.8445,117.60406 9.89827,0.69682 -30.42802,9.75556"
       id="path1269" />
    <path
       style="fill:none;stroke:#000000;stroke-width:0.259113px;stroke-linecap:butt;stroke-linejoin:miter;stroke-opacity:1;opacity:0.84"
       d="m 101.36601,140.92131 30.74415,-17.80794 -0.44448,-4.85914"
       id="path1273"
       sodipodi:nodetypes="ccc" />
    <path
       style="fill:none;stroke:#000000;stroke-width:0.245296px;stroke-linecap:butt;stroke-linejoin:miter;stroke-opacity:1;opacity:0.84"
       d="m 70.197691,94.045963 7.162613,3.210821"
       id="path1503" />
    <path
       style="fill:none;stroke:#000000;stroke-width:0.264349px;stroke-linecap:butt;stroke-linejoin:miter;stroke-opacity:1;opacity:0.84"
       d="m 70.498354,118.11932 7.409747,-1.44184"
       id="path1507" />
    <path
       style="fill:none;stroke:#000000;stroke-width:0.264583px;stroke-linecap:butt;stroke-linejoin:miter;stroke-opacity:1;opacity:0.84"
       d="m 121.84147,97.332878 h 0.0468 l 0.0935,4.022412"
       id="path23399" />
    <path
       style="fill:#000000;stroke-width:0.125;opacity:0.84"
       d="m 117.73755,48.892334 c -13.49424,5.253848 -27.034286,10.391291 -40.492518,15.736608 -0.880399,0.463937 -2.416967,0.679965 -2.428138,1.936243 0.151294,1.1954 1.619433,1.22452 2.502498,1.581541 14.81546,4.16961 29.700918,8.086783 44.552228,12.12616 25.27775,6.804014 50.53864,13.672095 75.84935,20.352504 1.10567,0.24475 2.0762,-0.61883 3.09695,-0.916467 9.29844,-3.998802 18.60179,-7.991588 27.82197,-12.167663 0.93965,-0.421316 0.61797,-1.862229 -0.3645,-1.978028 -36.59248,-12.311971 -73.2396,-24.460733 -109.86084,-36.687011 -0.22335,0.01484 -0.46319,-0.06333 -0.677,0.01611 z"
       id="path25307"
       transform="matrix(0.26458333,0,0,0.26458333,69.350834,70.731659)" />
    <path
       style="fill:#000000;stroke-width:0.125;opacity:0.84"
       d="m 199.11157,176.77881 c -40.02297,8.19841 -80.05999,16.32923 -120.068601,24.59668 -0.988648,0.21983 -0.974094,1.7254 -0.01636,1.97485 8.090258,2.83579 16.282934,5.37327 24.429821,8.0415 5.80777,1.85421 11.59701,3.77221 17.4298,5.54468 1.51913,-0.16647 2.94013,-0.88235 4.41988,-1.26588 35.93948,-11.49136 71.87799,-22.98701 107.78764,-34.57128 1.02581,-0.36999 0.69685,-1.9707 -0.36279,-1.95898 -11.15409,-0.83423 -22.31604,-1.61002 -33.47361,-2.37118 l -0.12473,0.008 z"
       id="path25346"
       transform="matrix(0.26458333,0,0,0.26458333,69.350834,70.731659)" />
    <path
       style="fill:#000000;stroke-width:0.5;opacity:0.84"
       d="m 27.895508,81.165039 c -7.378953,2.243962 -15.089867,3.535978 -22.2998049,6.251953 -1.9215479,2.06548 2.0378197,2.954254 3.2926734,3.583037 6.7464985,2.873706 13.3804175,6.297738 20.2034115,8.817332 1.854785,-1.133564 0.732625,-4.322927 1.126962,-6.352517 -0.256797,-3.96213 0.296042,-8.324487 -1.342774,-12.003907 -0.253474,-0.247574 -0.629074,-0.370135 -0.980468,-0.295898 z"
       id="path25385"
       transform="matrix(0.26458333,0,0,0.26458333,69.350834,70.731659)" />
    <path
       style="fill:#000000;stroke-width:0.5;opacity:0.84"
       d="m 31.060547,173.66016 c -8.021987,1.68408 -16.260387,2.85308 -24.1516972,4.83807 -0.8466171,2.88184 4.7416702,2.13812 6.6488592,3.26331 5.970338,1.33993 11.867663,3.36617 17.921783,4.16326 2.499051,-1.09641 0.473808,-4.45002 0.824219,-6.47265 -0.478327,-1.75465 1.006187,-5.34463 -1.243164,-5.79199 z"
       id="path25424"
       transform="matrix(0.26458333,0,0,0.26458333,69.350834,70.731659)" />
    <path
       style="font-variation-settings:normal;opacity:0.84;vector-effect:none;fill:none;fill-opacity:1;stroke-width:0.25;stroke-linecap:butt;stroke-linejoin:miter;stroke-miterlimit:4;stroke-dasharray:none;stroke-dashoffset:0;stroke-opacity:1;-inkscape-stroke:none;stop-color:#000000;stop-opacity:1"
       d="M 114.50293,1.7226562 C 97.51503,11.157957 80.970965,21.484622 64.212535,31.359582 43.166629,44.047892 21.970043,56.502225 1.1396484,69.538085 c -1.08779622,2.46427 0.3581882,5.489175 0.3244352,8.12666 0.5311917,3.23969 0.668958,6.606785 1.6531039,9.74053 2.2651195,1.118985 4.979258,-0.97197 7.3906445,-1.11709 6.229911,-1.521025 12.377153,-3.4327 18.691387,-4.58213 1.077473,34.642925 1.998173,69.316925 2.793945,103.977535 -8.753924,-1.84442 -17.381977,-4.65302 -26.166992,-6.11133 -1.7884134,1.82442 -0.537202,5.03244 -0.9068285,7.36418 0.242473,6.21255 0.2160489,12.61694 1.363906,18.66184 11.1753395,6.37498 23.0057205,12.01541 34.4330755,18.10778 26.236905,13.57269 52.412205,27.26743 78.734845,40.67187 2.51613,0.19312 1.17688,-3.41379 1.63281,-4.84961 0.27229,-14.15029 0.12905,-28.30413 0.16602,-42.45606 -1.83786,-2.24007 -5.68185,-2.1063 -8.31103,-3.39877 -11.58652,-3.71971 -23.173115,-7.43914 -34.76026,-11.15689 0.0596,-15.94266 0.0051,-31.8864 0.2041,-47.82813 13.497885,0.53226 26.98056,2.18002 40.48438,2.1084 1.99281,-1.47618 0.19241,-4.87669 0.67643,-7.06148 -0.51485,-12.96568 -0.57586,-25.97408 -1.5319,-38.90922 -1.84245,-1.6394 -4.84235,-0.26931 -7.11524,-0.68164 -11.309325,0.19465 -22.610965,0.73122 -33.92187,0.83887 C 76.29645,95.99669 76.02622,81.002495 75.521485,66.004885 89.527475,60.56015 103.56631,55.19835 117.53711,49.664062 c 1.50193,-2.224974 -0.0157,-5.47479 0.3125,-8.077148 -0.704,-12.998074 -1.33149,-26.003241 -2.24414,-38.9882812 -0.25081,-0.5219149 -0.46049,-0.8856115 -1.10254,-0.8759766 z"
       id="path27762"
       transform="matrix(0.26458333,0,0,0.26458333,69.350834,70.731659)" />
    <path
       style="font-variation-settings:normal;opacity:0.84;vector-effect:none;fill:none;fill-opacity:1;stroke-width:0.25;stroke-linecap:butt;stroke-linejoin:miter;stroke-miterlimit:4;stroke-dasharray:none;stroke-dashoffset:0;stroke-opacity:1;-inkscape-stroke:none;stop-color:#000000;stop-opacity:1"
       d="m 115.90332,1.8242187 c -1.37218,2.3612281 0.0493,5.5473998 -0.26855,8.1953123 0.70493,13.020847 1.19831,26.070454 2.29394,39.05957 4.5321,2.552375 10.05136,3.508229 14.95645,5.454629 31.96724,10.615175 63.83977,21.537455 95.93808,31.743615 2.35482,-0.68352 1.42391,-4.18554 2.1785,-6.05211 0.56771,-5.260415 1.88697,-10.59587 1.61154,-15.869765 -8.72413,-5.40991 -18.0932,-9.938735 -27.07323,-14.987161 C 175.96149,33.454597 146.47278,17.360202 116.72852,1.7626953 l -0.49862,0.037175 z"
       id="path27801"
       transform="matrix(0.26458333,0,0,0.26458333,69.350834,70.731659)" />
    <path
       style="font-variation-settings:normal;opacity:0.84;vector-effect:none;fill:none;fill-opacity:1;stroke-width:0.25;stroke-linecap:butt;stroke-linejoin:miter;stroke-miterlimit:4;stroke-dasharray:none;stroke-dashoffset:0;stroke-opacity:1;-inkscape-stroke:none;stop-color:#000000;stop-opacity:1"
       d="m 234.52832,180.52051 c -25.0738,7.09587 -49.76666,15.51654 -74.62952,23.32532 -12.74904,4.07199 -25.48124,8.17231 -38.24353,12.19909 -1.72635,1.90462 -0.34741,5.09758 -0.84266,7.48131 -0.10554,13.52939 -0.0473,27.05935 -0.0626,40.589 1.60642,2.43543 4.50306,-1.72222 6.59424,-2.1799 36.42839,-21.17004 72.93596,-42.20505 109.35986,-63.3826 1.35236,-2.09932 -0.0647,-5.0518 0.14648,-7.43652 -0.59549,-3.36296 -0.0675,-7.23582 -1.50538,-10.30524 -0.15335,-0.30908 -0.52228,-0.32298 -0.81688,-0.29046 z"
       id="path27840"
       transform="matrix(0.26458333,0,0,0.26458333,69.350834,70.731659)" />
    <path
       style="font-variation-settings:normal;opacity:0.84;vector-effect:none;fill:none;fill-opacity:1;stroke-width:0.25;stroke-linecap:butt;stroke-linejoin:miter;stroke-miterlimit:4;stroke-dasharray:none;stroke-dashoffset:0;stroke-opacity:1;-inkscape-stroke:none;stop-color:#000000;stop-opacity:1"
       d="m 234.52832,180.52051 c -25.0738,7.09587 -49.76666,15.51654 -74.62952,23.32532 -12.74904,4.07199 -25.48124,8.17231 -38.24353,12.19909 -1.72635,1.90462 -0.34741,5.09758 -0.84266,7.48131 -0.10554,13.52939 -0.0473,27.05935 -0.0626,40.589 1.60642,2.43543 4.50306,-1.72222 6.59424,-2.1799 36.42839,-21.17004 72.93596,-42.20505 109.35986,-63.3826 1.35236,-2.09932 -0.0647,-5.0518 0.14648,-7.43652 -0.59549,-3.36296 -0.0675,-7.23582 -1.50538,-10.30524 -0.15335,-0.30908 -0.52228,-0.32298 -0.81688,-0.29046 z"
       id="path27916"
       transform="matrix(0.26458333,0,0,0.26458333,69.350834,70.731659)" />
    <path
       style="font-variation-settings:normal;opacity:0.84;vector-effect:none;fill:none;fill-opacity:1;stroke-width:0.25;stroke-linecap:butt;stroke-linejoin:miter;stroke-miterlimit:4;stroke-dasharray:none;stroke-dashoffset:0;stroke-opacity:1;-inkscape-stroke:none;stop-color:#000000;stop-opacity:1"
       d="M 114.50293,1.7226562 C 97.51503,11.157957 80.970965,21.484622 64.212535,31.359582 43.166629,44.047892 21.970043,56.502225 1.1396484,69.538085 c -1.08779622,2.46427 0.3581882,5.489175 0.3244352,8.12666 0.5311917,3.23969 0.668958,6.606785 1.6531039,9.74053 2.2651195,1.118985 4.979258,-0.97197 7.3906445,-1.11709 6.229911,-1.521025 12.377153,-3.4327 18.691387,-4.58213 1.077473,34.642925 1.998173,69.316925 2.793945,103.977535 -8.753924,-1.84442 -17.381977,-4.65302 -26.166992,-6.11133 -1.7884134,1.82442 -0.537202,5.03244 -0.9068285,7.36418 0.242473,6.21255 0.2160489,12.61694 1.363906,18.66184 11.1753395,6.37498 23.0057205,12.01541 34.4330755,18.10778 26.236905,13.57269 52.412205,27.26743 78.734845,40.67187 2.51613,0.19312 1.17688,-3.41379 1.63281,-4.84961 0.27229,-14.15029 0.12905,-28.30413 0.16602,-42.45606 -1.83786,-2.24007 -5.68185,-2.1063 -8.31103,-3.39877 -11.58652,-3.71971 -23.173115,-7.43914 -34.76026,-11.15689 0.0596,-15.94266 0.0051,-31.8864 0.2041,-47.82813 13.497885,0.53226 26.98056,2.18002 40.48438,2.1084 1.99281,-1.47618 0.19241,-4.87669 0.67643,-7.06148 -0.51485,-12.96568 -0.57586,-25.97408 -1.5319,-38.90922 -1.84245,-1.6394 -4.84235,-0.26931 -7.11524,-0.68164 -11.309325,0.19465 -22.610965,0.73122 -33.92187,0.83887 C 76.29645,95.99669 76.02622,81.002495 75.521485,66.004885 89.527475,60.56015 103.56631,55.19835 117.53711,49.664062 c 1.50193,-2.224974 -0.0157,-5.47479 0.3125,-8.077148 -0.704,-12.998074 -1.33149,-26.003241 -2.24414,-38.9882812 -0.25081,-0.5219149 -0.46049,-0.8856115 -1.10254,-0.8759766 z"
       id="path27955"
       transform="matrix(0.26458333,0,0,0.26458333,69.350834,70.731659)" />
    <path
       style="font-variation-settings:normal;opacity:0.84;vector-effect:none;fill:none;fill-opacity:1;stroke-width:0.25;stroke-linecap:butt;stroke-linejoin:miter;stroke-miterlimit:4;stroke-dasharray:none;stroke-dashoffset:0;stroke-opacity:1;-inkscape-stroke:none;stop-color:#000000;stop-opacity:1"
       d="m 119.0918,110.02441 c -2.16978,1.03263 -0.59465,4.20388 -1.00731,6.14728 0.41737,13.40717 0.36895,26.89688 1.30223,40.24921 2.22964,1.34001 5.27534,-0.13115 7.7812,0.0767 35.06531,-2.97428 70.10836,-6.21318 105.1768,-9.14997 2.06301,-1.93198 0.32117,-5.81326 0.8474,-8.50648 -0.20553,-6.66859 0.14914,-13.46422 -0.40337,-20.05413 -2.91304,-1.3571 -6.8799,-0.66675 -10.18675,-1.2473 -34.50246,-2.492 -68.98498,-5.40331 -103.5102,-7.51534 z"
       id="path27994"
       transform="matrix(0.26458333,0,0,0.26458333,69.350834,70.731659)" />
    <path
       style="font-variation-settings:normal;opacity:0.84;vector-effect:none;fill:none;fill-opacity:1;stroke-width:0.25;stroke-linecap:butt;stroke-linejoin:miter;stroke-miterlimit:4;stroke-dasharray:none;stroke-dashoffset:0;stroke-opacity:1;-inkscape-stroke:none;stop-color:#000000;stop-opacity:1"
       d="m 115.90332,1.8242187 c -1.37218,2.3612281 0.0493,5.5473998 -0.26855,8.1953123 0.70493,13.020847 1.19831,26.070454 2.29394,39.05957 4.5321,2.552375 10.05136,3.508229 14.95645,5.454629 31.96724,10.615175 63.83977,21.537455 95.93808,31.743615 2.35482,-0.68352 1.42391,-4.18554 2.1785,-6.05211 0.56771,-5.260415 1.88697,-10.59587 1.61154,-15.869765 -8.72413,-5.40991 -18.0932,-9.938735 -27.07323,-14.987161 C 175.96149,33.454597 146.47278,17.360202 116.72852,1.7626953 l -0.49862,0.037175 z"
       id="path28033"
       transform="matrix(0.26458333,0,0,0.26458333,69.350834,70.731659)" />
    <path
       style="font-variation-settings:normal;opacity:0.84;vector-effect:none;fill:none;fill-opacity:1;stroke-width:0.25;stroke-linecap:butt;stroke-linejoin:miter;stroke-miterlimit:4;stroke-dasharray:none;stroke-dashoffset:0;stroke-opacity:1;-inkscape-stroke:none;stop-color:#000000;stop-opacity:1"
       d="M 114.50293,1.7226562 C 97.51503,11.157957 80.970965,21.484622 64.212535,31.359582 43.166629,44.047892 21.970043,56.502225 1.1396484,69.538085 c -1.08779622,2.46427 0.3581882,5.489175 0.3244352,8.12666 0.5311917,3.23969 0.668958,6.606785 1.6531039,9.74053 2.2651195,1.118985 4.979258,-0.97197 7.3906445,-1.11709 6.229911,-1.521025 12.377153,-3.4327 18.691387,-4.58213 1.077473,34.642925 1.998173,69.316925 2.793945,103.977535 -8.753924,-1.84442 -17.381977,-4.65302 -26.166992,-6.11133 -1.7884134,1.82442 -0.537202,5.03244 -0.9068285,7.36418 0.242473,6.21255 0.2160489,12.61694 1.363906,18.66184 11.1753395,6.37498 23.0057205,12.01541 34.4330755,18.10778 26.236905,13.57269 52.412205,27.26743 78.734845,40.67187 2.51613,0.19312 1.17688,-3.41379 1.63281,-4.84961 0.27229,-14.15029 0.12905,-28.30413 0.16602,-42.45606 -1.83786,-2.24007 -5.68185,-2.1063 -8.31103,-3.39877 -11.58652,-3.71971 -23.173115,-7.43914 -34.76026,-11.15689 0.0596,-15.94266 0.0051,-31.8864 0.2041,-47.82813 13.497885,0.53226 26.98056,2.18002 40.48438,2.1084 1.99281,-1.47618 0.19241,-4.87669 0.67643,-7.06148 -0.51485,-12.96568 -0.57586,-25.97408 -1.5319,-38.90922 -1.84245,-1.6394 -4.84235,-0.26931 -7.11524,-0.68164 -11.309325,0.19465 -22.610965,0.73122 -33.92187,0.83887 C 76.29645,95.99669 76.02622,81.002495 75.521485,66.004885 89.527475,60.56015 103.56631,55.19835 117.53711,49.664062 c 1.50193,-2.224974 -0.0157,-5.47479 0.3125,-8.077148 -0.704,-12.998074 -1.33149,-26.003241 -2.24414,-38.9882812 -0.25081,-0.5219149 -0.46049,-0.8856115 -1.10254,-0.8759766 z"
       id="path28072"
       transform="matrix(0.26458333,0,0,0.26458333,69.350834,70.731659)" />
    <path
       style="font-variation-settings:normal;opacity:0.84;vector-effect:none;fill:none;fill-opacity:1;stroke-width:0.25;stroke-linecap:butt;stroke-linejoin:miter;stroke-miterlimit:4;stroke-dasharray:none;stroke-dashoffset:0;stroke-opacity:1;-inkscape-stroke:none;stop-color:#000000;stop-opacity:1"
       d="m 119.0918,110.02441 c -2.16978,1.03263 -0.59465,4.20388 -1.00731,6.14728 0.41737,13.40717 0.36895,26.89688 1.30223,40.24921 2.22964,1.34001 5.27534,-0.13115 7.7812,0.0767 35.06531,-2.97428 70.10836,-6.21318 105.1768,-9.14997 2.06301,-1.93198 0.32117,-5.81326 0.8474,-8.50648 -0.20553,-6.66859 0.14914,-13.46422 -0.40337,-20.05413 -2.91304,-1.3571 -6.8799,-0.66675 -10.18675,-1.2473 -34.50246,-2.492 -68.98498,-5.40331 -103.5102,-7.51534 z"
       id="path28111"
       transform="matrix(0.26458333,0,0,0.26458333,69.350834,70.731659)" />
    <path
       style="font-variation-settings:normal;opacity:0.84;vector-effect:none;fill:none;fill-opacity:1;stroke-width:0.25;stroke-linecap:butt;stroke-linejoin:miter;stroke-miterlimit:4;stroke-dasharray:none;stroke-dashoffset:0;stroke-opacity:1;-inkscape-stroke:none;stop-color:#000000;stop-opacity:1"
       d="m 115.02539,-0.26171875 c -1.38005,-0.1467832 -2.17225,1.45860515 -1.26758,2.44238275 1.3385,15.278127 2.24433,30.793467 2.68164,46.166992 -13.90194,5.610929 -28.022656,10.938109 -42.041989,16.391604 -1.404244,2.394555 0.07138,5.764725 -0.234622,8.561185 0.576405,12.81883 0.588295,25.672605 1.431887,38.475915 1.986532,1.67829 5.150082,0.21631 7.575065,0.63212 11.154542,-0.22465 22.302849,-0.7429 33.460089,-0.82645 0.67547,14.58409 1.12067,29.25768 1.35645,43.8916 -13.38083,-0.54968 -26.753044,-1.74144 -40.143557,-2.2959 -2.056672,1.26695 -0.531975,4.49766 -1.047569,6.54978 -0.02281,14.4484 -0.197982,28.91041 0.165733,43.35061 2.538583,2.12338 6.377899,2.31169 9.412285,3.67267 11.030506,3.62558 22.086258,7.17304 33.130688,10.75604 -0.0938,15.17372 0.53639,30.37309 -0.0752,45.53223 -2.69385,0.84415 0.46598,3.67545 2.17383,3.40625 1.78479,-0.33982 1.50159,-2.24711 0.93555,-3.40918 -0.45189,-15.12224 -0.0207,-30.35387 -0.042,-45.5166 37.31674,-11.95458 74.60828,-23.99818 111.95508,-35.8457 0.87364,2.3371 2.95637,-0.10102 2.19922,-1.6836 -1.52375,-2.44808 -5.24931,-1.41065 -7.66845,-2.03348 -9.65091,-0.74442 -19.30284,-1.23555 -28.93409,-2.12472 -0.51291,-8.20635 -0.008,-16.44751 -0.0566,-24.66602 11.15563,-1.125 22.48085,-1.7042 33.53199,-3.16589 1.1433,-3.00415 0.20782,-6.90354 0.56491,-10.24092 -0.16514,-6.60803 0.58116,-13.40507 -0.15842,-19.89397 -6.22817,-1.52892 -12.84888,-1.22788 -19.23212,-1.95576 -4.81586,-0.34613 -9.63171,-0.69225 -14.44757,-1.03838 0.0217,-4.57681 -0.35164,-9.14347 -0.60938,-13.70996 10.34477,-4.391265 20.65007,-8.87853 30.91114,-13.460935 1.55265,-2.654105 1.03678,-6.208975 1.75571,-9.203575 0.41144,-4.898 1.70568,-9.879935 1.51479,-14.72709 -0.93559,-1.090075 -4.44479,-3.02622 -4.29297,-0.248045 1.32728,1.46593 2.37215,2.59407 1.47464,4.795445 -0.84333,5.23175 -1.04448,11.37419 -2.33206,16.11276 C 192.19353,72.534995 155.71563,60.457285 119.39844,48.169922 118.43583,33.124898 117.36123,17.873109 116.81348,2.9394531 c 3.44208,-0.4610751 -0.0581,-3.60259205 -1.78809,-3.20117185 z M 85.287109,71.282225 c 37.272741,10.072045 74.572551,20.0616 111.830081,30.175785 0.25246,4.31964 0.4342,8.68057 0.64453,13.0205 -27.85737,-1.31579 -55.61833,-4.71224 -83.5127,-5.52246 -12.12967,0.27393 -24.249944,0.83478 -36.377927,1.13184 -0.542136,-13.711555 -0.896182,-27.425835 -1.239257,-41.149415 2.885091,0.78125 5.770182,1.5625 8.655273,2.34375 z m 34.467771,40.301755 c 37.24682,2.55968 74.56651,5.15969 111.73309,8.27264 0.58928,4.38149 -0.004,9.76327 0.13047,14.52905 -0.0366,3.81383 -0.0731,7.62765 -0.10965,11.44148 -36.9337,3.13429 -73.84518,6.75281 -110.79395,9.55468 -0.41706,-14.60498 -1.02786,-29.19899 -1.20507,-43.80957 z M 197.25,151.5 c -0.1705,8.24228 0.34748,16.6541 -0.3125,24.77246 -39.12605,8.12687 -78.28721,16.10346 -117.449219,24.03711 -0.391709,-14.91451 -0.182432,-29.83692 -0.238281,-44.75488 13.459041,1.06817 26.95118,2.15494 40.44531,2.46191 25.87026,-1.84681 51.74041,-4.46729 77.55469,-6.5166 z"
       id="path28150"
       transform="matrix(0.26458333,0,0,0.26458333,69.350834,70.731659)" />
    <path
       style="font-variation-settings:normal;opacity:0.84;vector-effect:none;fill:none;fill-opacity:1;stroke-width:0.25;stroke-linecap:butt;stroke-linejoin:miter;stroke-miterlimit:4;stroke-dasharray:none;stroke-dashoffset:0;stroke-opacity:1;-inkscape-stroke:none;stop-color:#000000;stop-opacity:1"
       d="m 234.52832,180.52051 c -25.0738,7.09587 -49.76666,15.51654 -74.62952,23.32532 -12.74904,4.07199 -25.48124,8.17231 -38.24353,12.19909 -1.72635,1.90462 -0.34741,5.09758 -0.84266,7.48131 -0.10554,13.52939 -0.0473,27.05935 -0.0626,40.589 1.60642,2.43543 4.50306,-1.72222 6.59424,-2.1799 36.42839,-21.17004 72.93596,-42.20505 109.35986,-63.3826 1.35236,-2.09932 -0.0647,-5.0518 0.14648,-7.43652 -0.59549,-3.36296 -0.0675,-7.23582 -1.50538,-10.30524 -0.15335,-0.30908 -0.52228,-0.32298 -0.81688,-0.29046 z"
       id="path28189"
       transform="matrix(0.26458333,0,0,0.26458333,69.350834,70.731659)" />
    <path
       style="font-variation-settings:normal;opacity:0.84;vector-effect:none;fill:none;fill-opacity:1;stroke-width:0.25;stroke-linecap:butt;stroke-linejoin:miter;stroke-miterlimit:4;stroke-dasharray:none;stroke-dashoffset:0;stroke-opacity:1;-inkscape-stroke:none;stop-color:#000000;stop-opacity:1"
       d="m 234.52832,180.52051 c -25.0738,7.09587 -49.76666,15.51654 -74.62952,23.32532 -12.74904,4.07199 -25.48124,8.17231 -38.24353,12.19909 -1.72635,1.90462 -0.34741,5.09758 -0.84266,7.48131 -0.10554,13.52939 -0.0473,27.05935 -0.0626,40.589 1.60642,2.43543 4.50306,-1.72222 6.59424,-2.1799 36.42839,-21.17004 72.93596,-42.20505 109.35986,-63.3826 1.35236,-2.09932 -0.0647,-5.0518 0.14648,-7.43652 -0.59549,-3.36296 -0.0675,-7.23582 -1.50538,-10.30524 -0.15335,-0.30908 -0.52228,-0.32298 -0.81688,-0.29046 z"
       id="path54096"
       transform="matrix(0.26458333,0,0,0.26458333,69.350834,70.731659)" />
    <path
       style="font-variation-settings:normal;opacity:0.84;vector-effect:none;fill:none;fill-opacity:1;stroke-width:0.25;stroke-linecap:butt;stroke-linejoin:miter;stroke-miterlimit:4;stroke-dasharray:none;stroke-dashoffset:0;stroke-opacity:1;-inkscape-stroke:none;stop-color:#000000;stop-opacity:1"
       d="M 114.50293,1.7226562 C 97.51503,11.157957 80.970965,21.484622 64.212535,31.359582 43.166629,44.047892 21.970043,56.502225 1.1396484,69.538085 c -1.08779622,2.46427 0.3581882,5.489175 0.3244352,8.12666 0.5311917,3.23969 0.668958,6.606785 1.6531039,9.74053 2.2651195,1.118985 4.979258,-0.97197 7.3906445,-1.11709 6.229911,-1.521025 12.377153,-3.4327 18.691387,-4.58213 1.077473,34.642925 1.998173,69.316925 2.793945,103.977535 -8.753924,-1.84442 -17.381977,-4.65302 -26.166992,-6.11133 -1.7884134,1.82442 -0.537202,5.03244 -0.9068285,7.36418 0.242473,6.21255 0.2160489,12.61694 1.363906,18.66184 11.1753395,6.37498 23.0057205,12.01541 34.4330755,18.10778 26.236905,13.57269 52.412205,27.26743 78.734845,40.67187 2.51613,0.19312 1.17688,-3.41379 1.63281,-4.84961 0.27229,-14.15029 0.12905,-28.30413 0.16602,-42.45606 -1.83786,-2.24007 -5.68185,-2.1063 -8.31103,-3.39877 -11.58652,-3.71971 -23.173115,-7.43914 -34.76026,-11.15689 0.0596,-15.94266 0.0051,-31.8864 0.2041,-47.82813 13.497885,0.53226 26.98056,2.18002 40.48438,2.1084 1.99281,-1.47618 0.19241,-4.87669 0.67643,-7.06148 -0.51485,-12.96568 -0.57586,-25.97408 -1.5319,-38.90922 -1.84245,-1.6394 -4.84235,-0.26931 -7.11524,-0.68164 -11.309325,0.19465 -22.610965,0.73122 -33.92187,0.83887 C 76.29645,95.99669 76.02622,81.002495 75.521485,66.004885 89.527475,60.56015 103.56631,55.19835 117.53711,49.664062 c 1.50193,-2.224974 -0.0157,-5.47479 0.3125,-8.077148 -0.704,-12.998074 -1.33149,-26.003241 -2.24414,-38.9882812 -0.25081,-0.5219149 -0.46049,-0.8856115 -1.10254,-0.8759766 z"
       id="path54135"
       transform="matrix(0.26458333,0,0,0.26458333,69.350834,70.731659)" />
    <path
       style="font-variation-settings:normal;opacity:0.84;vector-effect:none;fill:none;fill-opacity:1;stroke-width:0.25;stroke-linecap:butt;stroke-linejoin:miter;stroke-miterlimit:4;stroke-dasharray:none;stroke-dashoffset:0;stroke-opacity:1;-inkscape-stroke:none;stop-color:#000000;stop-opacity:1"
       d="m 119.0918,110.02441 c -2.16978,1.03263 -0.59465,4.20388 -1.00731,6.14728 0.41737,13.40717 0.36895,26.89688 1.30223,40.24921 2.22964,1.34001 5.27534,-0.13115 7.7812,0.0767 35.06531,-2.97428 70.10836,-6.21318 105.1768,-9.14997 2.06301,-1.93198 0.32117,-5.81326 0.8474,-8.50648 -0.20553,-6.66859 0.14914,-13.46422 -0.40337,-20.05413 -2.91304,-1.3571 -6.8799,-0.66675 -10.18675,-1.2473 -34.50246,-2.492 -68.98498,-5.40331 -103.5102,-7.51534 z"
       id="path54174"
       transform="matrix(0.26458333,0,0,0.26458333,69.350834,70.731659)" />
    <path
       style="font-variation-settings:normal;opacity:0.84;vector-effect:none;fill:none;fill-opacity:1;stroke-width:0.25;stroke-linecap:butt;stroke-linejoin:miter;stroke-miterlimit:4;stroke-dasharray:none;stroke-dashoffset:0;stroke-opacity:1;-inkscape-stroke:none;stop-color:#000000;stop-opacity:1"
       d="m 115.90332,1.8242187 c -1.37218,2.3612281 0.0493,5.5473998 -0.26855,8.1953123 0.70493,13.020847 1.19831,26.070454 2.29394,39.05957 4.5321,2.552375 10.05136,3.508229 14.95645,5.454629 31.96724,10.615175 63.83977,21.537455 95.93808,31.743615 2.35482,-0.68352 1.42391,-4.18554 2.1785,-6.05211 0.56771,-5.260415 1.88697,-10.59587 1.61154,-15.869765 -8.72413,-5.40991 -18.0932,-9.938735 -27.07323,-14.987161 C 175.96149,33.454597 146.47278,17.360202 116.72852,1.7626953 l -0.49862,0.037175 z"
       id="path54213"
       transform="matrix(0.26458333,0,0,0.26458333,69.350834,70.731659)" />
    <path
       style="font-variation-settings:normal;opacity:0.84;vector-effect:none;fill:#666666;fill-opacity:1;stroke-width:0.25;stroke-linecap:butt;stroke-linejoin:miter;stroke-miterlimit:4;stroke-dasharray:none;stroke-dashoffset:0;stroke-opacity:1;-inkscape-stroke:none;stop-color:#000000;stop-opacity:1"
       d="m 75.704101,67.96582 c -0.977428,3.63707 -0.0522,7.718837 -0.273291,11.507599 0.323863,10.423673 0.29339,20.892691 1.118994,31.281461 1.984719,1.61798 5.080269,0.20448 7.47168,0.62403 13.316399,-0.0716 26.647136,-1.11341 39.948076,-0.75574 24.56822,1.76429 49.10683,4.10643 73.70485,5.36454 3.35744,-0.30569 0.82895,-5.23352 1.36731,-7.53144 -0.55223,-2.67048 0.43874,-6.0175 -1.15989,-8.29611 -39.8443,-11.098324 -79.8433,-21.671148 -119.865229,-32.120121 -0.786617,-0.14767 -1.54874,-0.571854 -2.3125,-0.07422 z"
       id="path54252"
       transform="matrix(0.26458333,0,0,0.26458333,69.350834,70.731659)" />
    <path
       style="font-variation-settings:normal;opacity:0.84;vector-effect:none;fill:none;fill-opacity:1;stroke-width:0.25;stroke-linecap:butt;stroke-linejoin:miter;stroke-miterlimit:4;stroke-dasharray:none;stroke-dashoffset:0;stroke-opacity:1;-inkscape-stroke:none;stop-color:#000000;stop-opacity:1"
       d="m 196.49511,150.00195 c -26.3416,2.02968 -52.65141,4.94127 -78.99475,6.5513 -13.02216,-0.5937 -26.166204,-1.78806 -39.129334,-2.46556 -1.410123,2.37304 -0.235974,5.98375 -0.621026,8.83223 0.139641,12.86591 -0.277895,25.85253 0.206946,38.64364 1.987262,1.14884 4.840301,-0.72352 7.163171,-0.7745 37.606243,-7.70016 75.219163,-15.36763 112.830073,-23.04492 1.83852,-2.10547 0.29119,-5.77337 0.79981,-8.47949 -0.22576,-6.31536 0.45475,-12.82708 -0.34278,-19.01856 -0.59117,-0.36149 -1.25961,-0.22591 -1.91211,-0.24414 z"
       id="path55623"
       transform="matrix(0.26458333,0,0,0.26458333,69.350834,70.731659)" />
    <path
       style="font-variation-settings:normal;opacity:0.84;vector-effect:none;fill:#b3b3b3;fill-opacity:1;stroke-width:0.25;stroke-linecap:butt;stroke-linejoin:miter;stroke-miterlimit:4;stroke-dasharray:none;stroke-dashoffset:0;stroke-opacity:1;-inkscape-stroke:none;stop-color:#000000;stop-opacity:1"
       d="m 196.49511,150.00195 c -26.3416,2.02968 -52.65141,4.94127 -78.99475,6.5513 -13.02216,-0.5937 -26.166204,-1.78806 -39.129334,-2.46556 -1.410123,2.37304 -0.235974,5.98375 -0.621026,8.83223 0.139641,12.86591 -0.277895,25.85253 0.206946,38.64364 1.987262,1.14884 4.840301,-0.72352 7.163171,-0.7745 37.606243,-7.70016 75.219163,-15.36763 112.830073,-23.04492 1.83852,-2.10547 0.29119,-5.77337 0.79981,-8.47949 -0.22576,-6.31536 0.45475,-12.82708 -0.34278,-19.01856 -0.59117,-0.36149 -1.25961,-0.22591 -1.91211,-0.24414 z"
       id="path55662"
       transform="matrix(0.26458333,0,0,0.26458333,69.350834,70.731659)" />
    <path
       style="font-variation-settings:normal;opacity:0.84;vector-effect:none;fill:#000080;fill-opacity:1;stroke-width:0.25;stroke-linecap:butt;stroke-linejoin:miter;stroke-miterlimit:4;stroke-dasharray:none;stroke-dashoffset:0;stroke-opacity:1;-inkscape-stroke:none;stop-color:#000000;stop-opacity:1"
       d="M 114.50293,1.7226562 C 97.51503,11.157957 80.970965,21.484622 64.212535,31.359582 43.166629,44.047892 21.970043,56.502225 1.1396484,69.538085 c -1.08779622,2.46427 0.3581882,5.489175 0.3244352,8.12666 0.5311917,3.23969 0.668958,6.606785 1.6531039,9.74053 2.2651195,1.118985 4.979258,-0.97197 7.3906445,-1.11709 6.229911,-1.521025 12.377153,-3.4327 18.691387,-4.58213 1.077473,34.642925 1.998173,69.316925 2.793945,103.977535 -8.753924,-1.84442 -17.381977,-4.65302 -26.166992,-6.11133 -1.7884134,1.82442 -0.537202,5.03244 -0.9068285,7.36418 0.242473,6.21255 0.2160489,12.61694 1.363906,18.66184 11.1753395,6.37498 23.0057205,12.01541 34.4330755,18.10778 26.236905,13.57269 52.412205,27.26743 78.734845,40.67187 2.51613,0.19312 1.17688,-3.41379 1.63281,-4.84961 0.27229,-14.15029 0.12905,-28.30413 0.16602,-42.45606 -1.83786,-2.24007 -5.68185,-2.1063 -8.31103,-3.39877 -11.58652,-3.71971 -23.173115,-7.43914 -34.76026,-11.15689 0.0596,-15.94266 0.0051,-31.8864 0.2041,-47.82813 13.497885,0.53226 26.98056,2.18002 40.48438,2.1084 1.99281,-1.47618 0.19241,-4.87669 0.67643,-7.06148 -0.51485,-12.96568 -0.57586,-25.97408 -1.5319,-38.90922 -1.84245,-1.6394 -4.84235,-0.26931 -7.11524,-0.68164 -11.309325,0.19465 -22.610965,0.73122 -33.92187,0.83887 C 76.29645,95.99669 76.02622,81.002495 75.521485,66.004885 89.527475,60.56015 103.56631,55.19835 117.53711,49.664062 c 1.50193,-2.224974 -0.0157,-5.47479 0.3125,-8.077148 -0.704,-12.998074 -1.33149,-26.003241 -2.24414,-38.9882812 -0.25081,-0.5219149 -0.46049,-0.8856115 -1.10254,-0.8759766 z"
       id="path59956"
       transform="matrix(0.26458333,0,0,0.26458333,69.350834,70.731659)" />
    <path
       style="font-variation-settings:normal;opacity:0.84;vector-effect:none;fill:#00ffff;fill-opacity:1;stroke-width:0.25;stroke-linecap:butt;stroke-linejoin:miter;stroke-miterlimit:4;stroke-dasharray:none;stroke-dashoffset:0;stroke-opacity:1;-inkscape-stroke:none;stop-color:#000000;stop-opacity:1"
       d="m 115.90332,1.8242187 c -1.37218,2.3612281 0.0493,5.5473998 -0.26855,8.1953123 0.70493,13.020847 1.19831,26.070454 2.29394,39.05957 4.5321,2.552375 10.05136,3.508229 14.95645,5.454629 31.96724,10.615175 63.83977,21.537455 95.93808,31.743615 2.35482,-0.68352 1.42391,-4.18554 2.1785,-6.05211 0.56771,-5.260415 1.88697,-10.59587 1.61154,-15.869765 -8.72413,-5.40991 -18.0932,-9.938735 -27.07323,-14.987161 C 175.96149,33.454597 146.47278,17.360202 116.72852,1.7626953 l -0.49862,0.037175 z"
       id="path60032"
       transform="matrix(0.26458333,0,0,0.26458333,69.350834,70.731659)" />
    <path
       style="font-variation-settings:normal;opacity:0.84;vector-effect:none;fill:#00ffff;fill-opacity:1;stroke-width:0.25;stroke-linecap:butt;stroke-linejoin:miter;stroke-miterlimit:4;stroke-dasharray:none;stroke-dashoffset:0;stroke-opacity:1;-inkscape-stroke:none;stop-color:#000000;stop-opacity:1"
       d="m 119.0918,110.02441 c -2.16978,1.03263 -0.59465,4.20388 -1.00731,6.14728 0.41737,13.40717 0.36895,26.89688 1.30223,40.24921 2.22964,1.34001 5.27534,-0.13115 7.7812,0.0767 35.06531,-2.97428 70.10836,-6.21318 105.1768,-9.14997 2.06301,-1.93198 0.32117,-5.81326 0.8474,-8.50648 -0.20553,-6.66859 0.14914,-13.46422 -0.40337,-20.05413 -2.91304,-1.3571 -6.8799,-0.66675 -10.18675,-1.2473 -34.50246,-2.492 -68.98498,-5.40331 -103.5102,-7.51534 z"
       id="path60108"
       transform="matrix(0.26458333,0,0,0.26458333,69.350834,70.731659)" />
    <path
       style="font-variation-settings:normal;opacity:0.84;vector-effect:none;fill:#00ffff;fill-opacity:1;stroke-width:0.25;stroke-linecap:butt;stroke-linejoin:miter;stroke-miterlimit:4;stroke-dasharray:none;stroke-dashoffset:0;stroke-opacity:1;-inkscape-stroke:none;stop-color:#000000;stop-opacity:1"
       d="m 234.52832,180.52051 c -25.0738,7.09587 -49.76666,15.51654 -74.62952,23.32532 -12.74904,4.07199 -25.48124,8.17231 -38.24353,12.19909 -1.72635,1.90462 -0.34741,5.09758 -0.84266,7.48131 -0.10554,13.52939 -0.0473,27.05935 -0.0626,40.589 1.60642,2.43543 4.50306,-1.72222 6.59424,-2.1799 36.42839,-21.17004 72.93596,-42.20505 109.35986,-63.3826 1.35236,-2.09932 -0.0647,-5.0518 0.14648,-7.43652 -0.59549,-3.36296 -0.0675,-7.23582 -1.50538,-10.30524 -0.15335,-0.30908 -0.52228,-0.32298 -0.81688,-0.29046 z"
       id="path60184"
       transform="matrix(0.26458333,0,0,0.26458333,69.350834,70.731659)" />
    <path
       style="font-variation-settings:normal;opacity:0.84;vector-effect:none;fill:none;fill-opacity:1;stroke-width:0.25;stroke-linecap:butt;stroke-linejoin:miter;stroke-miterlimit:4;stroke-dasharray:none;stroke-dashoffset:0;stroke-opacity:1;-inkscape-stroke:none;stop-color:#000000;stop-opacity:1"
       d="M 114.72754,1.0253906 C 106.54179,4.6494949 99.083255,9.8515385 91.264445,14.224797 62.00042,31.796056 32.501882,48.994128 3.5898437,67.140625 1.8691037,68.31242 -0.78424175,69.58605 0.06542969,72.146485 0.71224985,77.289785 0.8445787,82.65017 2.4072265,87.59375 4.778192,89.533955 8.162411,87.39296 10.817535,87.15489 16.613254,85.737095 22.361492,84.12335 28.189453,82.838865 29.56256,116.69485 30.093966,150.59324 31.125,184.46289 22.547676,182.8196 14.116312,180.03466 5.5362665,178.73848 c -2.2949203,2.45769 -0.9962594,6.60564 -1.3092468,9.78382 0.3178941,5.8289 -0.071647,11.91607 1.4353738,17.53626 14.3752095,8.30032 29.4970435,15.58849 44.2108565,23.40111 22.502495,11.49083 44.73901,23.51747 67.42362,34.64287 1.68978,1.14471 5.33902,1.54448 4.45473,-1.60838 -0.0839,-15.41667 -0.16773,-30.83335 -0.2516,-46.25002 -1.7264,-2.14399 -5.33374,-2.06052 -7.824,-3.27317 -11.39065,-3.66723 -22.78552,-7.32196 -34.179905,-10.97781 -0.0056,-15.45542 -0.32328,-31.22417 -0.13379,-46.48437 13.334765,0.69538 26.648495,2.11022 40.014645,1.99121 2.08582,-1.22186 0.0768,-4.38014 0.51566,-6.46727 -0.67959,-13.59709 -0.60973,-27.23869 -1.49906,-40.82034 -1.62108,-1.89695 -4.83462,-0.40088 -6.98612,-0.87203 -11.19652,0.20837 -22.391425,0.49574 -33.58712,0.74362 -0.53007,-14.48692 -1.276485,-28.953635 -1.24609,-43.45312 13.698075,-5.62807 27.6842,-10.602225 41.30957,-16.371095 1.62676,-2.876726 0.0582,-6.529566 0.22559,-9.683275 -0.90445,-12.895776 -1.25361,-25.817778 -2.20411,-38.7122322 -0.2232,-0.4972703 -0.57654,-0.929259 -1.17773,-0.8388672 z"
       id="path60607"
       transform="matrix(0.26458333,0,0,0.26458333,69.350834,70.731659)"
       sodipodi:nodetypes="cccccccccccccccccccccccccccc" />
    <path
       style="font-variation-settings:normal;opacity:1;vector-effect:none;fill:none;fill-opacity:1;stroke-width:0.353553;stroke-linecap:butt;stroke-linejoin:miter;stroke-miterlimit:4;stroke-dasharray:none;stroke-dashoffset:0;stroke-opacity:1;-inkscape-stroke:none;stop-color:#000000;stop-opacity:1"
       d="M 114.05273,1.1407621 C 76.314131,23.846959 38.555035,46.668869 0.79963835,69.402807 c -1.22668939,3.257209 0.88119385,7.160629 0.98185655,10.621719 0.9800056,2.353166 -0.05025,6.53472 2.5094832,7.706431 8.2363999,-1.301147 16.8783729,-4.776054 24.6313469,-5.56708 1.304845,34.309693 2.363891,68.859953 2.763517,103.116053 -8.855007,-1.56751 -17.480989,-4.71045 -26.3756358,-5.78253 -1.8824338,2.55009 -0.040783,6.51631 -0.4591989,9.53387 0.4462158,5.48927 0.3581612,11.10536 1.4259464,16.50202 32.8553743,17.77561 66.3319243,34.5896 99.4546463,51.94031 4.76173,2.16853 9.25059,5.38678 14.17548,6.92771 1.46659,-4.57532 0.23392,-10.11852 0.70859,-15.04765 -0.10461,-10.90663 0.58959,-21.91514 -0.3868,-32.7663 -9.65559,-4.32528 -20.256431,-6.85075 -30.289519,-10.42599 -3.870477,-1.29552 -7.763255,-2.54909 -11.581702,-3.98407 -0.344559,-15.83053 0.04378,-31.66685 0.09805,-47.49907 6.898605,-0.18827 13.491569,1.96448 20.370757,1.22777 5.005934,0.89428 10.295724,1.33149 15.526984,1.1772 5.81557,1.99234 5.76349,-3.13287 5.13351,-7.32955 -0.54905,-12.79787 -0.0681,-25.77012 -1.4747,-38.4672 -3.25073,-2.31344 -7.94884,-0.67918 -11.71258,-1.12818 -9.551967,0.0537 -19.596546,0.69656 -28.853528,0.73734 C 75.914315,96.085629 76.17342,81.010798 75.462926,66.074433 89.319836,60.690794 103.17703,55.307895 117.03446,49.925606 118.47622,44.038773 117.32483,37.349407 117.39611,31.145194 116.77207,21.3284 116.78664,11.369407 115.16864,1.6710922 114.9708,1.2754533 114.47965,1.0667869 114.05273,1.1407621 Z M 101.0486,155.50825 c -0.11066,-0.11298 0.0461,-0.5811 0,0 z"
       id="path70916"
       transform="matrix(0.26458333,0,0,0.26458333,69.350834,70.731659)" />
    <path
       style="font-variation-settings:normal;opacity:1;vector-effect:none;fill:#0000ff;fill-opacity:1;stroke-width:0.353553;stroke-linecap:butt;stroke-linejoin:miter;stroke-miterlimit:4;stroke-dasharray:none;stroke-dashoffset:0;stroke-opacity:1;-inkscape-stroke:none;stop-color:#000000;stop-opacity:1"
       d="M 114.05273,1.1407621 C 76.314131,23.846959 38.555035,46.668869 0.79963835,69.402807 c -1.22668939,3.257209 0.88119385,7.160629 0.98185655,10.621719 0.9800056,2.353166 -0.05025,6.53472 2.5094832,7.706431 8.2363999,-1.301147 16.8783729,-4.776054 24.6313469,-5.56708 1.304845,34.309693 2.363891,68.859953 2.763517,103.116053 -8.855007,-1.56751 -17.480989,-4.71045 -26.3756358,-5.78253 -1.8824338,2.55009 -0.040783,6.51631 -0.4591989,9.53387 0.4462158,5.48927 0.3581612,11.10536 1.4259464,16.50202 32.8553743,17.77561 66.3319243,34.5896 99.4546463,51.94031 4.76173,2.16853 9.25059,5.38678 14.17548,6.92771 1.46659,-4.57532 0.23392,-10.11852 0.70859,-15.04765 -0.10461,-10.90663 0.58959,-21.91514 -0.3868,-32.7663 -9.65559,-4.32528 -20.256431,-6.85075 -30.289519,-10.42599 -3.870477,-1.29552 -7.763255,-2.54909 -11.581702,-3.98407 -0.344559,-15.83053 0.04378,-31.66685 0.09805,-47.49907 6.898605,-0.18827 13.491569,1.96448 20.370757,1.22777 5.005934,0.89428 10.295724,1.33149 15.526984,1.1772 5.81557,1.99234 5.76349,-3.13287 5.13351,-7.32955 -0.54905,-12.79787 -0.0681,-25.77012 -1.4747,-38.4672 -3.25073,-2.31344 -7.94884,-0.67918 -11.71258,-1.12818 -9.551967,0.0537 -19.596546,0.69656 -28.853528,0.73734 C 75.914315,96.085629 76.17342,81.010798 75.462926,66.074433 89.319836,60.690794 103.17703,55.307895 117.03446,49.925606 118.47622,44.038773 117.32483,37.349407 117.39611,31.145194 116.77207,21.3284 116.78664,11.369407 115.16864,1.6710922 114.9708,1.2754533 114.47965,1.0667869 114.05273,1.1407621 Z M 101.0486,155.50825 c -0.11066,-0.11298 0.0461,-0.5811 0,0 z"
       id="path70955"
       transform="matrix(0.26458333,0,0,0.26458333,69.350834,70.731659)" />
    <path
       style="font-variation-settings:normal;opacity:1;vector-effect:none;fill:none;fill-opacity:1;stroke-width:0.353553;stroke-linecap:butt;stroke-linejoin:miter;stroke-miterlimit:4;stroke-dasharray:none;stroke-dashoffset:0;stroke-opacity:1;-inkscape-stroke:none;stop-color:#000000;stop-opacity:1"
       d="m 118.02054,110.37771 c -0.0961,15.25983 0.90784,30.67485 0.83417,46.00475 2.12109,2.27108 6.39915,-0.3257 9.36819,0.13041 34.72608,-3.21063 69.50682,-5.85721 104.20807,-9.31589 2.05621,-3.23482 0.17683,-8.37151 0.72315,-12.31936 -0.33221,-5.46435 0.35804,-11.17698 -0.6099,-16.48695 -36.89583,-3.10363 -73.92678,-5.90128 -110.90937,-8.3411 -1.1907,0.15984 -2.55651,-0.43423 -3.61431,0.32814 z"
       id="path71260"
       transform="matrix(0.26458333,0,0,0.26458333,69.350834,70.731659)" />
    <path
       style="font-variation-settings:normal;opacity:1;vector-effect:none;fill:#000000;fill-opacity:1;stroke-width:0.353553;stroke-linecap:butt;stroke-linejoin:miter;stroke-miterlimit:4;stroke-dasharray:none;stroke-dashoffset:0;stroke-opacity:1;-inkscape-stroke:none;stop-color:#000000;stop-opacity:1"
       d="m 75.241962,67.274581 c -0.794629,7.389409 0.342095,15.233786 0.338276,22.794237 0.495721,7.042778 0.167353,14.355382 1.450207,21.214872 22.024665,-0.10719 44.213035,-1.23733 66.203785,0.80373 18.42045,1.25819 36.79207,3.17519 55.22523,4.24684 2.38629,-2.12693 0.23284,-6.76524 0.63341,-9.89899 -0.25477,-2.6885 0.0753,-6.901933 -3.74219,-6.950042 C 155.70967,88.29779 115.81642,78.014102 76.094081,67.115758 l -0.695136,0.129563 z"
       id="path71299"
       transform="matrix(0.26458333,0,0,0.26458333,69.350834,70.731659)" />
    <path
       style="font-variation-settings:normal;opacity:1;vector-effect:none;fill:#333333;fill-opacity:1;stroke-width:0.353553;stroke-linecap:butt;stroke-linejoin:miter;stroke-miterlimit:4;stroke-dasharray:none;stroke-dashoffset:0;stroke-opacity:1;-inkscape-stroke:none;stop-color:#000000;stop-opacity:1"
       d="m 194.87973,149.91492 c -27.23904,2.32804 -54.49389,5.51333 -81.76889,6.5366 -11.64622,-0.56811 -23.444165,-1.64215 -34.942395,-2.4583 -0.696437,13.70202 -0.264497,27.6998 -0.143631,41.5149 0.308408,2.15454 -0.713559,7.48322 3.152978,6.04631 39.062328,-7.77335 78.052358,-15.92372 117.089698,-23.7958 2.09483,-2.16431 0.43881,-6.19882 1.05514,-9.01975 -0.1858,-6.32274 0.50225,-12.86102 -0.35494,-19.03802 -1.30213,-0.51395 -2.74243,0.21613 -4.08796,0.21406 z"
       id="path71375"
       transform="matrix(0.26458333,0,0,0.26458333,69.350834,70.731659)" />
    <path
       style="font-variation-settings:normal;opacity:1;vector-effect:none;fill:#333333;fill-opacity:1;stroke-width:0.353553;stroke-linecap:butt;stroke-linejoin:miter;stroke-miterlimit:4;stroke-dasharray:none;stroke-dashoffset:0;stroke-opacity:1;-inkscape-stroke:none;stop-color:#000000;stop-opacity:1"
       d="m 75.739146,66.371362 c -2.758895,1.098543 -0.677028,5.423479 -1.307871,7.709122 0.496855,12.087567 0.313772,24.327846 1.856155,36.304136 3.128559,2.57752 7.99855,0.90711 11.75426,1.50357 24.99564,-0.16752 49.9623,-0.28721 74.82665,2.41792 12.1122,0.8928 24.19975,2.25433 36.34242,2.65929 2.33362,-2.09748 0.18264,-6.57658 0.59939,-9.63294 -0.27066,-3.22936 0.009,-8.155646 -4.39318,-8.443854 C 157.0235,87.831972 118.31768,77.895407 79.840918,67.140617 78.486659,66.844291 77.134124,66.409948 75.739146,66.371362 Z"
       id="path71525"
       transform="matrix(0.26458333,0,0,0.26458333,69.350834,70.731659)" />
  </g>
</svg>
