<?xml version="1.0" encoding="UTF-8" standalone="no"?>
<!-- Created with Inkscape (http://www.inkscape.org/) -->

<svg
   width="62.895885mm"
   height="70.304825mm"
   viewBox="0 0 62.895885 70.304825"
   version="1.1"
   id="svg5"
   sodipodi:docname="logo.svg"
   inkscape:version="1.1 (c68e22c387, 2021-05-23)"
   xmlns:inkscape="http://www.inkscape.org/namespaces/inkscape"
   xmlns:sodipodi="http://sodipodi.sourceforge.net/DTD/sodipodi-0.dtd"
   xmlns:xlink="http://www.w3.org/1999/xlink"
   xmlns="http://www.w3.org/2000/svg"
   xmlns:svg="http://www.w3.org/2000/svg">
  <sodipodi:namedview
     id="namedview7"
     pagecolor="#ffffff"
     bordercolor="#666666"
     borderopacity="1.0"
     inkscape:pageshadow="2"
     inkscape:pageopacity="0.0"
     inkscape:pagecheckerboard="0"
     inkscape:document-units="mm"
     showgrid="false"
     inkscape:object-nodes="true"
     inkscape:snap-nodes="false"
     inkscape:snap-midpoints="true"
     inkscape:object-paths="true"
     inkscape:snap-smooth-nodes="true"
     inkscape:snap-intersection-paths="true"
     inkscape:zoom="2"
     inkscape:cx="80.25"
     inkscape:cy="159.25"
     inkscape:window-width="1920"
     inkscape:window-height="1001"
     inkscape:window-x="-9"
     inkscape:window-y="-9"
     inkscape:window-maximized="1"
     inkscape:current-layer="layer1"
     inkscape:snap-others="false"
     inkscape:snap-global="false" />
  <defs
     id="defs2">
    <linearGradient
       id="linearGradient107549"
       inkscape:swatch="solid">
      <stop
         style="stop-color:#000000;stop-opacity:1;"
         offset="0"
         id="stop107547" />
    </linearGradient>
    <linearGradient
       inkscape:collect="always"
       id="linearGradient100585">
      <stop
         style="stop-color:#000080;stop-opacity:1;"
         offset="0"
         id="stop100581" />
      <stop
         style="stop-color:#00ffff;stop-opacity:0.70447761"
         offset="1"
         id="stop100583" />
    </linearGradient>
    <linearGradient
       inkscape:collect="always"
       xlink:href="#linearGradient100585"
       id="linearGradient100587"
       x1="2.5"
       y1="128.5"
       x2="109"
       y2="135.5"
       gradientUnits="userSpaceOnUse" />
  </defs>
  <g
     inkscape:label="Capa 1"
     inkscape:groupmode="layer"
     id="layer1"
     transform="translate(-69.350834,-70.731659)">
    <path
       style="fill:none;stroke:#000000;stroke-width:0.264583px;stroke-linecap:butt;stroke-linejoin:miter;stroke-opacity:1"
       d="m 101.3165,140.81896 -30.358373,-15.72783 -0.365762,-6.9495 7.31527,1.82881 -0.731527,-27.798026 -6.949507,1.828818 -0.731527,-4.754927 30.358374,-18.288177 0.731532,12.801724 -11.338675,4.389163 0.365764,12.070195 10.972911,-0.365762 0.36576,12.435962 -10.972907,-0.73153 v 12.80173 l 11.338667,3.65763 z"
       id="path451" />
    <path
       style="fill:none;stroke:#000000;stroke-width:0.264583px;stroke-linecap:butt;stroke-linejoin:miter;stroke-opacity:1"
       d="m 99.853447,70.958127 31.089903,16.825124 -0.73153,5.852217 -29.62684,-9.875616"
       id="path1170" />
    <path
       style="fill:none;stroke:#000000;stroke-width:0.264583px;stroke-linecap:butt;stroke-linejoin:miter;stroke-opacity:1"
       d="m 130.21182,93.635466 -8.41256,3.657637 -32.552955,-8.778325"
       id="path1172" />
    <path
       style="fill:none;stroke:#000000;stroke-width:0.264583px;stroke-linecap:butt;stroke-linejoin:miter;stroke-opacity:1"
       d="m 100.58498,100.58498 v -0.36577"
       id="path1174" />
    <path
       style="fill:none;stroke:#000000;stroke-width:0.268087px;stroke-linecap:butt;stroke-linejoin:miter;stroke-opacity:1"
       d="m 100.22046,99.855724 h 0.73147 l 29.99019,2.253286 v 7.51094 l -29.99019,2.62884"
       id="path1257" />
    <path
       style="fill:none;stroke:#000000;stroke-width:0.264583px;stroke-linecap:butt;stroke-linejoin:miter;stroke-opacity:1"
       d="m 121.93116,110.32868 v 7.31528 l -32.187188,6.58374"
       id="path1265" />
    <path
       style="fill:none;stroke:#000000;stroke-width:0.258527px;stroke-linecap:butt;stroke-linejoin:miter;stroke-opacity:1"
       d="m 121.8445,117.60406 9.89827,0.69682 -30.42802,9.75556"
       id="path1269" />
    <path
       style="fill:none;stroke:#000000;stroke-width:0.259113px;stroke-linecap:butt;stroke-linejoin:miter;stroke-opacity:1"
       d="m 101.36601,140.92131 30.74415,-17.80794 -0.44448,-4.85914"
       id="path1273"
       sodipodi:nodetypes="ccc" />
    <path
       style="fill:none;stroke:#000000;stroke-width:0.245296px;stroke-linecap:butt;stroke-linejoin:miter;stroke-opacity:1"
       d="m 70.197691,94.045963 7.162613,3.210821"
       id="path1503" />
    <path
       style="fill:none;stroke:#000000;stroke-width:0.264349px;stroke-linecap:butt;stroke-linejoin:miter;stroke-opacity:1"
       d="m 70.498354,118.11932 7.409747,-1.44184"
       id="path1507" />
    <path
       style="fill:none;stroke:#000000;stroke-width:0.264583px;stroke-linecap:butt;stroke-linejoin:miter;stroke-opacity:1"
       d="m 121.84147,97.332878 h 0.0468 l 0.0935,4.022412"
       id="path23399" />
    <path
       style="fill:#000000;stroke-width:0.125"
       d="m 117.73755,48.892334 c -13.49424,5.253848 -27.034286,10.391291 -40.492518,15.736608 -0.880399,0.463937 -2.416967,0.679965 -2.428138,1.936243 0.151294,1.1954 1.619433,1.22452 2.502498,1.581541 14.81546,4.16961 29.700918,8.086783 44.552228,12.12616 25.27775,6.804014 50.53864,13.672095 75.84935,20.352504 1.10567,0.24475 2.0762,-0.61883 3.09695,-0.916467 9.29844,-3.998802 18.60179,-7.991588 27.82197,-12.167663 0.93965,-0.421316 0.61797,-1.862229 -0.3645,-1.978028 -36.59248,-12.311971 -73.2396,-24.460733 -109.86084,-36.687011 -0.22335,0.01484 -0.46319,-0.06333 -0.677,0.01611 z"
       id="path25307"
       transform="matrix(0.26458333,0,0,0.26458333,69.350834,70.731659)" />
    <path
       style="fill:#000000;stroke-width:0.125"
       d="m 199.11157,176.77881 c -40.02297,8.19841 -80.05999,16.32923 -120.068601,24.59668 -0.988648,0.21983 -0.974094,1.7254 -0.01636,1.97485 8.090258,2.83579 16.282934,5.37327 24.429821,8.0415 5.80777,1.85421 11.59701,3.77221 17.4298,5.54468 1.51913,-0.16647 2.94013,-0.88235 4.41988,-1.26588 35.93948,-11.49136 71.87799,-22.98701 107.78764,-34.57128 1.02581,-0.36999 0.69685,-1.9707 -0.36279,-1.95898 -11.15409,-0.83423 -22.31604,-1.61002 -33.47361,-2.37118 l -0.12473,0.008 z"
       id="path25346"
       transform="matrix(0.26458333,0,0,0.26458333,69.350834,70.731659)" />
    <path
       style="fill:#000000;stroke-width:0.5"
       d="m 27.895508,81.165039 c -7.378953,2.243962 -15.089867,3.535978 -22.2998049,6.251953 -1.9215479,2.06548 2.0378197,2.954254 3.2926734,3.583037 6.7464985,2.873706 13.3804175,6.297738 20.2034115,8.817332 1.854785,-1.133564 0.732625,-4.322927 1.126962,-6.352517 -0.256797,-3.96213 0.296042,-8.324487 -1.342774,-12.003907 -0.253474,-0.247574 -0.629074,-0.370135 -0.980468,-0.295898 z"
       id="path25385"
       transform="matrix(0.26458333,0,0,0.26458333,69.350834,70.731659)" />
    <path
       style="fill:#000000;stroke-width:0.5"
       d="m 31.060547,173.66016 c -8.021987,1.68408 -16.260387,2.85308 -24.1516972,4.83807 -0.8466171,2.88184 4.7416702,2.13812 6.6488592,3.26331 5.970338,1.33993 11.867663,3.36617 17.921783,4.16326 2.499051,-1.09641 0.473808,-4.45002 0.824219,-6.47265 -0.478327,-1.75465 1.006187,-5.34463 -1.243164,-5.79199 z"
       id="path25424"
       transform="matrix(0.26458333,0,0,0.26458333,69.350834,70.731659)" />
    <path
       style="font-variation-settings:normal;opacity:1;vector-effect:none;fill:none;fill-opacity:1;stroke-width:0.25;stroke-linecap:butt;stroke-linejoin:miter;stroke-miterlimit:4;stroke-dasharray:none;stroke-dashoffset:0;stroke-opacity:1;-inkscape-stroke:none;stop-color:#000000;stop-opacity:1"
       d="M 114.50293,1.7226562 C 97.51503,11.157957 80.970965,21.484622 64.212535,31.359582 43.166629,44.047892 21.970043,56.502225 1.1396484,69.538085 c -1.08779622,2.46427 0.3581882,5.489175 0.3244352,8.12666 0.5311917,3.23969 0.668958,6.606785 1.6531039,9.74053 2.2651195,1.118985 4.979258,-0.97197 7.3906445,-1.11709 6.229911,-1.521025 12.377153,-3.4327 18.691387,-4.58213 1.077473,34.642925 1.998173,69.316925 2.793945,103.977535 -8.753924,-1.84442 -17.381977,-4.65302 -26.166992,-6.11133 -1.7884134,1.82442 -0.537202,5.03244 -0.9068285,7.36418 0.242473,6.21255 0.2160489,12.61694 1.363906,18.66184 11.1753395,6.37498 23.0057205,12.01541 34.4330755,18.10778 26.236905,13.57269 52.412205,27.26743 78.734845,40.67187 2.51613,0.19312 1.17688,-3.41379 1.63281,-4.84961 0.27229,-14.15029 0.12905,-28.30413 0.16602,-42.45606 -1.83786,-2.24007 -5.68185,-2.1063 -8.31103,-3.39877 -11.58652,-3.71971 -23.173115,-7.43914 -34.76026,-11.15689 0.0596,-15.94266 0.0051,-31.8864 0.2041,-47.82813 13.497885,0.53226 26.98056,2.18002 40.48438,2.1084 1.99281,-1.47618 0.19241,-4.87669 0.67643,-7.06148 -0.51485,-12.96568 -0.57586,-25.97408 -1.5319,-38.90922 -1.84245,-1.6394 -4.84235,-0.26931 -7.11524,-0.68164 -11.309325,0.19465 -22.610965,0.73122 -33.92187,0.83887 C 76.29645,95.99669 76.02622,81.002495 75.521485,66.004885 89.527475,60.56015 103.56631,55.19835 117.53711,49.664062 c 1.50193,-2.224974 -0.0157,-5.47479 0.3125,-8.077148 -0.704,-12.998074 -1.33149,-26.003241 -2.24414,-38.9882812 -0.25081,-0.5219149 -0.46049,-0.8856115 -1.10254,-0.8759766 z"
       id="path27762"
       transform="matrix(0.26458333,0,0,0.26458333,69.350834,70.731659)" />
    <path
       style="font-variation-settings:normal;opacity:1;vector-effect:none;fill:none;fill-opacity:1;stroke-width:0.25;stroke-linecap:butt;stroke-linejoin:miter;stroke-miterlimit:4;stroke-dasharray:none;stroke-dashoffset:0;stroke-opacity:1;-inkscape-stroke:none;stop-color:#000000;stop-opacity:1"
       d="m 115.90332,1.8242187 c -1.37218,2.3612281 0.0493,5.5473998 -0.26855,8.1953123 0.70493,13.020847 1.19831,26.070454 2.29394,39.05957 4.5321,2.552375 10.05136,3.508229 14.95645,5.454629 31.96724,10.615175 63.83977,21.537455 95.93808,31.743615 2.35482,-0.68352 1.42391,-4.18554 2.1785,-6.05211 0.56771,-5.260415 1.88697,-10.59587 1.61154,-15.869765 -8.72413,-5.40991 -18.0932,-9.938735 -27.07323,-14.987161 C 175.96149,33.454597 146.47278,17.360202 116.72852,1.7626953 l -0.49862,0.037175 z"
       id="path27801"
       transform="matrix(0.26458333,0,0,0.26458333,69.350834,70.731659)" />
    <path
       style="font-variation-settings:normal;opacity:1;vector-effect:none;fill:none;fill-opacity:1;stroke-width:0.25;stroke-linecap:butt;stroke-linejoin:miter;stroke-miterlimit:4;stroke-dasharray:none;stroke-dashoffset:0;stroke-opacity:1;-inkscape-stroke:none;stop-color:#000000;stop-opacity:1"
       d="m 234.52832,180.52051 c -25.0738,7.09587 -49.76666,15.51654 -74.62952,23.32532 -12.74904,4.07199 -25.48124,8.17231 -38.24353,12.19909 -1.72635,1.90462 -0.34741,5.09758 -0.84266,7.48131 -0.10554,13.52939 -0.0473,27.05935 -0.0626,40.589 1.60642,2.43543 4.50306,-1.72222 6.59424,-2.1799 36.42839,-21.17004 72.93596,-42.20505 109.35986,-63.3826 1.35236,-2.09932 -0.0647,-5.0518 0.14648,-7.43652 -0.59549,-3.36296 -0.0675,-7.23582 -1.50538,-10.30524 -0.15335,-0.30908 -0.52228,-0.32298 -0.81688,-0.29046 z"
       id="path27840"
       transform="matrix(0.26458333,0,0,0.26458333,69.350834,70.731659)" />
    <path
       style="font-variation-settings:normal;opacity:1;vector-effect:none;fill:none;fill-opacity:1;stroke-width:0.25;stroke-linecap:butt;stroke-linejoin:miter;stroke-miterlimit:4;stroke-dasharray:none;stroke-dashoffset:0;stroke-opacity:1;-inkscape-stroke:none;stop-color:#000000;stop-opacity:1"
       d="m 234.52832,180.52051 c -25.0738,7.09587 -49.76666,15.51654 -74.62952,23.32532 -12.74904,4.07199 -25.48124,8.17231 -38.24353,12.19909 -1.72635,1.90462 -0.34741,5.09758 -0.84266,7.48131 -0.10554,13.52939 -0.0473,27.05935 -0.0626,40.589 1.60642,2.43543 4.50306,-1.72222 6.59424,-2.1799 36.42839,-21.17004 72.93596,-42.20505 109.35986,-63.3826 1.35236,-2.09932 -0.0647,-5.0518 0.14648,-7.43652 -0.59549,-3.36296 -0.0675,-7.23582 -1.50538,-10.30524 -0.15335,-0.30908 -0.52228,-0.32298 -0.81688,-0.29046 z"
       id="path27916"
       transform="matrix(0.26458333,0,0,0.26458333,69.350834,70.731659)" />
    <path
       style="font-variation-settings:normal;opacity:1;vector-effect:none;fill:none;fill-opacity:1;stroke-width:0.25;stroke-linecap:butt;stroke-linejoin:miter;stroke-miterlimit:4;stroke-dasharray:none;stroke-dashoffset:0;stroke-opacity:1;-inkscape-stroke:none;stop-color:#000000;stop-opacity:1"
       d="M 114.50293,1.7226562 C 97.51503,11.157957 80.970965,21.484622 64.212535,31.359582 43.166629,44.047892 21.970043,56.502225 1.1396484,69.538085 c -1.08779622,2.46427 0.3581882,5.489175 0.3244352,8.12666 0.5311917,3.23969 0.668958,6.606785 1.6531039,9.74053 2.2651195,1.118985 4.979258,-0.97197 7.3906445,-1.11709 6.229911,-1.521025 12.377153,-3.4327 18.691387,-4.58213 1.077473,34.642925 1.998173,69.316925 2.793945,103.977535 -8.753924,-1.84442 -17.381977,-4.65302 -26.166992,-6.11133 -1.7884134,1.82442 -0.537202,5.03244 -0.9068285,7.36418 0.242473,6.21255 0.2160489,12.61694 1.363906,18.66184 11.1753395,6.37498 23.0057205,12.01541 34.4330755,18.10778 26.236905,13.57269 52.412205,27.26743 78.734845,40.67187 2.51613,0.19312 1.17688,-3.41379 1.63281,-4.84961 0.27229,-14.15029 0.12905,-28.30413 0.16602,-42.45606 -1.83786,-2.24007 -5.68185,-2.1063 -8.31103,-3.39877 -11.58652,-3.71971 -23.173115,-7.43914 -34.76026,-11.15689 0.0596,-15.94266 0.0051,-31.8864 0.2041,-47.82813 13.497885,0.53226 26.98056,2.18002 40.48438,2.1084 1.99281,-1.47618 0.19241,-4.87669 0.67643,-7.06148 -0.51485,-12.96568 -0.57586,-25.97408 -1.5319,-38.90922 -1.84245,-1.6394 -4.84235,-0.26931 -7.11524,-0.68164 -11.309325,0.19465 -22.610965,0.73122 -33.92187,0.83887 C 76.29645,95.99669 76.02622,81.002495 75.521485,66.004885 89.527475,60.56015 103.56631,55.19835 117.53711,49.664062 c 1.50193,-2.224974 -0.0157,-5.47479 0.3125,-8.077148 -0.704,-12.998074 -1.33149,-26.003241 -2.24414,-38.9882812 -0.25081,-0.5219149 -0.46049,-0.8856115 -1.10254,-0.8759766 z"
       id="path27955"
       transform="matrix(0.26458333,0,0,0.26458333,69.350834,70.731659)" />
    <path
       style="font-variation-settings:normal;opacity:1;vector-effect:none;fill:none;fill-opacity:1;stroke-width:0.25;stroke-linecap:butt;stroke-linejoin:miter;stroke-miterlimit:4;stroke-dasharray:none;stroke-dashoffset:0;stroke-opacity:1;-inkscape-stroke:none;stop-color:#000000;stop-opacity:1"
       d="m 119.0918,110.02441 c -2.16978,1.03263 -0.59465,4.20388 -1.00731,6.14728 0.41737,13.40717 0.36895,26.89688 1.30223,40.24921 2.22964,1.34001 5.27534,-0.13115 7.7812,0.0767 35.06531,-2.97428 70.10836,-6.21318 105.1768,-9.14997 2.06301,-1.93198 0.32117,-5.81326 0.8474,-8.50648 -0.20553,-6.66859 0.14914,-13.46422 -0.40337,-20.05413 -2.91304,-1.3571 -6.8799,-0.66675 -10.18675,-1.2473 -34.50246,-2.492 -68.98498,-5.40331 -103.5102,-7.51534 z"
       id="path27994"
       transform="matrix(0.26458333,0,0,0.26458333,69.350834,70.731659)" />
    <path
       style="font-variation-settings:normal;opacity:1;vector-effect:none;fill:none;fill-opacity:1;stroke-width:0.25;stroke-linecap:butt;stroke-linejoin:miter;stroke-miterlimit:4;stroke-dasharray:none;stroke-dashoffset:0;stroke-opacity:1;-inkscape-stroke:none;stop-color:#000000;stop-opacity:1"
       d="m 115.90332,1.8242187 c -1.37218,2.3612281 0.0493,5.5473998 -0.26855,8.1953123 0.70493,13.020847 1.19831,26.070454 2.29394,39.05957 4.5321,2.552375 10.05136,3.508229 14.95645,5.454629 31.96724,10.615175 63.83977,21.537455 95.93808,31.743615 2.35482,-0.68352 1.42391,-4.18554 2.1785,-6.05211 0.56771,-5.260415 1.88697,-10.59587 1.61154,-15.869765 -8.72413,-5.40991 -18.0932,-9.938735 -27.07323,-14.987161 C 175.96149,33.454597 146.47278,17.360202 116.72852,1.7626953 l -0.49862,0.037175 z"
       id="path28033"
       transform="matrix(0.26458333,0,0,0.26458333,69.350834,70.731659)" />
    <path
       style="font-variation-settings:normal;opacity:1;vector-effect:none;fill:none;fill-opacity:1;stroke-width:0.25;stroke-linecap:butt;stroke-linejoin:miter;stroke-miterlimit:4;stroke-dasharray:none;stroke-dashoffset:0;stroke-opacity:1;-inkscape-stroke:none;stop-color:#000000;stop-opacity:1"
       d="M 114.50293,1.7226562 C 97.51503,11.157957 80.970965,21.484622 64.212535,31.359582 43.166629,44.047892 21.970043,56.502225 1.1396484,69.538085 c -1.08779622,2.46427 0.3581882,5.489175 0.3244352,8.12666 0.5311917,3.23969 0.668958,6.606785 1.6531039,9.74053 2.2651195,1.118985 4.979258,-0.97197 7.3906445,-1.11709 6.229911,-1.521025 12.377153,-3.4327 18.691387,-4.58213 1.077473,34.642925 1.998173,69.316925 2.793945,103.977535 -8.753924,-1.84442 -17.381977,-4.65302 -26.166992,-6.11133 -1.7884134,1.82442 -0.537202,5.03244 -0.9068285,7.36418 0.242473,6.21255 0.2160489,12.61694 1.363906,18.66184 11.1753395,6.37498 23.0057205,12.01541 34.4330755,18.10778 26.236905,13.57269 52.412205,27.26743 78.734845,40.67187 2.51613,0.19312 1.17688,-3.41379 1.63281,-4.84961 0.27229,-14.15029 0.12905,-28.30413 0.16602,-42.45606 -1.83786,-2.24007 -5.68185,-2.1063 -8.31103,-3.39877 -11.58652,-3.71971 -23.173115,-7.43914 -34.76026,-11.15689 0.0596,-15.94266 0.0051,-31.8864 0.2041,-47.82813 13.497885,0.53226 26.98056,2.18002 40.48438,2.1084 1.99281,-1.47618 0.19241,-4.87669 0.67643,-7.06148 -0.51485,-12.96568 -0.57586,-25.97408 -1.5319,-38.90922 -1.84245,-1.6394 -4.84235,-0.26931 -7.11524,-0.68164 -11.309325,0.19465 -22.610965,0.73122 -33.92187,0.83887 C 76.29645,95.99669 76.02622,81.002495 75.521485,66.004885 89.527475,60.56015 103.56631,55.19835 117.53711,49.664062 c 1.50193,-2.224974 -0.0157,-5.47479 0.3125,-8.077148 -0.704,-12.998074 -1.33149,-26.003241 -2.24414,-38.9882812 -0.25081,-0.5219149 -0.46049,-0.8856115 -1.10254,-0.8759766 z"
       id="path28072"
       transform="matrix(0.26458333,0,0,0.26458333,69.350834,70.731659)" />
    <path
       style="font-variation-settings:normal;opacity:1;vector-effect:none;fill:none;fill-opacity:1;stroke-width:0.25;stroke-linecap:butt;stroke-linejoin:miter;stroke-miterlimit:4;stroke-dasharray:none;stroke-dashoffset:0;stroke-opacity:1;-inkscape-stroke:none;stop-color:#000000;stop-opacity:1"
       d="m 119.0918,110.02441 c -2.16978,1.03263 -0.59465,4.20388 -1.00731,6.14728 0.41737,13.40717 0.36895,26.89688 1.30223,40.24921 2.22964,1.34001 5.27534,-0.13115 7.7812,0.0767 35.06531,-2.97428 70.10836,-6.21318 105.1768,-9.14997 2.06301,-1.93198 0.32117,-5.81326 0.8474,-8.50648 -0.20553,-6.66859 0.14914,-13.46422 -0.40337,-20.05413 -2.91304,-1.3571 -6.8799,-0.66675 -10.18675,-1.2473 -34.50246,-2.492 -68.98498,-5.40331 -103.5102,-7.51534 z"
       id="path28111"
       transform="matrix(0.26458333,0,0,0.26458333,69.350834,70.731659)" />
    <path
       style="font-variation-settings:normal;opacity:1;vector-effect:none;fill:none;fill-opacity:1;stroke-width:0.25;stroke-linecap:butt;stroke-linejoin:miter;stroke-miterlimit:4;stroke-dasharray:none;stroke-dashoffset:0;stroke-opacity:1;-inkscape-stroke:none;stop-color:#000000;stop-opacity:1"
       d="m 115.02539,-0.26171875 c -1.38005,-0.1467832 -2.17225,1.45860515 -1.26758,2.44238275 1.3385,15.278127 2.24433,30.793467 2.68164,46.166992 -13.90194,5.610929 -28.022656,10.938109 -42.041989,16.391604 -1.404244,2.394555 0.07138,5.764725 -0.234622,8.561185 0.576405,12.81883 0.588295,25.672605 1.431887,38.475915 1.986532,1.67829 5.150082,0.21631 7.575065,0.63212 11.154542,-0.22465 22.302849,-0.7429 33.460089,-0.82645 0.67547,14.58409 1.12067,29.25768 1.35645,43.8916 -13.38083,-0.54968 -26.753044,-1.74144 -40.143557,-2.2959 -2.056672,1.26695 -0.531975,4.49766 -1.047569,6.54978 -0.02281,14.4484 -0.197982,28.91041 0.165733,43.35061 2.538583,2.12338 6.377899,2.31169 9.412285,3.67267 11.030506,3.62558 22.086258,7.17304 33.130688,10.75604 -0.0938,15.17372 0.53639,30.37309 -0.0752,45.53223 -2.69385,0.84415 0.46598,3.67545 2.17383,3.40625 1.78479,-0.33982 1.50159,-2.24711 0.93555,-3.40918 -0.45189,-15.12224 -0.0207,-30.35387 -0.042,-45.5166 37.31674,-11.95458 74.60828,-23.99818 111.95508,-35.8457 0.87364,2.3371 2.95637,-0.10102 2.19922,-1.6836 -1.52375,-2.44808 -5.24931,-1.41065 -7.66845,-2.03348 -9.65091,-0.74442 -19.30284,-1.23555 -28.93409,-2.12472 -0.51291,-8.20635 -0.008,-16.44751 -0.0566,-24.66602 11.15563,-1.125 22.48085,-1.7042 33.53199,-3.16589 1.1433,-3.00415 0.20782,-6.90354 0.56491,-10.24092 -0.16514,-6.60803 0.58116,-13.40507 -0.15842,-19.89397 -6.22817,-1.52892 -12.84888,-1.22788 -19.23212,-1.95576 -4.81586,-0.34613 -9.63171,-0.69225 -14.44757,-1.03838 0.0217,-4.57681 -0.35164,-9.14347 -0.60938,-13.70996 10.34477,-4.391265 20.65007,-8.87853 30.91114,-13.460935 1.55265,-2.654105 1.03678,-6.208975 1.75571,-9.203575 0.41144,-4.898 1.70568,-9.879935 1.51479,-14.72709 -0.93559,-1.090075 -4.44479,-3.02622 -4.29297,-0.248045 1.32728,1.46593 2.37215,2.59407 1.47464,4.795445 -0.84333,5.23175 -1.04448,11.37419 -2.33206,16.11276 C 192.19353,72.534995 155.71563,60.457285 119.39844,48.169922 118.43583,33.124898 117.36123,17.873109 116.81348,2.9394531 c 3.44208,-0.4610751 -0.0581,-3.60259205 -1.78809,-3.20117185 z M 85.287109,71.282225 c 37.272741,10.072045 74.572551,20.0616 111.830081,30.175785 0.25246,4.31964 0.4342,8.68057 0.64453,13.0205 -27.85737,-1.31579 -55.61833,-4.71224 -83.5127,-5.52246 -12.12967,0.27393 -24.249944,0.83478 -36.377927,1.13184 -0.542136,-13.711555 -0.896182,-27.425835 -1.239257,-41.149415 2.885091,0.78125 5.770182,1.5625 8.655273,2.34375 z m 34.467771,40.301755 c 37.24682,2.55968 74.56651,5.15969 111.73309,8.27264 0.58928,4.38149 -0.004,9.76327 0.13047,14.52905 -0.0366,3.81383 -0.0731,7.62765 -0.10965,11.44148 -36.9337,3.13429 -73.84518,6.75281 -110.79395,9.55468 -0.41706,-14.60498 -1.02786,-29.19899 -1.20507,-43.80957 z M 197.25,151.5 c -0.1705,8.24228 0.34748,16.6541 -0.3125,24.77246 -39.12605,8.12687 -78.28721,16.10346 -117.449219,24.03711 -0.391709,-14.91451 -0.182432,-29.83692 -0.238281,-44.75488 13.459041,1.06817 26.95118,2.15494 40.44531,2.46191 25.87026,-1.84681 51.74041,-4.46729 77.55469,-6.5166 z"
       id="path28150"
       transform="matrix(0.26458333,0,0,0.26458333,69.350834,70.731659)" />
    <path
       style="font-variation-settings:normal;opacity:0;vector-effect:none;fill:none;fill-opacity:1;stroke-width:0.25;stroke-linecap:butt;stroke-linejoin:miter;stroke-miterlimit:4;stroke-dasharray:none;stroke-dashoffset:0;stroke-opacity:1;-inkscape-stroke:none;stop-color:#000000;stop-opacity:1"
       d="m 234.52832,180.52051 c -25.0738,7.09587 -49.76666,15.51654 -74.62952,23.32532 -12.74904,4.07199 -25.48124,8.17231 -38.24353,12.19909 -1.72635,1.90462 -0.34741,5.09758 -0.84266,7.48131 -0.10554,13.52939 -0.0473,27.05935 -0.0626,40.589 1.60642,2.43543 4.50306,-1.72222 6.59424,-2.1799 36.42839,-21.17004 72.93596,-42.20505 109.35986,-63.3826 1.35236,-2.09932 -0.0647,-5.0518 0.14648,-7.43652 -0.59549,-3.36296 -0.0675,-7.23582 -1.50538,-10.30524 -0.15335,-0.30908 -0.52228,-0.32298 -0.81688,-0.29046 z"
       id="path28189"
       transform="matrix(0.26458333,0,0,0.26458333,69.350834,70.731659)" />
    <path
       style="font-variation-settings:normal;opacity:1;vector-effect:none;fill:none;fill-opacity:1;stroke-width:0.25;stroke-linecap:butt;stroke-linejoin:miter;stroke-miterlimit:4;stroke-dasharray:none;stroke-dashoffset:0;stroke-opacity:1;-inkscape-stroke:none;stop-color:#000000;stop-opacity:1"
       d="m 234.52832,180.52051 c -25.0738,7.09587 -49.76666,15.51654 -74.62952,23.32532 -12.74904,4.07199 -25.48124,8.17231 -38.24353,12.19909 -1.72635,1.90462 -0.34741,5.09758 -0.84266,7.48131 -0.10554,13.52939 -0.0473,27.05935 -0.0626,40.589 1.60642,2.43543 4.50306,-1.72222 6.59424,-2.1799 36.42839,-21.17004 72.93596,-42.20505 109.35986,-63.3826 1.35236,-2.09932 -0.0647,-5.0518 0.14648,-7.43652 -0.59549,-3.36296 -0.0675,-7.23582 -1.50538,-10.30524 -0.15335,-0.30908 -0.52228,-0.32298 -0.81688,-0.29046 z"
       id="path54096"
       transform="matrix(0.26458333,0,0,0.26458333,69.350834,70.731659)" />
    <path
       style="font-variation-settings:normal;opacity:1;vector-effect:none;fill:none;fill-opacity:1;stroke-width:0.25;stroke-linecap:butt;stroke-linejoin:miter;stroke-miterlimit:4;stroke-dasharray:none;stroke-dashoffset:0;stroke-opacity:1;-inkscape-stroke:none;stop-color:#000000;stop-opacity:1"
       d="M 114.50293,1.7226562 C 97.51503,11.157957 80.970965,21.484622 64.212535,31.359582 43.166629,44.047892 21.970043,56.502225 1.1396484,69.538085 c -1.08779622,2.46427 0.3581882,5.489175 0.3244352,8.12666 0.5311917,3.23969 0.668958,6.606785 1.6531039,9.74053 2.2651195,1.118985 4.979258,-0.97197 7.3906445,-1.11709 6.229911,-1.521025 12.377153,-3.4327 18.691387,-4.58213 1.077473,34.642925 1.998173,69.316925 2.793945,103.977535 -8.753924,-1.84442 -17.381977,-4.65302 -26.166992,-6.11133 -1.7884134,1.82442 -0.537202,5.03244 -0.9068285,7.36418 0.242473,6.21255 0.2160489,12.61694 1.363906,18.66184 11.1753395,6.37498 23.0057205,12.01541 34.4330755,18.10778 26.236905,13.57269 52.412205,27.26743 78.734845,40.67187 2.51613,0.19312 1.17688,-3.41379 1.63281,-4.84961 0.27229,-14.15029 0.12905,-28.30413 0.16602,-42.45606 -1.83786,-2.24007 -5.68185,-2.1063 -8.31103,-3.39877 -11.58652,-3.71971 -23.173115,-7.43914 -34.76026,-11.15689 0.0596,-15.94266 0.0051,-31.8864 0.2041,-47.82813 13.497885,0.53226 26.98056,2.18002 40.48438,2.1084 1.99281,-1.47618 0.19241,-4.87669 0.67643,-7.06148 -0.51485,-12.96568 -0.57586,-25.97408 -1.5319,-38.90922 -1.84245,-1.6394 -4.84235,-0.26931 -7.11524,-0.68164 -11.309325,0.19465 -22.610965,0.73122 -33.92187,0.83887 C 76.29645,95.99669 76.02622,81.002495 75.521485,66.004885 89.527475,60.56015 103.56631,55.19835 117.53711,49.664062 c 1.50193,-2.224974 -0.0157,-5.47479 0.3125,-8.077148 -0.704,-12.998074 -1.33149,-26.003241 -2.24414,-38.9882812 -0.25081,-0.5219149 -0.46049,-0.8856115 -1.10254,-0.8759766 z"
       id="path54135"
       transform="matrix(0.26458333,0,0,0.26458333,69.350834,70.731659)" />
    <path
       style="font-variation-settings:normal;opacity:1;vector-effect:none;fill:none;fill-opacity:1;stroke-width:0.25;stroke-linecap:butt;stroke-linejoin:miter;stroke-miterlimit:4;stroke-dasharray:none;stroke-dashoffset:0;stroke-opacity:1;-inkscape-stroke:none;stop-color:#000000;stop-opacity:1"
       d="m 119.0918,110.02441 c -2.16978,1.03263 -0.59465,4.20388 -1.00731,6.14728 0.41737,13.40717 0.36895,26.89688 1.30223,40.24921 2.22964,1.34001 5.27534,-0.13115 7.7812,0.0767 35.06531,-2.97428 70.10836,-6.21318 105.1768,-9.14997 2.06301,-1.93198 0.32117,-5.81326 0.8474,-8.50648 -0.20553,-6.66859 0.14914,-13.46422 -0.40337,-20.05413 -2.91304,-1.3571 -6.8799,-0.66675 -10.18675,-1.2473 -34.50246,-2.492 -68.98498,-5.40331 -103.5102,-7.51534 z"
       id="path54174"
       transform="matrix(0.26458333,0,0,0.26458333,69.350834,70.731659)" />
    <path
       style="font-variation-settings:normal;opacity:1;vector-effect:none;fill:none;fill-opacity:1;stroke-width:0.25;stroke-linecap:butt;stroke-linejoin:miter;stroke-miterlimit:4;stroke-dasharray:none;stroke-dashoffset:0;stroke-opacity:1;-inkscape-stroke:none;stop-color:#000000;stop-opacity:1"
       d="m 115.90332,1.8242187 c -1.37218,2.3612281 0.0493,5.5473998 -0.26855,8.1953123 0.70493,13.020847 1.19831,26.070454 2.29394,39.05957 4.5321,2.552375 10.05136,3.508229 14.95645,5.454629 31.96724,10.615175 63.83977,21.537455 95.93808,31.743615 2.35482,-0.68352 1.42391,-4.18554 2.1785,-6.05211 0.56771,-5.260415 1.88697,-10.59587 1.61154,-15.869765 -8.72413,-5.40991 -18.0932,-9.938735 -27.07323,-14.987161 C 175.96149,33.454597 146.47278,17.360202 116.72852,1.7626953 l -0.49862,0.037175 z"
       id="path54213"
       transform="matrix(0.26458333,0,0,0.26458333,69.350834,70.731659)" />
    <path
       style="font-variation-settings:normal;opacity:0.658;vector-effect:none;fill:#666666;fill-opacity:1;stroke-width:0.25;stroke-linecap:butt;stroke-linejoin:miter;stroke-miterlimit:4;stroke-dasharray:none;stroke-dashoffset:0;stroke-opacity:1;-inkscape-stroke:none;stop-color:#000000;stop-opacity:1"
       d="m 75.704101,67.96582 c -0.977428,3.63707 -0.0522,7.718837 -0.273291,11.507599 0.323863,10.423673 0.29339,20.892691 1.118994,31.281461 1.984719,1.61798 5.080269,0.20448 7.47168,0.62403 13.316399,-0.0716 26.647136,-1.11341 39.948076,-0.75574 24.56822,1.76429 49.10683,4.10643 73.70485,5.36454 3.35744,-0.30569 0.82895,-5.23352 1.36731,-7.53144 -0.55223,-2.67048 0.43874,-6.0175 -1.15989,-8.29611 -39.8443,-11.098324 -79.8433,-21.671148 -119.865229,-32.120121 -0.786617,-0.14767 -1.54874,-0.571854 -2.3125,-0.07422 z"
       id="path54252"
       transform="matrix(0.26458333,0,0,0.26458333,69.350834,70.731659)" />
    <path
       style="font-variation-settings:normal;opacity:1;vector-effect:none;fill:none;fill-opacity:1;stroke-width:0.25;stroke-linecap:butt;stroke-linejoin:miter;stroke-miterlimit:4;stroke-dasharray:none;stroke-dashoffset:0;stroke-opacity:1;-inkscape-stroke:none;stop-color:#000000;stop-opacity:1"
       d="m 196.49511,150.00195 c -26.3416,2.02968 -52.65141,4.94127 -78.99475,6.5513 -13.02216,-0.5937 -26.166204,-1.78806 -39.129334,-2.46556 -1.410123,2.37304 -0.235974,5.98375 -0.621026,8.83223 0.139641,12.86591 -0.277895,25.85253 0.206946,38.64364 1.987262,1.14884 4.840301,-0.72352 7.163171,-0.7745 37.606243,-7.70016 75.219163,-15.36763 112.830073,-23.04492 1.83852,-2.10547 0.29119,-5.77337 0.79981,-8.47949 -0.22576,-6.31536 0.45475,-12.82708 -0.34278,-19.01856 -0.59117,-0.36149 -1.25961,-0.22591 -1.91211,-0.24414 z"
       id="path55623"
       transform="matrix(0.26458333,0,0,0.26458333,69.350834,70.731659)" />
    <path
       style="font-variation-settings:normal;opacity:0.65671642;vector-effect:none;fill:#808080;fill-opacity:1;stroke-width:0.25;stroke-linecap:butt;stroke-linejoin:miter;stroke-miterlimit:4;stroke-dasharray:none;stroke-dashoffset:0;stroke-opacity:1;-inkscape-stroke:none;stop-color:#000000;stop-opacity:1"
       d="m 196.49511,150.00195 c -26.3416,2.02968 -52.65141,4.94127 -78.99475,6.5513 -13.02216,-0.5937 -26.166204,-1.78806 -39.129334,-2.46556 -1.410123,2.37304 -0.235974,5.98375 -0.621026,8.83223 0.139641,12.86591 -0.277895,25.85253 0.206946,38.64364 1.987262,1.14884 4.840301,-0.72352 7.163171,-0.7745 37.606243,-7.70016 75.219163,-15.36763 112.830073,-23.04492 1.83852,-2.10547 0.29119,-5.77337 0.79981,-8.47949 -0.22576,-6.31536 0.45475,-12.82708 -0.34278,-19.01856 -0.59117,-0.36149 -1.25961,-0.22591 -1.91211,-0.24414 z"
       id="path55662"
       transform="matrix(0.26458333,0,0,0.26458333,69.350834,70.731659)" />
    <path
       style="font-variation-settings:normal;opacity:1;vector-effect:none;fill:none;fill-opacity:1;stroke-width:0.25;stroke-linecap:butt;stroke-linejoin:miter;stroke-miterlimit:4;stroke-dasharray:none;stroke-dashoffset:0;stroke-opacity:1;-inkscape-stroke:none;stop-color:#000000;stop-opacity:1"
       d="M 114.50293,1.7226562 C 97.51503,11.157958 80.970965,21.484622 64.212535,31.359582 43.166629,44.047893 21.970043,56.502225 1.1396485,69.538085 c -1.08779632,2.46427 0.3581881,5.489175 0.3244351,8.12666 0.5311917,3.23969 0.668958,6.606785 1.6531039,9.74053 2.2651195,1.118985 4.979258,-0.97197 7.3906445,-1.11709 6.229911,-1.521025 12.377153,-3.4327 18.691387,-4.58213 1.077473,34.642925 1.998173,69.316925 2.793945,103.977535 -8.753924,-1.84442 -17.381976,-4.65302 -26.166992,-6.11133 -1.7884134,1.82442 -0.537202,5.03244 -0.9068285,7.36418 0.242473,6.21255 0.2160489,12.61694 1.363906,18.66184 11.1753395,6.37498 23.0057205,12.01541 34.4330755,18.10778 26.236905,13.57269 52.412205,27.26744 78.734845,40.67187 2.51613,0.19312 1.17689,-3.41379 1.63282,-4.84961 0.27228,-14.15029 0.12905,-28.30413 0.16601,-42.45606 -1.83786,-2.24006 -5.68185,-2.1063 -8.31103,-3.39877 -11.58651,-3.71971 -23.173115,-7.43914 -34.76026,-11.15689 0.0596,-15.94266 0.0051,-31.8864 0.2041,-47.82813 13.497885,0.53226 26.98056,2.18002 40.48438,2.1084 1.99281,-1.47618 0.19241,-4.87669 0.67644,-7.06148 -0.51486,-12.96568 -0.57586,-25.97408 -1.53191,-38.90922 -1.84245,-1.6394 -4.84234,-0.2693 -7.11523,-0.68164 -11.309335,0.19466 -22.610975,0.73122 -33.92188,0.83887 C 76.29645,95.99669 76.02622,81.002495 75.521485,66.004885 89.527475,60.56015 103.56631,55.19835 117.53711,49.664062 c 1.50194,-2.224974 -0.0157,-5.47479 0.3125,-8.077148 -0.704,-12.998074 -1.33149,-26.003241 -2.24414,-38.9882812 -0.25081,-0.5219149 -0.46049,-0.8856115 -1.10254,-0.8759766 z"
       id="path93346"
       transform="matrix(0.26458333,0,0,0.26458333,69.350834,70.731659)" />
    <path
       style="font-variation-settings:normal;opacity:1;vector-effect:none;fill:none;fill-opacity:1;stroke-width:0.25;stroke-linecap:butt;stroke-linejoin:miter;stroke-miterlimit:4;stroke-dasharray:none;stroke-dashoffset:0;stroke-opacity:1;-inkscape-stroke:none;stop-color:#000000;stop-opacity:1"
       d="m 115.90332,1.8242187 c -1.37218,2.3612281 0.0493,5.5473998 -0.26855,8.1953123 0.70493,13.020847 1.19831,26.070454 2.29394,39.05957 4.5321,2.552375 10.05137,3.508229 14.95645,5.454629 31.96724,10.615175 63.83978,21.537455 95.93808,31.743615 2.35482,-0.68352 1.42392,-4.18554 2.1785,-6.05211 0.56771,-5.260415 1.88697,-10.59587 1.61154,-15.869765 -8.72413,-5.40991 -18.0932,-9.938735 -27.07323,-14.98716 C 175.9615,33.454597 146.47278,17.360202 116.72852,1.7626953 l -0.49862,0.037175 z"
       id="path93385"
       transform="matrix(0.26458333,0,0,0.26458333,69.350834,70.731659)" />
    <path
       style="font-variation-settings:normal;opacity:1;vector-effect:none;fill:none;fill-opacity:1;stroke-width:0.25;stroke-linecap:butt;stroke-linejoin:miter;stroke-miterlimit:4;stroke-dasharray:none;stroke-dashoffset:0;stroke-opacity:1;-inkscape-stroke:none;stop-color:#000000;stop-opacity:1"
       d="m 115.90332,1.8242187 c -1.37218,2.3612281 0.0493,5.5473998 -0.26855,8.1953123 0.70493,13.020847 1.19831,26.070454 2.29394,39.05957 4.5321,2.552375 10.05137,3.508229 14.95645,5.454629 31.96724,10.615175 63.83978,21.537455 95.93808,31.743615 2.35482,-0.68352 1.42392,-4.18554 2.1785,-6.05211 0.56771,-5.260415 1.88697,-10.59587 1.61154,-15.869765 -8.72413,-5.40991 -18.0932,-9.938735 -27.07323,-14.98716 C 175.9615,33.454597 146.47278,17.360202 116.72852,1.7626953 l -0.49862,0.037175 z"
       id="path93535"
       transform="matrix(0.26458333,0,0,0.26458333,69.350834,70.731659)" />
    <path
       style="font-variation-settings:normal;opacity:1;vector-effect:none;fill:none;fill-opacity:1;stroke-width:0.25;stroke-linecap:butt;stroke-linejoin:miter;stroke-miterlimit:4;stroke-dasharray:none;stroke-dashoffset:0;stroke-opacity:1;-inkscape-stroke:none;stop-color:#000000;stop-opacity:1"
       d="m 115.90332,1.8242187 c -1.37218,2.3612281 0.0493,5.5473998 -0.26855,8.1953123 0.70493,13.020847 1.19831,26.070454 2.29394,39.05957 4.5321,2.552375 10.05137,3.508229 14.95645,5.454629 31.96724,10.615175 63.83978,21.537455 95.93808,31.743615 2.35482,-0.68352 1.42392,-4.18554 2.1785,-6.05211 0.56771,-5.260415 1.88697,-10.59587 1.61154,-15.869765 -8.72413,-5.40991 -18.0932,-9.938735 -27.07323,-14.98716 C 175.9615,33.454597 146.47278,17.360202 116.72852,1.7626953 l -0.49862,0.037175 z"
       id="path93574"
       transform="matrix(0.26458333,0,0,0.26458333,69.350834,70.731659)" />
    <path
       style="font-variation-settings:normal;opacity:1;vector-effect:none;fill:none;fill-opacity:1;stroke-width:0.25;stroke-linecap:butt;stroke-linejoin:miter;stroke-miterlimit:4;stroke-dasharray:none;stroke-dashoffset:0;stroke-opacity:1;-inkscape-stroke:none;stop-color:#000000;stop-opacity:1"
       d="m 119.0918,110.02441 c -2.16978,1.03263 -0.59465,4.20388 -1.00731,6.14728 0.41737,13.40717 0.36895,26.89688 1.30223,40.24921 2.22964,1.34001 5.27534,-0.13115 7.7812,0.0767 35.06531,-2.97428 70.10836,-6.21318 105.1768,-9.14997 2.06301,-1.93198 0.32117,-5.81326 0.8474,-8.50648 -0.20553,-6.66859 0.14915,-13.46422 -0.40337,-20.05413 -2.91303,-1.3571 -6.87989,-0.66675 -10.18674,-1.2473 -34.50247,-2.492 -68.98499,-5.40331 -103.51021,-7.51534 z"
       id="path93613"
       transform="matrix(0.26458333,0,0,0.26458333,69.350834,70.731659)" />
    <path
       style="font-variation-settings:normal;opacity:1;vector-effect:none;fill:none;fill-opacity:1;stroke-width:0.25;stroke-linecap:butt;stroke-linejoin:miter;stroke-miterlimit:4;stroke-dasharray:none;stroke-dashoffset:0;stroke-opacity:1;-inkscape-stroke:none;stop-color:#000000;stop-opacity:1"
       d="m 119.0918,110.02441 c -2.16978,1.03263 -0.59465,4.20388 -1.00731,6.14728 0.41737,13.40717 0.36895,26.89688 1.30223,40.24921 2.22964,1.34001 5.27534,-0.13115 7.7812,0.0767 35.06531,-2.97428 70.10836,-6.21318 105.1768,-9.14997 2.06301,-1.93198 0.32117,-5.81326 0.8474,-8.50648 -0.20553,-6.66859 0.14915,-13.46422 -0.40337,-20.05413 -2.91303,-1.3571 -6.87989,-0.66675 -10.18674,-1.2473 -34.50247,-2.492 -68.98499,-5.40331 -103.51021,-7.51534 z"
       id="path93689"
       transform="matrix(0.26458333,0,0,0.26458333,69.350834,70.731659)" />
    <path
       style="font-variation-settings:normal;opacity:1;vector-effect:none;fill:none;fill-opacity:1;stroke-width:0.25;stroke-linecap:butt;stroke-linejoin:miter;stroke-miterlimit:4;stroke-dasharray:none;stroke-dashoffset:0;stroke-opacity:1;-inkscape-stroke:none;stop-color:#000000;stop-opacity:1"
       d="m 234.52832,180.52051 c -25.0738,7.09587 -49.76666,15.51654 -74.62952,23.32532 -12.74904,4.07199 -25.48124,8.17231 -38.24353,12.19909 -1.72635,1.90462 -0.34741,5.09758 -0.84265,7.48131 -0.10555,13.52939 -0.0472,27.05935 -0.0626,40.589 1.60642,2.43543 4.50306,-1.72222 6.59424,-2.1799 36.42839,-21.17004 72.93596,-42.20505 109.35986,-63.3826 1.35236,-2.09932 -0.0647,-5.0518 0.14648,-7.43652 -0.59549,-3.36296 -0.0675,-7.23582 -1.50537,-10.30524 -0.15336,-0.30907 -0.52229,-0.32298 -0.81689,-0.29046 z"
       id="path93728"
       transform="matrix(0.26458333,0,0,0.26458333,69.350834,70.731659)" />
    <path
       style="font-variation-settings:normal;opacity:1;vector-effect:none;fill:none;fill-opacity:1;stroke-width:0.25;stroke-linecap:butt;stroke-linejoin:miter;stroke-miterlimit:4;stroke-dasharray:none;stroke-dashoffset:0;stroke-opacity:1;-inkscape-stroke:none;stop-color:#000000;stop-opacity:1"
       d="m 234.52832,180.52051 c -25.0738,7.09587 -49.76666,15.51654 -74.62952,23.32532 -12.74904,4.07199 -25.48124,8.17231 -38.24353,12.19909 -1.72635,1.90462 -0.34741,5.09758 -0.84265,7.48131 -0.10555,13.52939 -0.0472,27.05935 -0.0626,40.589 1.60642,2.43543 4.50306,-1.72222 6.59424,-2.1799 36.42839,-21.17004 72.93596,-42.20505 109.35986,-63.3826 1.35236,-2.09932 -0.0647,-5.0518 0.14648,-7.43652 -0.59549,-3.36296 -0.0675,-7.23582 -1.50537,-10.30524 -0.15336,-0.30907 -0.52229,-0.32298 -0.81689,-0.29046 z"
       id="path93804"
       transform="matrix(0.26458333,0,0,0.26458333,69.350834,70.731659)" />
    <path
       style="font-variation-settings:normal;opacity:1;vector-effect:none;fill:#000080;fill-opacity:1;stroke-width:0.25;stroke-linecap:butt;stroke-linejoin:miter;stroke-miterlimit:4;stroke-dasharray:none;stroke-dashoffset:0;stroke-opacity:1;-inkscape-stroke:none;stop-color:#000000;stop-opacity:1"
       d="M 114.50293,1.7226562 C 97.51503,11.157958 80.970965,21.484622 64.212535,31.359582 43.166629,44.047893 21.970043,56.502225 1.1396485,69.538085 c -1.08779632,2.46427 0.3581881,5.489175 0.3244351,8.12666 0.5311917,3.23969 0.668958,6.606785 1.6531039,9.74053 2.2651195,1.118985 4.979258,-0.97197 7.3906445,-1.11709 6.229911,-1.521025 12.377153,-3.4327 18.691387,-4.58213 1.077473,34.642925 1.998173,69.316925 2.793945,103.977535 -8.753924,-1.84442 -17.381976,-4.65302 -26.166992,-6.11133 -1.7884134,1.82442 -0.537202,5.03244 -0.9068285,7.36418 0.242473,6.21255 0.2160489,12.61694 1.363906,18.66184 11.1753395,6.37498 23.0057205,12.01541 34.4330755,18.10778 26.236905,13.57269 52.412205,27.26744 78.734845,40.67187 2.51613,0.19312 1.17689,-3.41379 1.63282,-4.84961 0.27228,-14.15029 0.12905,-28.30413 0.16601,-42.45606 -1.83786,-2.24006 -5.68185,-2.1063 -8.31103,-3.39877 -11.58651,-3.71971 -23.173115,-7.43914 -34.76026,-11.15689 0.0596,-15.94266 0.0051,-31.8864 0.2041,-47.82813 13.497885,0.53226 26.98056,2.18002 40.48438,2.1084 1.99281,-1.47618 0.19241,-4.87669 0.67644,-7.06148 -0.51486,-12.96568 -0.57586,-25.97408 -1.53191,-38.90922 -1.84245,-1.6394 -4.84234,-0.2693 -7.11523,-0.68164 -11.309335,0.19466 -22.610975,0.73122 -33.92188,0.83887 C 76.29645,95.99669 76.02622,81.002495 75.521485,66.004885 89.527475,60.56015 103.56631,55.19835 117.53711,49.664062 c 1.50194,-2.224974 -0.0157,-5.47479 0.3125,-8.077148 -0.704,-12.998074 -1.33149,-26.003241 -2.24414,-38.9882812 -0.25081,-0.5219149 -0.46049,-0.8856115 -1.10254,-0.8759766 z"
       id="path93843"
       transform="matrix(0.26458333,0,0,0.26458333,69.350834,70.731659)" />
    <path
       style="font-variation-settings:normal;opacity:1;vector-effect:none;fill:none;fill-opacity:1;stroke-width:0.25;stroke-linecap:butt;stroke-linejoin:miter;stroke-miterlimit:4;stroke-dasharray:none;stroke-dashoffset:0;stroke-opacity:1;-inkscape-stroke:none;stop-color:#000000;stop-opacity:1"
       d="M 114.72168,1.2578125 C 107.92439,3.7295105 101.9799,8.1903575 95.629135,11.624821 65.022125,29.963185 34.215255,47.986026 3.9576905,66.897485 2.1854767,68.17507 -0.81831435,69.40426 0.06542969,72.146485 0.71224985,77.289785 0.8445787,82.65017 2.4072265,87.59375 4.778192,89.533955 8.162411,87.39296 10.817536,87.15489 16.613254,85.737095 22.361492,84.12335 28.189453,82.838865 29.56256,116.69485 30.093966,150.59324 31.125,184.46289 22.547676,182.8196 14.116312,180.03466 5.5362665,178.73848 c -2.2949202,2.45769 -0.9962594,6.60564 -1.3092468,9.78382 0.3178942,5.8289 -0.071647,11.91607 1.4353738,17.53626 14.3752095,8.30032 29.4970435,15.58849 44.2108565,23.40111 22.56729,11.52495 44.86972,23.58354 67.61793,34.74548 1.43589,1.187 4.12256,0.94835 4.0557,-1.34187 0.97755,-14.57663 0.77744,-29.22824 0.49754,-43.82919 0.25176,-2.04677 -0.76303,-3.95514 -2.98289,-4.12296 -13.09902,-4.5487 -26.37264,-8.57138 -39.52149,-12.9707 -0.3303,-15.41917 -0.548405,-30.87222 0.01074,-46.28321 12.54951,0.27647 25.56365,2.14934 38.32715,1.69922 2.03924,0.24076 3.02959,-1.59619 2.54101,-3.39941 -0.37834,-14.06367 -0.46764,-28.17429 -1.63476,-42.1914 -0.24314,-3.22139 -4.04413,-2.37207 -6.24508,-2.39082 -11.53903,0.10238 -23.07255,0.57469 -34.61234,0.59589 -0.71813,-14.429805 -1.143645,-28.916005 -1.41309,-43.380855 13.724285,-5.54724 27.77869,-10.35339 41.24805,-16.490236 2.37797,-1.682856 0.58062,-5.24025 1.00162,-7.645031 -0.85655,-13.418613 -1.12701,-26.902866 -2.58365,-40.2680545 -0.17394,-0.6218861 -0.83332,-0.9966758 -1.45801,-0.928711 z"
       id="path93919"
       transform="matrix(0.26458333,0,0,0.26458333,69.350834,70.731659)" />
    <path
       style="font-variation-settings:normal;opacity:1;vector-effect:none;fill:none;fill-opacity:1;stroke-width:0.25;stroke-linecap:butt;stroke-linejoin:miter;stroke-miterlimit:4;stroke-dasharray:none;stroke-dashoffset:0;stroke-opacity:1;-inkscape-stroke:none;stop-color:#000000;stop-opacity:1"
       d="M 114.72168,1.2578125 C 107.92439,3.7295105 101.9799,8.1903575 95.629135,11.624821 65.022125,29.963185 34.215255,47.986026 3.9576905,66.897485 2.1854767,68.17507 -0.81831435,69.40426 0.06542969,72.146485 0.71224985,77.289785 0.8445787,82.65017 2.4072265,87.59375 4.778192,89.533955 8.162411,87.39296 10.817536,87.15489 16.613254,85.737095 22.361492,84.12335 28.189453,82.838865 29.56256,116.69485 30.093966,150.59324 31.125,184.46289 22.547676,182.8196 14.116312,180.03466 5.5362665,178.73848 c -2.2949202,2.45769 -0.9962594,6.60564 -1.3092468,9.78382 0.3178942,5.8289 -0.071647,11.91607 1.4353738,17.53626 14.3752095,8.30032 29.4970435,15.58849 44.2108565,23.40111 22.56729,11.52495 44.86972,23.58354 67.61793,34.74548 1.43589,1.187 4.12256,0.94835 4.0557,-1.34187 0.97755,-14.57663 0.77744,-29.22824 0.49754,-43.82919 0.25176,-2.04677 -0.76303,-3.95514 -2.98289,-4.12296 -13.09902,-4.5487 -26.37264,-8.57138 -39.52149,-12.9707 -0.3303,-15.41917 -0.548405,-30.87222 0.01074,-46.28321 12.54951,0.27647 25.56365,2.14934 38.32715,1.69922 2.03924,0.24076 3.02959,-1.59619 2.54101,-3.39941 -0.37834,-14.06367 -0.46764,-28.17429 -1.63476,-42.1914 -0.24314,-3.22139 -4.04413,-2.37207 -6.24508,-2.39082 -11.53903,0.10238 -23.07255,0.57469 -34.61234,0.59589 -0.71813,-14.429805 -1.143645,-28.916005 -1.41309,-43.380855 13.724285,-5.54724 27.77869,-10.35339 41.24805,-16.490236 2.37797,-1.682856 0.58062,-5.24025 1.00162,-7.645031 -0.85655,-13.418613 -1.12701,-26.902866 -2.58365,-40.2680545 -0.17394,-0.6218861 -0.83332,-0.9966758 -1.45801,-0.928711 z"
       id="path93958"
       transform="matrix(0.26458333,0,0,0.26458333,69.350834,70.731659)" />
    <path
       style="font-variation-settings:normal;opacity:1;vector-effect:none;fill:none;fill-opacity:1;stroke-width:0.25;stroke-linecap:butt;stroke-linejoin:miter;stroke-miterlimit:4;stroke-dasharray:none;stroke-dashoffset:0;stroke-opacity:1;-inkscape-stroke:none;stop-color:#000000;stop-opacity:1"
       d="M 114.72168,1.2578125 C 107.92439,3.7295105 101.9799,8.1903575 95.629135,11.624821 65.022125,29.963185 34.215255,47.986026 3.9576905,66.897485 2.1854767,68.17507 -0.81831435,69.40426 0.06542969,72.146485 0.71224985,77.289785 0.8445787,82.65017 2.4072265,87.59375 4.778192,89.533955 8.162411,87.39296 10.817536,87.15489 16.613254,85.737095 22.361492,84.12335 28.189453,82.838865 29.56256,116.69485 30.093966,150.59324 31.125,184.46289 22.547676,182.8196 14.116312,180.03466 5.5362665,178.73848 c -2.2949202,2.45769 -0.9962594,6.60564 -1.3092468,9.78382 0.3178942,5.8289 -0.071647,11.91607 1.4353738,17.53626 14.3752095,8.30032 29.4970435,15.58849 44.2108565,23.40111 22.56729,11.52495 44.86972,23.58354 67.61793,34.74548 1.43589,1.187 4.12256,0.94835 4.0557,-1.34187 0.97755,-14.57663 0.77744,-29.22824 0.49754,-43.82919 0.25176,-2.04677 -0.76303,-3.95514 -2.98289,-4.12296 -13.09902,-4.5487 -26.37264,-8.57138 -39.52149,-12.9707 -0.3303,-15.41917 -0.548405,-30.87222 0.01074,-46.28321 12.54951,0.27647 25.56365,2.14934 38.32715,1.69922 2.03924,0.24076 3.02959,-1.59619 2.54101,-3.39941 -0.37834,-14.06367 -0.46764,-28.17429 -1.63476,-42.1914 -0.24314,-3.22139 -4.04413,-2.37207 -6.24508,-2.39082 -11.53903,0.10238 -23.07255,0.57469 -34.61234,0.59589 -0.71813,-14.429805 -1.143645,-28.916005 -1.41309,-43.380855 13.724285,-5.54724 27.77869,-10.35339 41.24805,-16.490236 2.37797,-1.682856 0.58062,-5.24025 1.00162,-7.645031 -0.85655,-13.418613 -1.12701,-26.902866 -2.58365,-40.2680545 -0.17394,-0.6218861 -0.83332,-0.9966758 -1.45801,-0.928711 z"
       id="path93997"
       transform="matrix(0.26458333,0,0,0.26458333,69.350834,70.731659)" />
    <path
       style="font-variation-settings:normal;opacity:1;fill:url(#linearGradient100587);fill-opacity:1;stop-color:#000000;stop-opacity:1;stroke:#000000;stroke-width:1.75748033;stroke-miterlimit:4;stroke-dasharray:none;stroke-opacity:1"
       d="M 114.72168,1.2578125 C 107.92439,3.7295105 101.9799,8.1903575 95.629135,11.624821 65.022125,29.963185 34.215255,47.986026 3.9576905,66.897485 2.1854767,68.17507 -0.81831435,69.40426 0.06542969,72.146485 0.71224985,77.289785 0.8445787,82.65017 2.4072265,87.59375 4.778192,89.533955 8.162411,87.39296 10.817536,87.15489 16.613254,85.737095 22.361492,84.12335 28.189453,82.838865 29.56256,116.69485 30.093966,150.59324 31.125,184.46289 22.547676,182.8196 14.116312,180.03466 5.5362665,178.73848 c -2.2949202,2.45769 -0.9962594,6.60564 -1.3092468,9.78382 0.3178942,5.8289 -0.071647,11.91607 1.4353738,17.53626 14.3752095,8.30032 29.4970435,15.58849 44.2108565,23.40111 22.56729,11.52495 44.86972,23.58354 67.61793,34.74548 1.43589,1.187 4.12256,0.94835 4.0557,-1.34187 0.97755,-14.57663 0.77744,-29.22824 0.49754,-43.82919 0.25176,-2.04677 -0.76303,-3.95514 -2.98289,-4.12296 -13.09902,-4.5487 -26.37264,-8.57138 -39.52149,-12.9707 -0.3303,-15.41917 -0.548405,-30.87222 0.01074,-46.28321 12.54951,0.27647 25.56365,2.14934 38.32715,1.69922 2.03924,0.24076 3.02959,-1.59619 2.54101,-3.39941 -0.37834,-14.06367 -0.46764,-28.17429 -1.63476,-42.1914 -0.24314,-3.22139 -4.04413,-2.37207 -6.24508,-2.39082 -11.53903,0.10238 -23.07255,0.57469 -34.61234,0.59589 -0.71813,-14.429805 -1.143645,-28.916005 -1.41309,-43.380855 13.724285,-5.54724 27.77869,-10.35339 41.24805,-16.490236 2.37797,-1.682856 0.58062,-5.24025 1.00162,-7.645031 -0.85655,-13.418613 -1.12701,-26.902866 -2.58365,-40.2680545 -0.17394,-0.6218861 -0.83332,-0.9966758 -1.45801,-0.928711 z"
       id="path94036"
       transform="matrix(0.26458333,0,0,0.26458333,69.350834,70.731659)" />
    <path
       style="font-variation-settings:normal;opacity:1;vector-effect:none;fill:none;fill-opacity:1;stroke-width:0.25;stroke-linecap:butt;stroke-linejoin:miter;stroke-miterlimit:4;stroke-dasharray:none;stroke-dashoffset:0;stroke-opacity:1;-inkscape-stroke:none;stop-color:#000000;stop-opacity:1"
       d="m 117.12891,2.0439453 c -1.77514,1.2058642 -0.0275,3.6521711 -0.37719,5.3831786 1.0867,13.8945151 1.68777,27.9008221 2.43676,41.8570551 2.0751,2.222489 5.96256,2.23159 8.74258,3.586186 33.62698,11.14236 67.1375,22.657255 100.89023,33.406 2.35764,-0.678945 1.42543,-4.18516 2.18045,-6.05113 0.56772,-5.260415 1.88695,-10.595875 1.61154,-15.869765 C 220.88496,57.41326 208.59521,51.239195 196.64861,44.601444 170.40075,30.416223 144.18709,16.166326 117.87207,2.1064453 c -0.23223,0.1539193 -0.50435,-0.1421018 -0.74316,-0.0625 z"
       id="path108018"
       transform="matrix(0.26458333,0,0,0.26458333,69.350834,70.731659)" />
    <path
       style="font-variation-settings:normal;opacity:1;vector-effect:none;fill:none;fill-opacity:1;stroke-width:0.25;stroke-linecap:butt;stroke-linejoin:miter;stroke-miterlimit:4;stroke-dasharray:none;stroke-dashoffset:0;stroke-opacity:1;-inkscape-stroke:none;stop-color:#000000;stop-opacity:1"
       d="M 51.222656,38.232422 C 44.20867,42.363548 37.131864,46.550707 30.384765,51.041992 28.56545,58.550024 28.775168,66.449657 28.25,74.137696 c -0.425023,12.586244 0.969142,25.077459 1.024899,37.684614 0.619871,24.20156 1.325385,48.45578 1.863773,72.623 -3.069948,-0.19072 -6.140738,-1.71857 -9.144531,-1.56445 -1.911929,2.39578 -0.989309,6.0471 -1.575955,8.9174 -0.38555,7.06537 -1.080671,14.14787 -1.066624,21.21639 4.711929,3.43426 10.400239,5.65813 15.482292,8.61995 2.003147,1.21679 6.4137,4.13099 5.824349,-0.43441 4.064224,-60.65485 8.042389,-121.316345 11.921875,-181.983393 -0.05836,-0.704384 -0.696126,-1.157115 -1.357422,-0.984375 z"
       id="path108057"
       transform="matrix(0.26458333,0,0,0.26458333,69.350834,70.731659)" />
    <path
       style="font-variation-settings:normal;opacity:1;fill:none;fill-opacity:1;stroke-width:1.76125986;stroke-linecap:butt;stroke-linejoin:miter;stroke-miterlimit:4;stroke-dasharray:none;stroke-dashoffset:0;stroke-opacity:1;stop-color:#000000;stop-opacity:1;stroke:#000000"
       d="m 117.12891,2.0439453 c -1.77514,1.2058642 -0.0275,3.6521711 -0.37719,5.3831786 1.0867,13.8945151 1.68777,27.9008221 2.43676,41.8570551 2.0751,2.222489 5.96256,2.23159 8.74258,3.586186 33.62698,11.14236 67.1375,22.657255 100.89023,33.406 2.35764,-0.678945 1.42543,-4.18516 2.18045,-6.05113 0.56772,-5.260415 1.88695,-10.595875 1.61154,-15.869765 C 220.88496,57.41326 208.59521,51.239195 196.64861,44.601444 170.40075,30.416223 144.18709,16.166326 117.87207,2.1064453 c -0.23223,0.1539193 -0.50435,-0.1421018 -0.74316,-0.0625 z"
       id="path108096"
       transform="matrix(0.26458333,0,0,0.26458333,69.350834,70.731659)" />
    <path
       style="font-variation-settings:normal;opacity:1;fill:none;fill-opacity:1;stroke-width:2.13921263;stroke-linecap:butt;stroke-linejoin:miter;stroke-miterlimit:4;stroke-dasharray:none;stroke-dashoffset:0;stroke-opacity:1;stop-color:#000000;stop-opacity:1;stroke:#000000"
       d="m 120.03809,110.04395 c -2.10799,1.06317 -0.53253,4.14858 -0.83887,6.06543 0.96691,13.33935 0.54952,26.73259 1.64355,40.06542 1.65829,1.99051 5.10186,-0.0697 7.48304,0.27056 34.66676,-3.06761 69.35483,-6.19111 104.01891,-9.0977 2.06301,-1.93198 0.32117,-5.81326 0.8474,-8.50648 -0.20553,-6.66859 0.14915,-13.46422 -0.40337,-20.05413 -2.84822,-1.32981 -6.71254,-0.67888 -9.96031,-1.22183 -34.26312,-2.49956 -68.50695,-5.33559 -102.79035,-7.52127 z"
       id="path108172"
       transform="matrix(0.26458333,0,0,0.26458333,69.350834,70.731659)" />
    <path
       style="font-variation-settings:normal;opacity:1;vector-effect:none;fill:none;fill-opacity:1;stroke-width:0.25;stroke-linecap:butt;stroke-linejoin:miter;stroke-miterlimit:4;stroke-dasharray:none;stroke-dashoffset:0;stroke-opacity:1;-inkscape-stroke:none;stop-color:#000000;stop-opacity:1"
       d="m 117.43262,2.5566406 c -1.78294,1.7374848 -0.18479,4.8275744 -0.4358,7.0599039 1.06158,13.2550385 1.24575,26.6530285 2.75513,39.8697835 3.78375,2.203671 8.43669,2.960777 12.5355,4.622547 31.78447,10.608495 63.55075,21.292775 95.41274,31.65675 1.89392,0.89757 3.06293,-1.067175 2.74846,-2.76211 0.61745,-6.178165 2.26225,-12.43647 2.02791,-18.583595 C 199.14012,45.771008 165.34854,27.911736 131.735,9.756404 127.01234,7.4550235 122.50598,4.390101 117.63694,2.5573997 l -0.18967,-0.00564 z"
       id="path108248"
       transform="matrix(0.26458333,0,0,0.26458333,69.350834,70.731659)" />
    <path
       style="font-variation-settings:normal;opacity:1;vector-effect:none;fill:none;fill-opacity:1;stroke-width:0.25;stroke-linecap:butt;stroke-linejoin:miter;stroke-miterlimit:4;stroke-dasharray:none;stroke-dashoffset:0;stroke-opacity:1;-inkscape-stroke:none;stop-color:#000000;stop-opacity:1"
       d="m 119.41016,110.66797 c -0.2908,4.21024 0.51779,8.48118 0.45843,12.82704 0.56092,10.60795 0.29141,21.29502 1.41167,31.85857 1.12476,2.58853 4.92851,0.38913 7.22228,0.73632 33.28365,-3.01372 66.61158,-5.58642 99.8634,-8.92389 2.02635,-0.11899 5.30197,-0.43476 4.71121,-3.31445 -0.69506,-8.11807 0.0402,-16.58507 -0.5341,-24.73446 -2.85004,-1.38151 -6.70928,-0.8167 -9.95764,-1.35047 -34.12618,-2.56374 -68.25408,-5.12063 -102.40084,-7.39261 l -0.46746,0.17744 z"
       id="path108287"
       transform="matrix(0.26458333,0,0,0.26458333,69.350834,70.731659)" />
    <path
       style="font-variation-settings:normal;opacity:1;vector-effect:none;fill:none;fill-opacity:1;stroke-width:0.25;stroke-linecap:butt;stroke-linejoin:miter;stroke-miterlimit:4;stroke-dasharray:none;stroke-dashoffset:0;stroke-opacity:1;-inkscape-stroke:none;stop-color:#000000;stop-opacity:1"
       d="m 117.43262,2.5566406 c -1.78294,1.7374848 -0.18479,4.8275744 -0.4358,7.0599039 1.06158,13.2550385 1.24575,26.6530285 2.75513,39.8697835 3.78375,2.203671 8.43669,2.960777 12.5355,4.622547 31.78447,10.608495 63.55075,21.292775 95.41274,31.65675 1.89392,0.89757 3.06293,-1.067175 2.74846,-2.76211 0.61745,-6.178165 2.26225,-12.43647 2.02791,-18.583595 C 199.14012,45.771008 165.34854,27.911736 131.735,9.756404 127.01234,7.4550235 122.50598,4.390101 117.63694,2.5573997 l -0.18967,-0.00564 z"
       id="path108326"
       transform="matrix(0.26458333,0,0,0.26458333,69.350834,70.731659)" />
    <path
       style="font-variation-settings:normal;opacity:1;vector-effect:none;fill:none;fill-opacity:1;stroke-width:0.25;stroke-linecap:butt;stroke-linejoin:miter;stroke-miterlimit:4;stroke-dasharray:none;stroke-dashoffset:0;stroke-opacity:1;-inkscape-stroke:none;stop-color:#000000;stop-opacity:1"
       d="m 119.41016,110.66797 c -0.2908,4.21024 0.51779,8.48118 0.45843,12.82704 0.56092,10.60795 0.29141,21.29502 1.41167,31.85857 1.12476,2.58853 4.92851,0.38913 7.22228,0.73632 33.28365,-3.01372 66.61158,-5.58642 99.8634,-8.92389 2.02635,-0.11899 5.30197,-0.43476 4.71121,-3.31445 -0.69506,-8.11807 0.0402,-16.58507 -0.5341,-24.73446 -2.85004,-1.38151 -6.70928,-0.8167 -9.95764,-1.35047 -34.12618,-2.56374 -68.25408,-5.12063 -102.40084,-7.39261 l -0.46746,0.17744 z"
       id="path108365"
       transform="matrix(0.26458333,0,0,0.26458333,69.350834,70.731659)" />
    <path
       style="font-variation-settings:normal;opacity:1;fill:none;fill-opacity:1;stroke-width:2.13921263;stroke-linecap:butt;stroke-linejoin:miter;stroke-miterlimit:4;stroke-dasharray:none;stroke-dashoffset:0;stroke-opacity:1;stop-color:#000000;stop-opacity:1;stroke:#000000"
       d="m 234.5332,180.52051 c -24.93365,7.05144 -49.48845,15.42352 -74.20952,23.19384 -12.54312,4.02035 -25.08623,8.04069 -37.62934,12.06104 -1.57089,2.43469 -0.26787,6.05374 -0.69434,8.95215 0.13893,12.98487 -0.27708,26.08998 0.20695,39.00008 2.46691,1.1128 5.23647,-2.52549 7.7849,-3.3474 35.57224,-20.60657 71.17294,-41.16474 106.71225,-61.82749 1.35236,-2.09932 -0.0647,-5.0518 0.14648,-7.43652 -0.59457,-3.36495 -0.0695,-7.23491 -1.5048,-10.30873 -0.15358,-0.30333 -0.52007,-0.31749 -0.81258,-0.28697 z"
       id="path108404"
       transform="matrix(0.26458333,0,0,0.26458333,69.350834,70.731659)" />
    <path
       style="font-variation-settings:normal;opacity:1;vector-effect:none;fill:none;fill-opacity:1;stroke-width:0.25;stroke-linecap:butt;stroke-linejoin:miter;stroke-miterlimit:4;stroke-dasharray:none;stroke-dashoffset:0;stroke-opacity:1;-inkscape-stroke:none;stop-color:#000000;stop-opacity:1"
       d="M 114.80274,-0.23339844 C 108.29125,1.5696517 102.81037,5.959735 96.87781,9.074339 65.58429,27.749516 34.043376,46.03895 3.294922,65.606445 c -2.0181759,1.52069 -5.3992218,2.78847 -4.7939454,5.92871 0.3569533,5.64903 0.67411675,11.555205 2.7958984,16.84668 2.77856,2.447765 6.884809,3.040615 10.087214,4.884725 5.292024,2.33663 10.579167,4.68423 15.86884,7.02641 0.519882,24.24153 1.350947,48.4764 1.851563,72.71875 -8.01946,1.6678 -16.26468,3.05482 -24.3642575,4.37011 -2.9096139,2.16814 -1.6285703,6.53669 -2.01774,9.6543 0.3277193,6.45733 -0.6342244,13.32394 1.7150055,19.47754 2.986125,3.08082 7.363194,4.53952 10.985957,6.7845 32.524433,16.97257 64.964363,34.12603 97.820843,50.44912 3.0915,1.29089 6.33307,3.85996 9.80258,2.13552 8.16183,-3.21699 15.2652,-8.60106 23.00054,-12.68421 29.94607,-17.56839 60.28844,-34.47665 89.90925,-52.59121 2.01593,-0.9184 3.4777,-2.69353 2.92881,-5.02044 -0.39168,-5.2902 -0.14412,-10.90516 -2.05638,-15.90824 -2.76431,-2.15605 -6.80977,-1.24948 -10.08364,-1.89177 -9.34077,-0.60646 -18.76288,-1.37494 -28.0189,-1.99104 -3.35912,2.00333 -7.79965,1.99975 -11.64746,3.17578 -35.07551,7.40973 -70.20689,14.66548 -105.411185,21.46098 -0.888785,-2.19469 -0.335305,-6.09764 -0.670295,-8.94825 -0.265555,-11.28751 -0.287755,-22.66563 0.32562,-33.93558 18.70237,0.85957 37.54027,2.11451 56.22547,-0.0292 31.4779,-2.82245 62.9806,-5.42207 94.44543,-8.35163 3.98926,-0.99873 2.99668,-6.23241 3.01172,-9.24023 -0.34495,-7.42274 0.0605,-14.96783 -0.46543,-22.31628 -3.76236,-1.83316 -8.58257,-1.40847 -12.80069,-2.02803 -35.1481,-2.54639 -70.29239,-5.43369 -105.45654,-7.55218 -12.20787,-0.12629 -24.430445,-0.16784 -36.623045,0.53711 -0.865945,-13.094825 -1.23147,-26.2365 -1.358395,-39.35742 6.62523,1.170225 13.828805,3.449065 20.63989,5.10016 32.94222,8.806285 65.98171,17.39454 98.69116,26.96332 2.84189,0.63444 5.46017,-2.0802 8.15057,-2.72897 8.16431,-3.83714 16.81448,-6.749805 24.66388,-11.21342 2.44488,-2.402285 1.68797,-6.44028 2.55508,-9.513995 0.28914,-4.662425 1.96101,-9.543815 0.66856,-14.1403 -2.99312,-3.30774 -7.72039,-4.519145 -11.38471,-6.97337 C 187.9002,38.14452 153.70697,19.215 119.06641,1.133789 c -1.33963,-0.64337542 -2.7255,-1.44015186 -4.26367,-1.36718744 z M 114.4541,3.383789 c 1.46998,14.94354 2.04141,29.951498 2.87598,44.942383 -13.54814,6.510518 -28.10993,10.838543 -41.75391,17.232423 -1.895985,1.66873 -0.189495,4.89723 -0.659875,7.12666 0.42684,12.67485 0.73513,25.357315 1.464565,38.019825 1.896105,2.1069 5.82268,0.29653 8.514415,0.8105 10.556705,-0.19004 21.113435,-0.37913 31.670155,-0.56831 1.25992,8.88155 1.07666,17.98465 1.54017,26.95632 0.18842,5.78713 0.27822,11.57676 0.37682,17.36594 C 105.20782,155.93808 92.01192,154.34832 78.75,154 c -2.205035,1.79773 -0.427855,5.82387 -1,8.5 0.139165,13.44966 -0.27726,27.0197 0.206945,40.39461 5.317915,2.49664 11.52479,3.83433 17.19105,5.87439 8.257205,2.83275 16.847855,5.12656 24.801225,8.55619 0.33205,14.86996 0.55591,29.8286 -0.11133,44.65333 0.10298,2.25242 -2.50518,-0.35591 -3.49324,-0.37332 C 85.023855,246.19484 54.21669,229.69408 23.213895,213.62977 17.874996,210.55855 11.981696,208.2132 7.098633,204.46094 6.2212565,196.75833 5.467723,188.78085 6.251953,180.9414 c 5.646841,0.38144 11.636359,2.38896 17.39178,3.5199 2.763644,0.38151 5.651665,1.84987 8.437321,1.25745 1.254326,-2.5332 0.19251,-5.77999 0.49312,-8.57114 C 31.769556,145.77021 31.192399,114.378 29.731445,83.02344 29.92276,80.17461 26.534336,81.5449 24.958984,81.89551 17.983882,83.255775 11.113547,85.808575 4.035156,86.30469 2.3783163,81.35808 2.4167964,75.93387 1.6640625,70.75586 14.592875,61.91698 28.478456,54.065205 41.875044,45.771313 65.204155,31.820335 88.349945,17.547554 112.0625,4.2675781 c 0.76282,-0.3277606 1.62654,-0.7569585 2.3916,-0.8837891 z m 3.9834,1.0898438 C 155.98588,24.490182 193.49672,44.586269 230.75,65.14746 230.64642,71.59162 229.73863,78.269935 228.49902,84.41211 192.64476,72.746845 156.82042,60.762675 121.1709,48.509765 119.80016,33.848869 119.38891,19.029624 118.28808,4.3974609 Z m 79.15625,96.7675772 c -0.12989,-0.0302 -0.42367,-0.43952 0,0 z m -76.04394,10.78321 c 35.8253,2.39656 71.65254,5.05299 107.44576,7.93845 1.55034,-0.0833 2.63696,0.52662 2.06986,2.29202 0.27406,7.71037 0.14669,15.50413 0.18359,23.24901 -36.16067,3.33099 -72.35537,6.30229 -108.52636,9.52637 C 121.63157,140.84686 121.72313,126.05651 120.8916,112 l 0.49966,0.0185 z m 112.55761,71.12597 c 0.65268,4.65411 1.11791,9.4157 1.13965,14.15625 -37.03644,21.44814 -74.10525,42.84225 -111.09863,64.36328 -0.67277,-14.04321 -0.41949,-28.35767 -0.2168,-42.35254 -0.57472,-2.9488 3.24198,-2.46784 5.02496,-3.48693 33.70056,-10.83379 67.36761,-22.00448 101.26038,-32.12231 1.05884,0.0216 3.2704,-1.40717 3.89044,-0.55775 z"
       id="path108480"
       transform="matrix(0.26458333,0,0,0.26458333,69.350834,70.731659)" />
    <path
       style="font-variation-settings:normal;opacity:1;vector-effect:none;fill:none;fill-opacity:1;stroke-width:0.25;stroke-linecap:butt;stroke-linejoin:miter;stroke-miterlimit:4;stroke-dasharray:none;stroke-dashoffset:0;stroke-opacity:1;-inkscape-stroke:none;stop-color:#000000;stop-opacity:1"
       d="M 114.80274,-0.23339844 C 108.29125,1.5696517 102.81037,5.959735 96.87781,9.074339 65.58429,27.749516 34.043376,46.03895 3.294922,65.606445 c -2.0181759,1.52069 -5.3992218,2.78847 -4.7939454,5.92871 0.3569533,5.64903 0.67411675,11.555205 2.7958984,16.84668 2.77856,2.447765 6.884809,3.040615 10.087214,4.884725 5.292024,2.33663 10.579167,4.68423 15.86884,7.02641 0.519882,24.24153 1.350947,48.4764 1.851563,72.71875 -8.01946,1.6678 -16.26468,3.05482 -24.3642575,4.37011 -2.9096139,2.16814 -1.6285703,6.53669 -2.01774,9.6543 0.3277193,6.45733 -0.6342244,13.32394 1.7150055,19.47754 2.986125,3.08082 7.363194,4.53952 10.985957,6.7845 32.524433,16.97257 64.964363,34.12603 97.820843,50.44912 3.0915,1.29089 6.33307,3.85996 9.80258,2.13552 8.16183,-3.21699 15.2652,-8.60106 23.00054,-12.68421 29.94607,-17.56839 60.28844,-34.47665 89.90925,-52.59121 2.01593,-0.9184 3.4777,-2.69353 2.92881,-5.02044 -0.39168,-5.2902 -0.14412,-10.90516 -2.05638,-15.90824 -2.76431,-2.15605 -6.80977,-1.24948 -10.08364,-1.89177 -9.34077,-0.60646 -18.76288,-1.37494 -28.0189,-1.99104 -3.35912,2.00333 -7.79965,1.99975 -11.64746,3.17578 -35.07551,7.40973 -70.20689,14.66548 -105.411185,21.46098 -0.888785,-2.19469 -0.335305,-6.09764 -0.670295,-8.94825 -0.265555,-11.28751 -0.287755,-22.66563 0.32562,-33.93558 18.70237,0.85957 37.54027,2.11451 56.22547,-0.0292 31.4779,-2.82245 62.9806,-5.42207 94.44543,-8.35163 3.98926,-0.99873 2.99668,-6.23241 3.01172,-9.24023 -0.34495,-7.42274 0.0605,-14.96783 -0.46543,-22.31628 -3.76236,-1.83316 -8.58257,-1.40847 -12.80069,-2.02803 -35.1481,-2.54639 -70.29239,-5.43369 -105.45654,-7.55218 -12.20787,-0.12629 -24.430445,-0.16784 -36.623045,0.53711 -0.865945,-13.094825 -1.23147,-26.2365 -1.358395,-39.35742 6.62523,1.170225 13.828805,3.449065 20.63989,5.10016 32.94222,8.806285 65.98171,17.39454 98.69116,26.96332 2.84189,0.63444 5.46017,-2.0802 8.15057,-2.72897 8.16431,-3.83714 16.81448,-6.749805 24.66388,-11.21342 2.44488,-2.402285 1.68797,-6.44028 2.55508,-9.513995 0.28914,-4.662425 1.96101,-9.543815 0.66856,-14.1403 -2.99312,-3.30774 -7.72039,-4.519145 -11.38471,-6.97337 C 187.9002,38.14452 153.70697,19.215 119.06641,1.133789 c -1.33963,-0.64337542 -2.7255,-1.44015186 -4.26367,-1.36718744 z M 114.4541,3.383789 c 1.46998,14.94354 2.04141,29.951498 2.87598,44.942383 -13.54814,6.510518 -28.10993,10.838543 -41.75391,17.232423 -1.895985,1.66873 -0.189495,4.89723 -0.659875,7.12666 0.42684,12.67485 0.73513,25.357315 1.464565,38.019825 1.896105,2.1069 5.82268,0.29653 8.514415,0.8105 10.556705,-0.19004 21.113435,-0.37913 31.670155,-0.56831 1.25992,8.88155 1.07666,17.98465 1.54017,26.95632 0.18842,5.78713 0.27822,11.57676 0.37682,17.36594 C 105.20782,155.93808 92.01192,154.34832 78.75,154 c -2.205035,1.79773 -0.427855,5.82387 -1,8.5 0.139165,13.44966 -0.27726,27.0197 0.206945,40.39461 5.317915,2.49664 11.52479,3.83433 17.19105,5.87439 8.257205,2.83275 16.847855,5.12656 24.801225,8.55619 0.33205,14.86996 0.55591,29.8286 -0.11133,44.65333 0.10298,2.25242 -2.50518,-0.35591 -3.49324,-0.37332 C 85.023855,246.19484 54.21669,229.69408 23.213895,213.62977 17.874996,210.55855 11.981696,208.2132 7.098633,204.46094 6.2212565,196.75833 5.467723,188.78085 6.251953,180.9414 c 5.646841,0.38144 11.636359,2.38896 17.39178,3.5199 2.763644,0.38151 5.651665,1.84987 8.437321,1.25745 1.254326,-2.5332 0.19251,-5.77999 0.49312,-8.57114 C 31.769556,145.77021 31.192399,114.378 29.731445,83.02344 29.92276,80.17461 26.534336,81.5449 24.958984,81.89551 17.983882,83.255775 11.113547,85.808575 4.035156,86.30469 2.3783163,81.35808 2.4167964,75.93387 1.6640625,70.75586 14.592875,61.91698 28.478456,54.065205 41.875044,45.771313 65.204155,31.820335 88.349945,17.547554 112.0625,4.2675781 c 0.76282,-0.3277606 1.62654,-0.7569585 2.3916,-0.8837891 z m 3.9834,1.0898438 C 155.98588,24.490182 193.49672,44.586269 230.75,65.14746 230.64642,71.59162 229.73863,78.269935 228.49902,84.41211 192.64476,72.746845 156.82042,60.762675 121.1709,48.509765 119.80016,33.848869 119.38891,19.029624 118.28808,4.3974609 Z m 79.15625,96.7675772 c -0.12989,-0.0302 -0.42367,-0.43952 0,0 z m -76.04394,10.78321 c 35.8253,2.39656 71.65254,5.05299 107.44576,7.93845 1.55034,-0.0833 2.63696,0.52662 2.06986,2.29202 0.27406,7.71037 0.14669,15.50413 0.18359,23.24901 -36.16067,3.33099 -72.35537,6.30229 -108.52636,9.52637 C 121.63157,140.84686 121.72313,126.05651 120.8916,112 l 0.49966,0.0185 z m 112.55761,71.12597 c 0.65268,4.65411 1.11791,9.4157 1.13965,14.15625 -37.03644,21.44814 -74.10525,42.84225 -111.09863,64.36328 -0.67277,-14.04321 -0.41949,-28.35767 -0.2168,-42.35254 -0.57472,-2.9488 3.24198,-2.46784 5.02496,-3.48693 33.70056,-10.83379 67.36761,-22.00448 101.26038,-32.12231 1.05884,0.0216 3.2704,-1.40717 3.89044,-0.55775 z"
       id="path108556"
       transform="matrix(0.26458333,0,0,0.26458333,69.350834,70.731659)" />
    <path
       style="font-variation-settings:normal;opacity:1;fill:none;fill-opacity:1;stroke-width:2.13921263;stroke-linecap:butt;stroke-linejoin:miter;stroke-miterlimit:4;stroke-dasharray:none;stroke-dashoffset:0;stroke-opacity:1;stop-color:#000000;stop-opacity:1;stroke:#000000"
       d="m 196.03515,150.77344 c -24.38067,2.16496 -48.78259,4.25033 -73.15429,6.4248 -2.63263,-0.83991 -5.14449,0.57908 -7.84863,0.25586 -11.39309,0.17041 -22.715391,-1.44253 -34.131839,-1.4541 -2.020244,1.33645 -0.991861,4.67786 -1.441124,6.92882 -0.137014,12.09138 -0.659969,24.25496 0.485002,36.30563 -0.09481,2.01255 1.815391,2.77057 3.481524,1.91079 38.281087,-7.69009 76.510197,-15.63992 114.774397,-23.41575 1.77908,-2.29591 0.39103,-6.08101 0.88464,-8.9683 -0.16575,-5.97321 0.59211,-12.13657 -0.15222,-17.99068 -0.92453,-0.48121 -1.92419,-0.0237 -2.89746,0.003 z"
       id="path108595"
       transform="matrix(0.26458333,0,0,0.26458333,69.350834,70.731659)" />
    <path
       style="font-variation-settings:normal;opacity:1;fill:none;fill-opacity:1;stroke-width:2.13921263;stroke-linecap:butt;stroke-linejoin:miter;stroke-miterlimit:4;stroke-dasharray:none;stroke-dashoffset:0;stroke-opacity:1;stop-color:#000000;stop-opacity:1;stroke:#000000"
       d="m 77.041016,67.709961 c -1.010071,3.697483 0.08743,7.95016 -0.126592,11.856709 0.422559,10.000218 0.373821,20.132053 1.216678,30.04398 2.680446,1.15706 6.312599,-0.0419 9.359801,0.18918 18.503727,-0.78811 37.026877,-0.10612 55.483997,1.53735 18.40098,1.22753 36.8204,2.88167 55.19795,4.01243 2.12777,-1.46999 0.6046,-4.76231 0.92506,-6.90154 -0.42181,-2.63519 0.24846,-5.77893 -1.04661,-8.11053 C 183.64236,95.913306 168.85559,92.283985 154.28788,88.22003 128.816,81.326424 103.32555,74.472705 77.857422,67.577148 l -0.493512,0.08029 z"
       id="path108671"
       transform="matrix(0.26458333,0,0,0.26458333,69.350834,70.731659)" />
    <path
       style="font-variation-settings:normal;opacity:1;vector-effect:none;fill:none;fill-opacity:1;stroke-width:0.25;stroke-linecap:butt;stroke-linejoin:miter;stroke-miterlimit:4;stroke-dasharray:none;stroke-dashoffset:0;stroke-opacity:1;-inkscape-stroke:none;stop-color:#000000;stop-opacity:1"
       d="M 114.80274,-0.23339844 C 108.29125,1.5696517 102.81037,5.959735 96.87781,9.074339 65.58429,27.749516 34.043376,46.03895 3.294922,65.606445 c -2.0181759,1.52069 -5.3992218,2.78847 -4.7939454,5.92871 0.3569533,5.64903 0.67411675,11.555205 2.7958984,16.84668 2.77856,2.447765 6.884809,3.040615 10.087214,4.884725 5.292024,2.33663 10.579167,4.68423 15.86884,7.02641 0.519882,24.24153 1.350947,48.4764 1.851563,72.71875 -8.01946,1.6678 -16.26468,3.05482 -24.3642575,4.37011 -2.9096139,2.16814 -1.6285703,6.53669 -2.01774,9.6543 0.3277193,6.45733 -0.6342244,13.32394 1.7150055,19.47754 2.986125,3.08082 7.363194,4.53952 10.985957,6.7845 32.524433,16.97257 64.964363,34.12603 97.820843,50.44912 3.09155,1.29134 6.33281,3.85924 9.80258,2.13552 8.16102,-3.21848 15.26583,-8.59934 22.99983,-12.68445 29.9469,-17.56782 60.28946,-34.47667 89.91064,-52.59142 2.01625,-0.91801 3.47574,-2.69384 2.9286,-5.02 -0.37314,-5.26051 -0.17432,-10.81127 -2.009,-15.80569 -2.35114,-2.42684 -6.39047,-1.19936 -9.40165,-1.91229 -8.8152,-0.69242 -17.78713,-1.20956 -26.51436,-1.90997 -0.41419,-7.98518 0.0492,-15.99343 0.0283,-23.98634 10.54617,-1.21316 21.23578,-1.46422 31.71875,-3.02441 3.52971,-1.90301 2.07096,-6.82701 2.26935,-10.0201 -0.31511,-7.08983 0.0868,-14.30173 -0.43693,-21.31668 -3.71222,-1.81131 -8.47295,-1.4162 -12.63809,-2.01185 -6.97287,-0.55148 -13.96008,-0.92824 -20.92285,-1.60352 -0.0758,-4.37843 -0.1902,-8.84935 -0.57324,-13.16699 9.91974,-4.4654 20.21874,-8.20951 29.82129,-13.331055 2.7435,-2.285585 1.85862,-6.56077 2.7748,-9.68001 0.28914,-4.662425 1.96101,-9.543815 0.66856,-14.1403 -2.99312,-3.30774 -7.72039,-4.519145 -11.38471,-6.97337 C 187.9002,38.14452 153.70697,19.215 119.06641,1.133789 c -1.33963,-0.64337542 -2.7255,-1.44015186 -4.26367,-1.36718744 z M 114.4541,3.383789 c 1.46998,14.94354 2.04141,29.951498 2.87598,44.942383 -13.70197,6.330173 -28.033265,11.315133 -42.06641,16.941408 -1.44534,2.509345 -0.0947,6.04603 -0.43394,8.955385 0.45273,12.18697 0.365995,24.458135 1.76109,36.571955 1.92928,1.65047 5.11967,0.35293 7.500975,0.81805 10.914155,0.0389 21.827575,-0.13139 32.741215,-0.20965 1.21739,14.53599 1.22963,29.19948 1.95019,43.78906 -9.00888,0.72454 -18.1062,-0.32889 -27.13303,-0.64383 -4.31787,-0.13877 -8.680415,-0.74272 -12.984155,-0.44211 -1.62716,2.03391 -0.584295,5.22214 -1.05844,7.67753 -0.295045,13.70829 -0.544485,27.55312 0.4755,41.17148 5.954145,2.66353 12.74844,4.20691 19.02369,6.4461 7.586985,2.61764 15.525825,4.73036 22.842455,7.92364 0.33205,14.86996 0.55591,29.8286 -0.11133,44.65333 0.10298,2.25242 -2.50518,-0.35591 -3.49324,-0.37332 C 85.023855,246.19484 54.21669,229.69408 23.213895,213.62977 17.874996,210.55855 11.981696,208.2132 7.098633,204.46094 6.2212565,196.75833 5.467723,188.78085 6.251953,180.9414 c 5.646841,0.38144 11.636359,2.38896 17.39178,3.5199 2.763644,0.38151 5.651665,1.84987 8.437321,1.25745 1.254326,-2.5332 0.19251,-5.77999 0.49312,-8.57114 C 31.769556,145.77021 31.192399,114.378 29.731445,83.02344 29.92276,80.17461 26.534336,81.5449 24.958984,81.89551 17.983882,83.255775 11.113547,85.808575 4.035156,86.30469 2.3783163,81.35808 2.4167964,75.93387 1.6640625,70.75586 14.592875,61.91698 28.478456,54.065205 41.875044,45.771313 65.204155,31.820335 88.349945,17.547554 112.0625,4.2675781 c 0.76282,-0.3277606 1.62654,-0.7569585 2.3916,-0.8837891 z m 3.9834,1.0898438 C 155.98588,24.490182 193.49672,44.586269 230.75,65.14746 230.64642,71.59162 229.73863,78.269935 228.49902,84.41211 192.64476,72.746845 156.82042,60.762675 121.1709,48.509765 119.80016,33.848869 119.38891,19.029624 118.28808,4.3974609 Z M 78.80371,69.961915 c 39.34727,10.428765 78.79383,20.85676 117.94824,31.923825 0.67136,3.83781 0.42992,7.65375 0.49707,11.56055 -27.39133,-1.92894 -54.90128,-4.29592 -82.37561,-5.739 -11.66891,-0.39203 -23.7228,0.34425 -35.133175,0.20091 C 79.43287,95.292105 78.53593,82.450265 78.80371,69.961915 Z m 42.75879,42.059575 c 35.81989,2.38749 71.64355,5.09846 107.43696,7.9435 1.55166,-0.0872 2.6273,0.53228 2.06597,2.28794 0.2741,7.70777 0.14667,15.49893 0.18359,23.24121 -36.15889,3.34822 -72.35624,6.29989 -108.52636,9.53613 -1.11973,-14.1976 -0.94094,-28.89465 -1.86914,-43.0293 l 0.49979,0.0145 z m 75.54004,40.6289 c 0.25901,7.75617 0.23351,15.53405 -0.19629,23.2832 -38.2813,8.09668 -76.66455,15.90668 -115.04004,23.53223 -0.64266,-13.49415 -0.7496,-27.14701 -0.38574,-40.69531 1.32666,-1.92604 5.593805,-0.15959 8.138585,-0.54576 12.134085,0.5732 24.308595,1.78755 36.449305,0.39341 23.66545,-1.82134 47.49936,-4.18203 71.03418,-5.96777 z m 37.00488,30.5 c 0.65268,4.65411 1.11791,9.4157 1.13965,14.15625 -37.03644,21.44814 -74.10525,42.84225 -111.09863,64.36328 -0.67277,-14.04321 -0.41949,-28.35767 -0.2168,-42.35254 -0.57472,-2.9488 3.24198,-2.46784 5.02496,-3.48693 33.70056,-10.83379 67.36761,-22.00448 101.26038,-32.12231 1.05884,0.0216 3.2704,-1.40717 3.89044,-0.55775 z"
       id="path108747"
       transform="matrix(0.26458333,0,0,0.26458333,69.350834,70.731659)" />
    <path
       style="font-variation-settings:normal;opacity:1;vector-effect:none;fill:none;fill-opacity:1;stroke-width:0.25;stroke-linecap:butt;stroke-linejoin:miter;stroke-miterlimit:4;stroke-dasharray:none;stroke-dashoffset:0;stroke-opacity:1;-inkscape-stroke:none;stop-color:#000000;stop-opacity:1"
       d="M 114.80274,-0.23339844 C 108.29125,1.5696517 102.81037,5.959735 96.87781,9.074339 65.58429,27.749516 34.043376,46.03895 3.294922,65.606445 c -2.0181759,1.52069 -5.3992218,2.78847 -4.7939454,5.92871 0.3569533,5.64903 0.67411675,11.555205 2.7958984,16.84668 2.77856,2.447765 6.884809,3.040615 10.087214,4.884725 5.292024,2.33663 10.579167,4.68423 15.86884,7.02641 0.519882,24.24153 1.350947,48.4764 1.851563,72.71875 -8.01946,1.6678 -16.26468,3.05482 -24.3642575,4.37011 -2.9096139,2.16814 -1.6285703,6.53669 -2.01774,9.6543 0.3277193,6.45733 -0.6342244,13.32394 1.7150055,19.47754 2.986125,3.08082 7.363194,4.53952 10.985957,6.7845 32.524433,16.97257 64.964363,34.12603 97.820843,50.44912 3.09155,1.29134 6.33281,3.85924 9.80258,2.13552 8.16102,-3.21848 15.26583,-8.59934 22.99983,-12.68445 29.9469,-17.56782 60.28946,-34.47667 89.91064,-52.59142 2.01625,-0.91801 3.47574,-2.69384 2.9286,-5.02 -0.37314,-5.26051 -0.17432,-10.81127 -2.009,-15.80569 -2.35114,-2.42684 -6.39047,-1.19936 -9.40165,-1.91229 -8.8152,-0.69242 -17.78713,-1.20956 -26.51436,-1.90997 -0.41419,-7.98518 0.0492,-15.99343 0.0283,-23.98634 10.54617,-1.21316 21.23578,-1.46422 31.71875,-3.02441 3.52971,-1.90301 2.07096,-6.82701 2.26935,-10.0201 -0.31511,-7.08983 0.0868,-14.30173 -0.43693,-21.31668 -3.71222,-1.81131 -8.47295,-1.4162 -12.63809,-2.01185 -6.97287,-0.55148 -13.96008,-0.92824 -20.92285,-1.60352 -0.0758,-4.37843 -0.1902,-8.84935 -0.57324,-13.16699 9.91974,-4.4654 20.21874,-8.20951 29.82129,-13.331055 2.7435,-2.285585 1.85862,-6.56077 2.7748,-9.68001 0.28914,-4.662425 1.96101,-9.543815 0.66856,-14.1403 -2.99312,-3.30774 -7.72039,-4.519145 -11.38471,-6.97337 C 187.9002,38.14452 153.70697,19.215 119.06641,1.133789 c -1.33963,-0.64337542 -2.7255,-1.44015186 -4.26367,-1.36718744 z M 114.4541,3.383789 c 1.46998,14.94354 2.04141,29.951498 2.87598,44.942383 -13.70197,6.330173 -28.033265,11.315133 -42.06641,16.941408 -1.44534,2.509345 -0.0947,6.04603 -0.43394,8.955385 0.45273,12.18697 0.365995,24.458135 1.76109,36.571955 1.92928,1.65047 5.11967,0.35293 7.500975,0.81805 10.914155,0.0389 21.827575,-0.13139 32.741215,-0.20965 1.21739,14.53599 1.22963,29.19948 1.95019,43.78906 -9.00888,0.72454 -18.1062,-0.32889 -27.13303,-0.64383 -4.31787,-0.13877 -8.680415,-0.74272 -12.984155,-0.44211 -1.62716,2.03391 -0.584295,5.22214 -1.05844,7.67753 -0.295045,13.70829 -0.544485,27.55312 0.4755,41.17148 5.954145,2.66353 12.74844,4.20691 19.02369,6.4461 7.586985,2.61764 15.525825,4.73036 22.842455,7.92364 0.33205,14.86996 0.55591,29.8286 -0.11133,44.65333 0.10298,2.25242 -2.50518,-0.35591 -3.49324,-0.37332 C 85.023855,246.19484 54.21669,229.69408 23.213895,213.62977 17.874996,210.55855 11.981696,208.2132 7.098633,204.46094 6.2212565,196.75833 5.467723,188.78085 6.251953,180.9414 c 5.646841,0.38144 11.636359,2.38896 17.39178,3.5199 2.763644,0.38151 5.651665,1.84987 8.437321,1.25745 1.254326,-2.5332 0.19251,-5.77999 0.49312,-8.57114 C 31.769556,145.77021 31.192399,114.378 29.731445,83.02344 29.92276,80.17461 26.534336,81.5449 24.958984,81.89551 17.983882,83.255775 11.113547,85.808575 4.035156,86.30469 2.3783163,81.35808 2.4167964,75.93387 1.6640625,70.75586 14.592875,61.91698 28.478456,54.065205 41.875044,45.771313 65.204155,31.820335 88.349945,17.547554 112.0625,4.2675781 c 0.76282,-0.3277606 1.62654,-0.7569585 2.3916,-0.8837891 z m 3.9834,1.0898438 C 155.98588,24.490182 193.49672,44.586269 230.75,65.14746 230.64642,71.59162 229.73863,78.269935 228.49902,84.41211 192.64476,72.746845 156.82042,60.762675 121.1709,48.509765 119.80016,33.848869 119.38891,19.029624 118.28808,4.3974609 Z M 78.80371,69.961915 c 39.34727,10.428765 78.79383,20.85676 117.94824,31.923825 0.67136,3.83781 0.42992,7.65375 0.49707,11.56055 -27.39133,-1.92894 -54.90128,-4.29592 -82.37561,-5.739 -11.66891,-0.39203 -23.7228,0.34425 -35.133175,0.20091 C 79.43287,95.292105 78.53593,82.450265 78.80371,69.961915 Z m 42.75879,42.059575 c 35.81989,2.38749 71.64355,5.09846 107.43696,7.9435 1.55166,-0.0872 2.6273,0.53228 2.06597,2.28794 0.2741,7.70777 0.14667,15.49893 0.18359,23.24121 -36.15889,3.34822 -72.35624,6.29989 -108.52636,9.53613 -1.11973,-14.1976 -0.94094,-28.89465 -1.86914,-43.0293 l 0.49979,0.0145 z m 75.54004,40.6289 c 0.25901,7.75617 0.23351,15.53405 -0.19629,23.2832 -38.2813,8.09668 -76.66455,15.90668 -115.04004,23.53223 -0.64266,-13.49415 -0.7496,-27.14701 -0.38574,-40.69531 1.32666,-1.92604 5.593805,-0.15959 8.138585,-0.54576 12.134085,0.5732 24.308595,1.78755 36.449305,0.39341 23.66545,-1.82134 47.49936,-4.18203 71.03418,-5.96777 z m 37.00488,30.5 c 0.65268,4.65411 1.11791,9.4157 1.13965,14.15625 -37.03644,21.44814 -74.10525,42.84225 -111.09863,64.36328 -0.67277,-14.04321 -0.41949,-28.35767 -0.2168,-42.35254 -0.57472,-2.9488 3.24198,-2.46784 5.02496,-3.48693 33.70056,-10.83379 67.36761,-22.00448 101.26038,-32.12231 1.05884,0.0216 3.2704,-1.40717 3.89044,-0.55775 z"
       id="path108786"
       transform="matrix(0.26458333,0,0,0.26458333,69.350834,70.731659)" />
    <path
       style="font-variation-settings:normal;opacity:1;vector-effect:none;fill:none;fill-opacity:1;stroke-width:0.25;stroke-linecap:butt;stroke-linejoin:miter;stroke-miterlimit:4;stroke-dasharray:none;stroke-dashoffset:0;stroke-opacity:1;-inkscape-stroke:none;stop-color:#000000;stop-opacity:1"
       d="M 114.80274,-0.23339844 C 108.29125,1.5696517 102.81037,5.959735 96.87781,9.074339 65.58429,27.749516 34.043376,46.03895 3.294922,65.606445 c -2.0181759,1.52069 -5.3992218,2.78847 -4.7939454,5.92871 0.3569533,5.64903 0.67411675,11.555205 2.7958984,16.84668 2.77856,2.447765 6.884809,3.040615 10.087214,4.884725 5.292024,2.33663 10.579167,4.68423 15.86884,7.02641 0.519882,24.24153 1.350947,48.4764 1.851563,72.71875 -8.01946,1.6678 -16.26468,3.05482 -24.3642575,4.37011 -2.9096139,2.16814 -1.6285703,6.53669 -2.01774,9.6543 0.3277193,6.45733 -0.6342244,13.32394 1.7150055,19.47754 2.986125,3.08082 7.363194,4.53952 10.985957,6.7845 32.524433,16.97257 64.964363,34.12603 97.820843,50.44912 3.09155,1.29134 6.33281,3.85924 9.80258,2.13552 8.16102,-3.21848 15.26583,-8.59934 22.99983,-12.68445 29.9469,-17.56782 60.28946,-34.47667 89.91064,-52.59142 2.01625,-0.91801 3.47574,-2.69384 2.9286,-5.02 -0.37314,-5.26051 -0.17432,-10.81127 -2.009,-15.80569 -2.35114,-2.42684 -6.39047,-1.19936 -9.40165,-1.91229 -8.8152,-0.69242 -17.78713,-1.20956 -26.51436,-1.90997 -0.41419,-7.98518 0.0492,-15.99343 0.0283,-23.98634 10.54617,-1.21316 21.23578,-1.46422 31.71875,-3.02441 3.52971,-1.90301 2.07096,-6.82701 2.26935,-10.0201 -0.31511,-7.08983 0.0868,-14.30173 -0.43693,-21.31668 -3.71222,-1.81131 -8.47295,-1.4162 -12.63809,-2.01185 -6.97287,-0.55148 -13.96008,-0.92824 -20.92285,-1.60352 -0.0758,-4.37843 -0.1902,-8.84935 -0.57324,-13.16699 9.91974,-4.4654 20.21874,-8.20951 29.82129,-13.331055 2.7435,-2.285585 1.85862,-6.56077 2.7748,-9.68001 0.28914,-4.662425 1.96101,-9.543815 0.66856,-14.1403 -2.99312,-3.30774 -7.72039,-4.519145 -11.38471,-6.97337 C 187.9002,38.14452 153.70697,19.215 119.06641,1.133789 c -1.33963,-0.64337542 -2.7255,-1.44015186 -4.26367,-1.36718744 z M 114.4541,3.383789 c 1.46998,14.94354 2.04141,29.951498 2.87598,44.942383 -13.70197,6.330173 -28.033265,11.315133 -42.06641,16.941408 -1.44534,2.509345 -0.0947,6.04603 -0.43394,8.955385 0.45273,12.18697 0.365995,24.458135 1.76109,36.571955 1.92928,1.65047 5.11967,0.35293 7.500975,0.81805 10.914155,0.0389 21.827575,-0.13139 32.741215,-0.20965 1.21739,14.53599 1.22963,29.19948 1.95019,43.78906 -9.00888,0.72454 -18.1062,-0.32889 -27.13303,-0.64383 -4.31787,-0.13877 -8.680415,-0.74272 -12.984155,-0.44211 -1.62716,2.03391 -0.584295,5.22214 -1.05844,7.67753 -0.295045,13.70829 -0.544485,27.55312 0.4755,41.17148 5.954145,2.66353 12.74844,4.20691 19.02369,6.4461 7.586985,2.61764 15.525825,4.73036 22.842455,7.92364 0.33205,14.86996 0.55591,29.8286 -0.11133,44.65333 0.10298,2.25242 -2.50518,-0.35591 -3.49324,-0.37332 C 85.023855,246.19484 54.21669,229.69408 23.213895,213.62977 17.874996,210.55855 11.981696,208.2132 7.098633,204.46094 6.2212565,196.75833 5.467723,188.78085 6.251953,180.9414 c 5.646841,0.38144 11.636359,2.38896 17.39178,3.5199 2.763644,0.38151 5.651665,1.84987 8.437321,1.25745 1.254326,-2.5332 0.19251,-5.77999 0.49312,-8.57114 C 31.769556,145.77021 31.192399,114.378 29.731445,83.02344 29.92276,80.17461 26.534336,81.5449 24.958984,81.89551 17.983882,83.255775 11.113547,85.808575 4.035156,86.30469 2.3783163,81.35808 2.4167964,75.93387 1.6640625,70.75586 14.592875,61.91698 28.478456,54.065205 41.875044,45.771313 65.204155,31.820335 88.349945,17.547554 112.0625,4.2675781 c 0.76282,-0.3277606 1.62654,-0.7569585 2.3916,-0.8837891 z m 3.9834,1.0898438 C 155.98588,24.490182 193.49672,44.586269 230.75,65.14746 230.64642,71.59162 229.73863,78.269935 228.49902,84.41211 192.64476,72.746845 156.82042,60.762675 121.1709,48.509765 119.80016,33.848869 119.38891,19.029624 118.28808,4.3974609 Z M 78.80371,69.961915 c 39.34727,10.428765 78.79383,20.85676 117.94824,31.923825 0.67136,3.83781 0.42992,7.65375 0.49707,11.56055 -27.39133,-1.92894 -54.90128,-4.29592 -82.37561,-5.739 -11.66891,-0.39203 -23.7228,0.34425 -35.133175,0.20091 C 79.43287,95.292105 78.53593,82.450265 78.80371,69.961915 Z m 42.75879,42.059575 c 35.81989,2.38749 71.64355,5.09846 107.43696,7.9435 1.55166,-0.0872 2.6273,0.53228 2.06597,2.28794 0.2741,7.70777 0.14667,15.49893 0.18359,23.24121 -36.15889,3.34822 -72.35624,6.29989 -108.52636,9.53613 -1.11973,-14.1976 -0.94094,-28.89465 -1.86914,-43.0293 l 0.49979,0.0145 z m 75.54004,40.6289 c 0.25901,7.75617 0.23351,15.53405 -0.19629,23.2832 -38.2813,8.09668 -76.66455,15.90668 -115.04004,23.53223 -0.64266,-13.49415 -0.7496,-27.14701 -0.38574,-40.69531 1.32666,-1.92604 5.593805,-0.15959 8.138585,-0.54576 12.134085,0.5732 24.308595,1.78755 36.449305,0.39341 23.66545,-1.82134 47.49936,-4.18203 71.03418,-5.96777 z m 37.00488,30.5 c 0.65268,4.65411 1.11791,9.4157 1.13965,14.15625 -37.03644,21.44814 -74.10525,42.84225 -111.09863,64.36328 -0.67277,-14.04321 -0.41949,-28.35767 -0.2168,-42.35254 -0.57472,-2.9488 3.24198,-2.46784 5.02496,-3.48693 33.70056,-10.83379 67.36761,-22.00448 101.26038,-32.12231 1.05884,0.0216 3.2704,-1.40717 3.89044,-0.55775 z"
       id="path108825"
       transform="matrix(0.26458333,0,0,0.26458333,69.350834,70.731659)" />
    <path
       style="font-variation-settings:normal;opacity:1;vector-effect:none;fill:none;fill-opacity:1;stroke-width:0.25;stroke-linecap:butt;stroke-linejoin:miter;stroke-miterlimit:4;stroke-dasharray:none;stroke-dashoffset:0;stroke-opacity:1;-inkscape-stroke:none;stop-color:#000000;stop-opacity:1"
       d="M 114.80274,-0.23339844 C 108.29125,1.5696517 102.81037,5.959735 96.87781,9.074339 65.58429,27.749516 34.043376,46.03895 3.294922,65.606445 c -2.0181759,1.52069 -5.3992218,2.78847 -4.7939454,5.92871 0.3569533,5.64903 0.67411675,11.555205 2.7958984,16.84668 2.77856,2.447765 6.884809,3.040615 10.087214,4.884725 5.292024,2.33663 10.579167,4.68423 15.86884,7.02641 0.519882,24.24153 1.350947,48.4764 1.851563,72.71875 -8.01946,1.6678 -16.26468,3.05482 -24.3642575,4.37011 -2.9096139,2.16814 -1.6285703,6.53669 -2.01774,9.6543 0.3277193,6.45733 -0.6342244,13.32394 1.7150055,19.47754 2.986125,3.08082 7.363194,4.53952 10.985957,6.7845 32.524433,16.97257 64.964363,34.12603 97.820843,50.44912 3.09155,1.29134 6.33281,3.85924 9.80258,2.13552 8.16102,-3.21848 15.26583,-8.59934 22.99983,-12.68445 29.9469,-17.56782 60.28946,-34.47667 89.91064,-52.59142 2.01625,-0.91801 3.47574,-2.69384 2.9286,-5.02 -0.37314,-5.26051 -0.17432,-10.81127 -2.009,-15.80569 -2.35114,-2.42684 -6.39047,-1.19936 -9.40165,-1.91229 -8.8152,-0.69242 -17.78713,-1.20956 -26.51436,-1.90997 -0.41419,-7.98518 0.0492,-15.99343 0.0283,-23.98634 10.54617,-1.21316 21.23578,-1.46422 31.71875,-3.02441 3.52971,-1.90301 2.07096,-6.82701 2.26935,-10.0201 -0.31511,-7.08983 0.0868,-14.30173 -0.43693,-21.31668 -3.71222,-1.81131 -8.47295,-1.4162 -12.63809,-2.01185 -6.97287,-0.55148 -13.96008,-0.92824 -20.92285,-1.60352 -0.0758,-4.37843 -0.1902,-8.84935 -0.57324,-13.16699 9.91974,-4.4654 20.21874,-8.20951 29.82129,-13.331055 2.7435,-2.285585 1.85862,-6.56077 2.7748,-9.68001 0.28914,-4.662425 1.96101,-9.543815 0.66856,-14.1403 -2.99312,-3.30774 -7.72039,-4.519145 -11.38471,-6.97337 C 187.9002,38.14452 153.70697,19.215 119.06641,1.133789 c -1.33963,-0.64337542 -2.7255,-1.44015186 -4.26367,-1.36718744 z M 114.4541,3.383789 c 1.46998,14.94354 2.04141,29.951498 2.87598,44.942383 -13.70197,6.330173 -28.033265,11.315133 -42.06641,16.941408 -1.44534,2.509345 -0.0947,6.04603 -0.43394,8.955385 0.45273,12.18697 0.365995,24.458135 1.76109,36.571955 1.92928,1.65047 5.11967,0.35293 7.500975,0.81805 10.914155,0.0389 21.827575,-0.13139 32.741215,-0.20965 1.21739,14.53599 1.22963,29.19948 1.95019,43.78906 -9.00888,0.72454 -18.1062,-0.32889 -27.13303,-0.64383 -4.31787,-0.13877 -8.680415,-0.74272 -12.984155,-0.44211 -1.62716,2.03391 -0.584295,5.22214 -1.05844,7.67753 -0.295045,13.70829 -0.544485,27.55312 0.4755,41.17148 5.954145,2.66353 12.74844,4.20691 19.02369,6.4461 7.586985,2.61764 15.525825,4.73036 22.842455,7.92364 0.33205,14.86996 0.55591,29.8286 -0.11133,44.65333 0.10298,2.25242 -2.50518,-0.35591 -3.49324,-0.37332 C 85.023855,246.19484 54.21669,229.69408 23.213895,213.62977 17.874996,210.55855 11.981696,208.2132 7.098633,204.46094 6.2212565,196.75833 5.467723,188.78085 6.251953,180.9414 c 5.646841,0.38144 11.636359,2.38896 17.39178,3.5199 2.763644,0.38151 5.651665,1.84987 8.437321,1.25745 1.254326,-2.5332 0.19251,-5.77999 0.49312,-8.57114 C 31.769556,145.77021 31.192399,114.378 29.731445,83.02344 29.92276,80.17461 26.534336,81.5449 24.958984,81.89551 17.983882,83.255775 11.113547,85.808575 4.035156,86.30469 2.3783163,81.35808 2.4167964,75.93387 1.6640625,70.75586 14.592875,61.91698 28.478456,54.065205 41.875044,45.771313 65.204155,31.820335 88.349945,17.547554 112.0625,4.2675781 c 0.76282,-0.3277606 1.62654,-0.7569585 2.3916,-0.8837891 z m 3.9834,1.0898438 C 155.98588,24.490182 193.49672,44.586269 230.75,65.14746 230.64642,71.59162 229.73863,78.269935 228.49902,84.41211 192.64476,72.746845 156.82042,60.762675 121.1709,48.509765 119.80016,33.848869 119.38891,19.029624 118.28808,4.3974609 Z M 78.80371,69.961915 c 39.34727,10.428765 78.79383,20.85676 117.94824,31.923825 0.67136,3.83781 0.42992,7.65375 0.49707,11.56055 -27.39133,-1.92894 -54.90128,-4.29592 -82.37561,-5.739 -11.66891,-0.39203 -23.7228,0.34425 -35.133175,0.20091 C 79.43287,95.292105 78.53593,82.450265 78.80371,69.961915 Z m 42.75879,42.059575 c 35.81989,2.38749 71.64355,5.09846 107.43696,7.9435 1.55166,-0.0872 2.6273,0.53228 2.06597,2.28794 0.2741,7.70777 0.14667,15.49893 0.18359,23.24121 -36.15889,3.34822 -72.35624,6.29989 -108.52636,9.53613 -1.11973,-14.1976 -0.94094,-28.89465 -1.86914,-43.0293 l 0.49979,0.0145 z m 75.54004,40.6289 c 0.25901,7.75617 0.23351,15.53405 -0.19629,23.2832 -38.2813,8.09668 -76.66455,15.90668 -115.04004,23.53223 -0.64266,-13.49415 -0.7496,-27.14701 -0.38574,-40.69531 1.32666,-1.92604 5.593805,-0.15959 8.138585,-0.54576 12.134085,0.5732 24.308595,1.78755 36.449305,0.39341 23.66545,-1.82134 47.49936,-4.18203 71.03418,-5.96777 z m 37.00488,30.5 c 0.65268,4.65411 1.11791,9.4157 1.13965,14.15625 -37.03644,21.44814 -74.10525,42.84225 -111.09863,64.36328 -0.67277,-14.04321 -0.41949,-28.35767 -0.2168,-42.35254 -0.57472,-2.9488 3.24198,-2.46784 5.02496,-3.48693 33.70056,-10.83379 67.36761,-22.00448 101.26038,-32.12231 1.05884,0.0216 3.2704,-1.40717 3.89044,-0.55775 z"
       id="path108864"
       transform="matrix(0.26458333,0,0,0.26458333,69.350834,70.731659)" />
  </g>
</svg>
